<?xml version="1.0" encoding="UTF-8" standalone="no"?>
<svg
   xmlns:dc="http://purl.org/dc/elements/1.1/"
   xmlns:cc="http://creativecommons.org/ns#"
   xmlns:rdf="http://www.w3.org/1999/02/22-rdf-syntax-ns#"
   xmlns:svg="http://www.w3.org/2000/svg"
   xmlns="http://www.w3.org/2000/svg"
   xmlns:sodipodi="http://sodipodi.sourceforge.net/DTD/sodipodi-0.dtd"
   xmlns:inkscape="http://www.inkscape.org/namespaces/inkscape"
   version="1.1"
   viewBox="0 0 461.05511 109.25853"
   stroke-miterlimit="10"
   id="svg69"
   sodipodi:docname="cell_state.svg"
   width="461.05511"
   height="109.25853"
   style="fill:none;stroke:none;stroke-linecap:square;stroke-miterlimit:10"
   inkscape:version="0.92.4 (5da689c313, 2019-01-14)">
  <metadata
     id="metadata75">
    <rdf:RDF>
      <cc:Work
         rdf:about="">
        <dc:format>image/svg+xml</dc:format>
        <dc:type
           rdf:resource="http://purl.org/dc/dcmitype/StillImage" />
        <dc:title></dc:title>
      </cc:Work>
    </rdf:RDF>
  </metadata>
  <defs
     id="defs73" />
  <sodipodi:namedview
     pagecolor="#ffffff"
     bordercolor="#666666"
     borderopacity="1"
     objecttolerance="10"
     gridtolerance="10"
     guidetolerance="10"
     inkscape:pageopacity="0"
     inkscape:pageshadow="2"
     inkscape:window-width="1673"
     inkscape:window-height="1049"
     id="namedview71"
     showgrid="false"
     fit-margin-top="10"
     fit-margin-left="10"
     fit-margin-right="10"
     fit-margin-bottom="10"
     inkscape:zoom="0.5462963"
     inkscape:cx="540.72946"
     inkscape:cy="-165.81063"
     inkscape:window-x="0"
     inkscape:window-y="0"
     inkscape:window-maximized="0"
     inkscape:current-layer="g67" />
  <clipPath
     id="p.0">
    <path
       d="M 0,0 H 1152 V 864 H 0 Z"
       id="path2"
       inkscape:connector-curvature="0"
       style="clip-rule:nonzero" />
  </clipPath>
  <g
     clip-path="url(#p.0)"
     id="g67"
     transform="translate(-12.946194,-16.02231)">
    <path
       d="M 0,0 H 1152 V 864 H 0 Z"
       id="path5"
       inkscape:connector-curvature="0"
       style="fill:#000000;fill-opacity:0;fill-rule:evenodd" />
    <path
       d="m 23.461943,33.66156 v 0 c 0,-3.9429 3.19635,-7.13925 7.13925,-7.13925 h 35.705753 c 1.893448,0 3.709343,0.752169 5.04821,2.091038 1.338867,1.338869 2.091042,3.154766 2.091042,5.048212 v 28.556145 c 0,3.942901 -3.196358,7.139251 -7.139252,7.139251 H 30.601193 c -3.9429,0 -7.13925,-3.19635 -7.13925,-7.139251 z"
       id="path7"
       inkscape:connector-curvature="0"
       style="fill:#dd7e6b;fill-rule:evenodd" />
    <path
       d="m 23.461943,33.66156 v 0 c 0,-3.9429 3.19635,-7.13925 7.13925,-7.13925 h 35.705753 c 1.893448,0 3.709343,0.752169 5.04821,2.091038 1.338867,1.338869 2.091042,3.154766 2.091042,5.048212 v 28.556145 c 0,3.942901 -3.196358,7.139251 -7.139252,7.139251 H 30.601193 c -3.9429,0 -7.13925,-3.19635 -7.13925,-7.139251 z"
       id="path9"
       inkscape:connector-curvature="0"
       style="fill-rule:evenodd;stroke:#000000;stroke-width:1;stroke-linecap:butt;stroke-linejoin:round" />
    <path
       d="M 43.186344,54.85963 V 41.500255 h 5.921875 q 1.78125,0 2.703125,0.359375 0.9375,0.359375 1.484375,1.28125 0.5625,0.90625 0.5625,2.015625 0,1.40625 -0.921875,2.390625 -0.921875,0.96875 -2.84375,1.234375 0.703125,0.34375 1.078125,0.671875 0.765625,0.703125 1.453125,1.765625 l 2.328125,3.640625 h -2.21875 l -1.765625,-2.78125 q -0.78125,-1.203125 -1.28125,-1.828125 -0.5,-0.640625 -0.90625,-0.890625 -0.390625,-0.265625 -0.796875,-0.359375 -0.296875,-0.07813 -0.984375,-0.07813 h -2.046875 v 5.9375 z m 1.765625,-7.453125 h 3.796875 q 1.21875,0 1.890625,-0.25 0.6875,-0.265625 1.046875,-0.8125 0.359375,-0.546875 0.359375,-1.1875 0,-0.953125 -0.6875,-1.5625 -0.6875,-0.609375 -2.1875,-0.609375 h -4.21875 z"
       id="path11"
       inkscape:connector-curvature="0"
       style="fill:#000000;fill-rule:nonzero" />
    <path
       d="m 79.461945,33.66156 v 0 c 0,-3.9429 3.19635,-7.13925 7.139252,-7.13925 h 35.705753 c 1.89344,0 3.70934,0.752169 5.04821,2.091038 1.33887,1.338869 2.09104,3.154766 2.09104,5.048212 v 28.556145 c 0,3.942901 -3.19636,7.139251 -7.13925,7.139251 H 86.601197 c -3.942902,0 -7.139252,-3.19635 -7.139252,-7.139251 z"
       id="path13"
       inkscape:connector-curvature="0"
       style="fill:#b6d7a8;fill-rule:evenodd" />
    <path
       d="m 79.461945,33.66156 v 0 c 0,-3.9429 3.19635,-7.13925 7.139252,-7.13925 h 35.705753 c 1.89344,0 3.70934,0.752169 5.04821,2.091038 1.33887,1.338869 2.09104,3.154766 2.09104,5.048212 v 28.556145 c 0,3.942901 -3.19636,7.139251 -7.13925,7.139251 H 86.601197 c -3.942902,0 -7.139252,-3.19635 -7.139252,-7.139251 z"
       id="path15"
       inkscape:connector-curvature="0"
       style="fill-rule:evenodd;stroke:#000000;stroke-width:1;stroke-linecap:butt;stroke-linejoin:round" />
    <path
       d="m 104.88586,49.625256 v -1.578125 h 5.65625 v 4.953125 q -1.29688,1.046875 -2.6875,1.578125 -1.375,0.515625 -2.84375,0.515625 -1.96875,0 -3.57813,-0.84375 -1.60937,-0.84375 -2.42187,-2.4375 -0.8125,-1.59375 -0.8125,-3.5625 0,-1.953125 0.8125,-3.640625 0.8125,-1.6875 2.34375,-2.5 1.53125,-0.828125 3.51562,-0.828125 1.45313,0 2.625,0.46875 1.17188,0.46875 1.82813,1.3125 0.67187,0.828125 1.01562,2.171875 l -1.59375,0.4375 q -0.29687,-1.015625 -0.75,-1.59375 -0.4375,-0.59375 -1.26562,-0.9375 -0.82813,-0.34375 -1.84375,-0.34375 -1.20313,0 -2.09375,0.375 -0.89063,0.359375 -1.4375,0.96875 -0.53125,0.59375 -0.82813,1.3125 -0.51562,1.234375 -0.51562,2.6875 0,1.78125 0.60937,2.984375 0.625,1.203125 1.79688,1.796875 1.17187,0.578125 2.5,0.578125 1.14062,0 2.23437,-0.4375 1.09375,-0.453125 1.65625,-0.953125 v -2.484375 z"
       id="path17"
       inkscape:connector-curvature="0"
       style="fill:#000000;fill-rule:nonzero" />
    <path
       d="m 135.46194,33.66156 v 0 c 0,-3.9429 3.19635,-7.13925 7.13925,-7.13925 h 35.70575 c 1.89345,0 3.70934,0.752169 5.04822,2.091038 1.33887,1.338869 2.09103,3.154766 2.09103,5.048212 v 28.556145 c 0,3.942901 -3.19635,7.139251 -7.13925,7.139251 h -35.70575 c -3.9429,0 -7.13925,-3.19635 -7.13925,-7.139251 z"
       id="path19"
       inkscape:connector-curvature="0"
       style="fill:#9fc5e8;fill-rule:evenodd" />
    <path
       d="m 135.46194,33.66156 v 0 c 0,-3.9429 3.19635,-7.13925 7.13925,-7.13925 h 35.70575 c 1.89345,0 3.70934,0.752169 5.04822,2.091038 1.33887,1.338869 2.09103,3.154766 2.09103,5.048212 v 28.556145 c 0,3.942901 -3.19635,7.139251 -7.13925,7.139251 h -35.70575 c -3.9429,0 -7.13925,-3.19635 -7.13925,-7.139251 z"
       id="path21"
       inkscape:connector-curvature="0"
       style="fill-rule:evenodd;stroke:#000000;stroke-width:1;stroke-linecap:butt;stroke-linejoin:round" />
    <path
       d="M 155.59166,54.85963 V 41.500255 h 5.01562 q 1.53125,0 2.45313,0.40625 0.92187,0.40625 1.4375,1.25 0.53125,0.84375 0.53125,1.765625 0,0.859375 -0.46875,1.625 -0.45313,0.75 -1.39063,1.203125 1.20313,0.359375 1.85938,1.21875 0.65625,0.859375 0.65625,2.015625 0,0.9375 -0.40625,1.75 -0.39063,0.796875 -0.98438,1.234375 -0.57812,0.4375 -1.45312,0.671875 -0.875,0.21875 -2.15625,0.21875 z m 1.78125,-7.75 h 2.875 q 1.1875,0 1.6875,-0.140625 0.67187,-0.203125 1.01562,-0.671875 0.34375,-0.46875 0.34375,-1.171875 0,-0.65625 -0.32812,-1.15625 -0.3125,-0.515625 -0.90625,-0.703125 -0.59375,-0.1875 -2.03125,-0.1875 h -2.65625 z m 0,6.171875 h 3.3125 q 0.85937,0 1.20312,-0.0625 0.60938,-0.109375 1.01563,-0.359375 0.42187,-0.265625 0.6875,-0.75 0.26562,-0.484375 0.26562,-1.125 0,-0.75 -0.39062,-1.296875 -0.375,-0.546875 -1.0625,-0.765625 -0.67188,-0.234375 -1.95313,-0.234375 h -3.07812 z"
       id="path23"
       inkscape:connector-curvature="0"
       style="fill:#000000;fill-rule:nonzero" />
    <path
       d="m 191.46194,33.66156 v 0 c 0,-3.9429 3.19635,-7.13925 7.13925,-7.13925 h 35.70575 c 1.89345,0 3.70934,0.752169 5.04822,2.091038 1.33887,1.338869 2.09103,3.154766 2.09103,5.048212 v 28.556145 c 0,3.942901 -3.19635,7.139251 -7.13925,7.139251 h -35.70575 c -3.9429,0 -7.13925,-3.19635 -7.13925,-7.139251 z"
       id="path25"
       inkscape:connector-curvature="0"
       style="fill:#ffffff;fill-rule:evenodd" />
    <path
       d="m 191.46194,33.66156 v 0 c 0,-3.9429 3.19635,-7.13925 7.13925,-7.13925 h 35.70575 c 1.89345,0 3.70934,0.752169 5.04822,2.091038 1.33887,1.338869 2.09103,3.154766 2.09103,5.048212 v 28.556145 c 0,3.942901 -3.19635,7.139251 -7.13925,7.139251 h -35.70575 c -3.9429,0 -7.13925,-3.19635 -7.13925,-7.139251 z"
       id="path27"
       inkscape:connector-curvature="0"
       style="fill-rule:evenodd;stroke:#000000;stroke-width:1;stroke-linecap:butt;stroke-linejoin:round" />
    <path
       d="m 210.20103,54.85963 5.125,-13.359375 h 1.90625 l 5.46875,13.359375 h -2.01563 l -1.54687,-4.046875 h -5.59375 l -1.46875,4.046875 z m 3.85937,-5.484375 h 4.53125 L 217.1854,45.67213 q -0.625,-1.6875 -0.9375,-2.765625 -0.26562,1.28125 -0.71875,2.546875 z"
       id="path29"
       inkscape:connector-curvature="0"
       style="fill:#000000;fill-rule:nonzero" />
    <path
       d="m 255.46194,33.66156 v 0 c 0,-3.9429 3.19635,-7.13925 7.13925,-7.13925 h 35.70575 c 1.89343,0 3.70935,0.752169 5.04822,2.091038 1.33887,1.338869 2.09103,3.154766 2.09103,5.048212 v 28.556145 c 0,3.942901 -3.19635,7.139251 -7.13925,7.139251 h -35.70575 c -3.9429,0 -7.13925,-3.19635 -7.13925,-7.139251 z"
       id="path31"
       inkscape:connector-curvature="0"
       style="fill:#f3f3f3;fill-rule:evenodd" />
    <path
       d="m 255.46194,33.66156 v 0 c 0,-3.9429 3.19635,-7.13925 7.13925,-7.13925 h 35.70575 c 1.89343,0 3.70935,0.752169 5.04822,2.091038 1.33887,1.338869 2.09103,3.154766 2.09103,5.048212 v 28.556145 c 0,3.942901 -3.19635,7.139251 -7.13925,7.139251 h -35.70575 c -3.9429,0 -7.13925,-3.19635 -7.13925,-7.139251 z"
       id="path33"
       inkscape:connector-curvature="0"
       style="fill-rule:evenodd;stroke:#000000;stroke-width:1;stroke-linecap:butt;stroke-linejoin:round" />
    <path
       d="m 312.87402,33.66156 v 0 c 0,-3.9429 3.19635,-7.13925 7.13925,-7.13925 h 35.70575 c 1.89343,0 3.70935,0.752169 5.04822,2.091038 1.33887,1.338869 2.09103,3.154766 2.09103,5.048212 v 28.556145 c 0,3.942901 -3.19635,7.139251 -7.13925,7.139251 h -35.70575 c -3.9429,0 -7.13925,-3.19635 -7.13925,-7.139251 z"
       id="path35"
       inkscape:connector-curvature="0"
       style="fill:#f3f3f3;fill-rule:evenodd" />
    <path
       d="m 312.87402,33.66156 v 0 c 0,-3.9429 3.19635,-7.13925 7.13925,-7.13925 h 35.70575 c 1.89343,0 3.70935,0.752169 5.04822,2.091038 1.33887,1.338869 2.09103,3.154766 2.09103,5.048212 v 28.556145 c 0,3.942901 -3.19635,7.139251 -7.13925,7.139251 h -35.70575 c -3.9429,0 -7.13925,-3.19635 -7.13925,-7.139251 z"
       id="path37"
       inkscape:connector-curvature="0"
       style="fill-rule:evenodd;stroke:#000000;stroke-width:1;stroke-linecap:butt;stroke-linejoin:round" />
    <path
       d="m 366.87927,26.52231 h 38.77164 v 42.83465 h -38.77164 z"
       id="path39"
       inkscape:connector-curvature="0"
       style="fill:#000000;fill-opacity:0;fill-rule:evenodd" />
    <path
       d="m 380.17764,53.442307 v -1.875 h 1.875 v 1.875 z m 5.18329,0 v -1.875 h 1.875 v 1.875 z m 5.18332,0 v -1.875 h 1.875 v 1.875 z"
       id="path41"
       inkscape:connector-curvature="0"
       style="fill:#000000;fill-rule:nonzero" />
    <path
       d="m 409.6719,33.66156 v 0 c 0,-3.9429 3.19635,-7.13925 7.13925,-7.13925 h 35.70575 c 1.89346,0 3.70935,0.752169 5.04822,2.091038 1.33887,1.338869 2.09103,3.154766 2.09103,5.048212 v 28.556145 c 0,3.942901 -3.19635,7.139251 -7.13925,7.139251 h -35.70575 c -3.9429,0 -7.13925,-3.19635 -7.13925,-7.139251 z"
       id="path43"
       inkscape:connector-curvature="0"
       style="fill:#f3f3f3;fill-rule:evenodd" />
    <path
       d="m 409.6719,33.66156 v 0 c 0,-3.9429 3.19635,-7.13925 7.13925,-7.13925 h 35.70575 c 1.89346,0 3.70935,0.752169 5.04822,2.091038 1.33887,1.338869 2.09103,3.154766 2.09103,5.048212 v 28.556145 c 0,3.942901 -3.19635,7.139251 -7.13925,7.139251 h -35.70575 c -3.9429,0 -7.13925,-3.19635 -7.13925,-7.139251 z"
       id="path45"
       inkscape:connector-curvature="0"
       style="fill-rule:evenodd;stroke:#000000;stroke-width:1;stroke-linecap:butt;stroke-linejoin:round" />
    <path
       d="m 242.50131,79.28084 v 0 c 0,5.20974 -0.70386,9.433075 -1.57211,9.433075 H 134.54587 c -0.86826,0 -1.57212,4.223328 -1.57212,9.433067 v 0 c 0,-5.20974 -0.70385,-9.433067 -1.57211,-9.433067 H 25.018311 c -0.868256,0 -1.572117,-4.223335 -1.572117,-9.433075 z"
       id="path47"
       inkscape:connector-curvature="0"
       style="fill:#000000;fill-opacity:0;fill-rule:evenodd" />
    <path
       d="m 242.50131,79.28084 v 0 c 0,5.20974 -0.70386,9.433075 -1.57211,9.433075 H 134.54587 c -0.86826,0 -1.57212,4.223328 -1.57212,9.433067 v 0 c 0,-5.20974 -0.70385,-9.433067 -1.57211,-9.433067 H 25.018311 c -0.868256,0 -1.572117,-4.223335 -1.572117,-9.433075"
       id="path49"
       inkscape:connector-curvature="0"
       style="fill:#000000;fill-opacity:0;fill-rule:evenodd" />
    <path
       d="m 242.50131,79.28084 v 0 c 0,5.20974 -0.70386,9.433075 -1.57211,9.433075 H 134.54587 c -0.86826,0 -1.57212,4.223328 -1.57212,9.433067 v 0 c 0,-5.20974 -0.70385,-9.433067 -1.57211,-9.433067 H 25.018311 c -0.868256,0 -1.572117,-4.223335 -1.572117,-9.433075"
       id="path51"
       inkscape:connector-curvature="0"
       style="fill-rule:evenodd;stroke:#000000;stroke-width:1;stroke-linecap:butt;stroke-linejoin:round" />
    <path
       d="m 463.5013,79.28084 v 0 c 0,5.20974 -0.70386,9.433075 -1.57211,9.433075 H 361.05767 c -0.86826,0 -1.57212,4.223328 -1.57212,9.433067 v 0 c 0,-5.20974 -0.70385,-9.433067 -1.57211,-9.433067 H 257.04192 c -0.86825,0 -1.57211,-4.223335 -1.57211,-9.433075 z"
       id="path53"
       inkscape:connector-curvature="0"
       style="fill:#000000;fill-opacity:0;fill-rule:evenodd" />
    <path
       d="m 463.5013,79.28084 v 0 c 0,5.20974 -0.70386,9.433075 -1.57211,9.433075 H 361.05767 c -0.86826,0 -1.57212,4.223328 -1.57212,9.433067 v 0 c 0,-5.20974 -0.70385,-9.433067 -1.57211,-9.433067 H 257.04192 c -0.86825,0 -1.57211,-4.223335 -1.57211,-9.433075"
       id="path55"
       inkscape:connector-curvature="0"
       style="fill:#000000;fill-opacity:0;fill-rule:evenodd" />
    <path
       d="m 463.5013,79.28084 v 0 c 0,5.20974 -0.70386,9.433075 -1.57211,9.433075 H 361.05767 c -0.86826,0 -1.57212,4.223328 -1.57212,9.433067 v 0 c 0,-5.20974 -0.70385,-9.433067 -1.57211,-9.433067 H 257.04192 c -0.86825,0 -1.57211,-4.223335 -1.57211,-9.433075"
       id="path57"
       inkscape:connector-curvature="0"
       style="fill-rule:evenodd;stroke:#000000;stroke-width:1;stroke-linecap:butt;stroke-linejoin:round" />
    <path
       d="M 37.501312,87.28084 H 235.51706 v 28 H 37.501312 Z"
       id="path59"
       inkscape:connector-curvature="0"
       style="fill:#000000;fill-opacity:0;fill-rule:evenodd" />
    <path
       d="m 68.90837,114.20084 v -3.20313 h -5.796875 v -1.5 l 6.09375,-8.65625 h 1.34375 v 8.65625 h 1.796875 v 1.5 h -1.796875 v 3.20313 z m 0,-4.70313 v -6.01562 l -4.1875,6.01562 z m 13.449646,4.70313 -3.6875,-9.67188 h 1.734375 l 2.078125,5.79688 q 0.328125,0.9375 0.625,1.9375 0.203125,-0.76563 0.609375,-1.82813 l 2.140625,-5.90625 h 1.6875 l -3.65625,9.67188 z m 6.640625,-11.46875 v -1.89063 h 1.640625 v 1.89063 z m 0,11.46875 v -9.67188 h 1.640625 v 9.67188 z m 3.488571,-2.89063 1.625,-0.25 q 0.125,0.96875 0.75,1.5 0.625,0.51563 1.75,0.51563 1.125,0 1.671875,-0.45313 0.546875,-0.46875 0.546875,-1.09375 0,-0.54687 -0.484375,-0.875 -0.328125,-0.21875 -1.671875,-0.54687 -1.8125,-0.46875 -2.515625,-0.79688 -0.6875,-0.32812 -1.046875,-0.90625 -0.359375,-0.59375 -0.359375,-1.3125 0,-0.64062 0.296875,-1.1875 0.296875,-0.5625 0.8125,-0.92187 0.375,-0.28125 1.03125,-0.46875 0.671875,-0.20313 1.421875,-0.20313 1.140625,0 2,0.32813 0.859375,0.32812 1.265625,0.89062 0.421878,0.5625 0.578128,1.5 l -1.609378,0.21875 q -0.109375,-0.75 -0.640625,-1.17187 -0.515625,-0.42188 -1.46875,-0.42188 -1.140625,0 -1.625,0.375 -0.46875,0.375 -0.46875,0.875 0,0.3125 0.1875,0.57813 0.203125,0.26562 0.640625,0.4375 0.234375,0.0937 1.4375,0.42187 1.75,0.45313 2.4375,0.75 0.6875,0.29688 1.078128,0.85938 0.39062,0.5625 0.39062,1.40625 0,0.82812 -0.48437,1.54687 -0.468753,0.71875 -1.375003,1.125 -0.90625,0.39063 -2.046875,0.39063 -1.875,0 -2.875,-0.78125 -0.984375,-0.78125 -1.25,-2.32813 z m 9.984378,-8.57812 v -1.89063 h 1.64062 v 1.89063 z m 0,11.46875 v -9.67188 h 1.64062 v 9.67188 z m 5.64482,0 h -1.51563 v -13.35938 h 1.64063 v 4.76563 q 1.04687,-1.29688 2.65625,-1.29688 0.89062,0 1.6875,0.35938 0.79687,0.35937 1.3125,1.01562 0.51562,0.64063 0.79687,1.5625 0.29688,0.92188 0.29688,1.96875 0,2.48438 -1.23438,3.84375 -1.21875,1.35938 -2.95312,1.35938 -1.70313,0 -2.6875,-1.4375 z m -0.0156,-4.90625 q 0,1.73437 0.48438,2.51562 0.76562,1.26563 2.09375,1.26563 1.07812,0 1.85937,-0.9375 0.78125,-0.9375 0.78125,-2.78125 0,-1.89063 -0.75,-2.79688 -0.75,-0.90625 -1.82812,-0.90625 -1.0625,0 -1.85938,0.9375 -0.78125,0.9375 -0.78125,2.70313 z m 8.84447,4.90625 v -13.35938 h 1.64063 v 13.35938 z m 10.8167,-3.10938 1.6875,0.20313 q -0.40625,1.48437 -1.48438,2.3125 -1.07812,0.8125 -2.76562,0.8125 -2.125,0 -3.375,-1.29688 -1.23438,-1.3125 -1.23438,-3.67187 0,-2.45313 1.25,-3.79688 1.26563,-1.34375 3.26563,-1.34375 1.9375,0 3.15625,1.32813 1.23437,1.3125 1.23437,3.70312 0,0.15625 0,0.4375 h -7.21875 q 0.0937,1.59375 0.90625,2.45313 0.8125,0.84375 2.01563,0.84375 0.90625,0 1.54687,-0.46875 0.64063,-0.48438 1.01563,-1.51563 z m -5.39063,-2.65625 h 5.40625 q -0.10937,-1.21875 -0.625,-1.82812 -0.78125,-0.95313 -2.03125,-0.95313 -1.125,0 -1.90625,0.76563 -0.76562,0.75 -0.84375,2.01562 z m 20.63715,2.21875 1.60937,0.21875 q -0.26562,1.65625 -1.35937,2.60938 -1.07813,0.9375 -2.67188,0.9375 -1.98437,0 -3.1875,-1.29688 -1.20312,-1.29687 -1.20312,-3.71875 0,-1.57812 0.51562,-2.75 0.51563,-1.17187 1.57813,-1.75 1.0625,-0.59375 2.3125,-0.59375 1.57812,0 2.57812,0.79688 1,0.79687 1.28125,2.26562 l -1.59375,0.23438 q -0.23437,-0.96875 -0.8125,-1.45313 -0.57812,-0.5 -1.39062,-0.5 -1.23438,0 -2.01563,0.89063 -0.78125,0.89062 -0.78125,2.8125 0,1.95312 0.75,2.84375 0.75,0.875 1.95313,0.875 0.96875,0 1.60937,-0.59375 0.65625,-0.59375 0.82813,-1.82813 z m 3.01562,3.54688 v -13.35938 h 1.64063 v 4.79688 q 1.14062,-1.32813 2.89062,-1.32813 1.07813,0 1.85938,0.42188 0.79687,0.42187 1.14062,1.17187 0.34375,0.75 0.34375,2.17188 v 6.125 h -1.64062 v -6.125 q 0,-1.23438 -0.53125,-1.79688 -0.53125,-0.5625 -1.51563,-0.5625 -0.71875,0 -1.35937,0.39063 -0.64063,0.375 -0.92188,1.01562 -0.26562,0.64063 -0.26562,1.78125 v 5.29688 z m 16.68822,-1.1875 q -0.92188,0.76562 -1.76563,1.09375 -0.82812,0.3125 -1.79687,0.3125 -1.59375,0 -2.45313,-0.78125 -0.85937,-0.78125 -0.85937,-1.98438 0,-0.71875 0.32812,-1.29687 0.32813,-0.59375 0.84375,-0.9375 0.53125,-0.35938 1.1875,-0.54688 0.46875,-0.125 1.45313,-0.25 1.98437,-0.23437 2.92187,-0.5625 0.0156,-0.34375 0.0156,-0.42187 0,-1 -0.46875,-1.42188 -0.625,-0.54687 -1.875,-0.54687 -1.15625,0 -1.70313,0.40625 -0.54687,0.40625 -0.8125,1.42187 l -1.60937,-0.21875 q 0.21875,-1.01562 0.71875,-1.64062 0.5,-0.64063 1.45312,-0.98438 0.95313,-0.34375 2.1875,-0.34375 1.25,0 2.01563,0.29688 0.78125,0.28125 1.14062,0.73437 0.375,0.4375 0.51563,1.10938 0.0781,0.42187 0.0781,1.51562 v 2.1875 q 0,2.28125 0.10938,2.89063 0.10937,0.59375 0.40625,1.15625 h -1.70313 q -0.26562,-0.51563 -0.32812,-1.1875 z m -0.14063,-3.67188 q -0.89062,0.375 -2.67187,0.625 -1.01563,0.14063 -1.4375,0.32813 -0.42188,0.1875 -0.65625,0.53125 -0.21875,0.34375 -0.21875,0.78125 0,0.65625 0.5,1.09375 0.5,0.4375 1.45312,0.4375 0.9375,0 1.67188,-0.40625 0.75,-0.42188 1.09375,-1.14063 0.26562,-0.5625 0.26562,-1.64062 z m 4.20385,4.85938 v -9.67188 h 1.46875 v 1.375 q 1.0625,-1.59375 3.07812,-1.59375 0.875,0 1.60938,0.3125 0.73437,0.3125 1.09375,0.82813 0.375,0.5 0.51562,1.20312 0.0937,0.45313 0.0937,1.59375 v 5.95313 h -1.64062 v -5.89063 q 0,-1 -0.20313,-1.48437 -0.1875,-0.5 -0.67187,-0.79688 -0.48438,-0.29687 -1.14063,-0.29687 -1.04687,0 -1.8125,0.67187 -0.75,0.65625 -0.75,2.51563 v 5.28125 z m 10.37571,0 v -9.67188 h 1.46875 v 1.375 q 1.0625,-1.59375 3.07813,-1.59375 0.875,0 1.60937,0.3125 0.73438,0.3125 1.09375,0.82813 0.375,0.5 0.51563,1.20312 0.0937,0.45313 0.0937,1.59375 v 5.95313 h -1.64063 v -5.89063 q 0,-1 -0.20312,-1.48437 -0.1875,-0.5 -0.67188,-0.79688 -0.48437,-0.29687 -1.14062,-0.29687 -1.04688,0 -1.8125,0.67187 -0.75,0.65625 -0.75,2.51563 v 5.28125 z m 17.00072,-3.10938 1.6875,0.20313 q -0.40625,1.48437 -1.48437,2.3125 -1.07813,0.8125 -2.76563,0.8125 -2.125,0 -3.375,-1.29688 -1.23437,-1.3125 -1.23437,-3.67187 0,-2.45313 1.25,-3.79688 1.26562,-1.34375 3.26562,-1.34375 1.9375,0 3.15625,1.32813 1.23438,1.3125 1.23438,3.70312 0,0.15625 0,0.4375 h -7.21875 q 0.0937,1.59375 0.90625,2.45313 0.8125,0.84375 2.01562,0.84375 0.90625,0 1.54688,-0.46875 0.64062,-0.48438 1.01562,-1.51563 z m -5.39062,-2.65625 h 5.40625 q -0.10938,-1.21875 -0.625,-1.82812 -0.78125,-0.95313 -2.03125,-0.95313 -1.125,0 -1.90625,0.76563 -0.76563,0.75 -0.84375,2.01562 z m 9.09446,5.76563 v -13.35938 h 1.64063 v 13.35938 z m 3.53545,-2.89063 1.625,-0.25 q 0.125,0.96875 0.75,1.5 0.625,0.51563 1.75,0.51563 1.125,0 1.67187,-0.45313 0.54688,-0.46875 0.54688,-1.09375 0,-0.54687 -0.48438,-0.875 -0.32812,-0.21875 -1.67187,-0.54687 -1.8125,-0.46875 -2.51563,-0.79688 -0.6875,-0.32812 -1.04687,-0.90625 -0.35938,-0.59375 -0.35938,-1.3125 0,-0.64062 0.29688,-1.1875 0.29687,-0.5625 0.8125,-0.92187 0.375,-0.28125 1.03125,-0.46875 0.67187,-0.20313 1.42187,-0.20313 1.14063,0 2,0.32813 0.85938,0.32812 1.26563,0.89062 0.42187,0.5625 0.57812,1.5 l -1.60937,0.21875 q -0.10938,-0.75 -0.64063,-1.17187 -0.51562,-0.42188 -1.46875,-0.42188 -1.14062,0 -1.625,0.375 -0.46875,0.375 -0.46875,0.875 0,0.3125 0.1875,0.57813 0.20313,0.26562 0.64063,0.4375 0.23437,0.0937 1.4375,0.42187 1.75,0.45313 2.4375,0.75 0.6875,0.29688 1.07812,0.85938 0.39063,0.5625 0.39063,1.40625 0,0.82812 -0.48438,1.54687 -0.46875,0.71875 -1.375,1.125 -0.90625,0.39063 -2.04687,0.39063 -1.875,0 -2.875,-0.78125 -0.98438,-0.78125 -1.25,-2.32813 z"
       id="path61"
       inkscape:connector-curvature="0"
       style="fill:#000000;fill-rule:nonzero" />
    <path
       d="m 261.5013,87.28084 h 198.01575 v 28 H 261.5013 Z"
       id="path63"
       inkscape:connector-curvature="0"
       style="fill:#000000;fill-opacity:0;fill-rule:evenodd" />
    <path
       d="m 286.55176,114.20084 h -1.64063 v -10.45313 q -0.59375,0.5625 -1.5625,1.14063 -0.95312,0.5625 -1.71875,0.84375 v -1.59375 q 1.375,-0.64063 2.40625,-1.5625 1.03125,-0.92188 1.45313,-1.78125 h 1.0625 z m 12.81323,-1.57813 v 1.57813 h -8.82812 q -0.0156,-0.59375 0.1875,-1.14063 0.34375,-0.90625 1.07812,-1.78125 0.75,-0.875 2.15625,-2.01562 2.17188,-1.78125 2.9375,-2.82813 0.76563,-1.04687 0.76563,-1.96875 0,-0.98437 -0.70313,-1.64062 -0.6875,-0.67188 -1.8125,-0.67188 -1.1875,0 -1.90625,0.71875 -0.70312,0.70313 -0.70312,1.95313 l -1.6875,-0.17188 q 0.17187,-1.89062 1.29687,-2.875 1.14063,-0.98437 3.03125,-0.98437 1.92188,0 3.04688,1.0625 1.125,1.0625 1.125,2.64062 0,0.79688 -0.32813,1.57813 -0.32812,0.78125 -1.09375,1.64062 -0.75,0.84375 -2.53125,2.34375 -1.46875,1.23438 -1.89062,1.6875 -0.42188,0.4375 -0.6875,0.875 z m 7.40277,1.57813 v -13.35938 h 1.64063 v 4.79688 q 1.14062,-1.32813 2.89062,-1.32813 1.07813,0 1.85938,0.42188 0.79687,0.42187 1.14062,1.17187 0.34375,0.75 0.34375,2.17188 v 6.125 h -1.64062 v -6.125 q 0,-1.23438 -0.53125,-1.79688 -0.53125,-0.5625 -1.51563,-0.5625 -0.71875,0 -1.35937,0.39063 -0.64063,0.375 -0.92188,1.01562 -0.26562,0.64063 -0.26562,1.78125 v 5.29688 z m 10.3757,-11.46875 v -1.89063 h 1.64063 v 1.89063 z m 0,11.46875 v -9.67188 h 1.64063 v 9.67188 z m 10.41047,0 v -1.21875 q -0.90625,1.4375 -2.70313,1.4375 -1.15625,0 -2.125,-0.64063 -0.96875,-0.64062 -1.5,-1.78125 -0.53125,-1.14062 -0.53125,-2.625 0,-1.45312 0.48438,-2.625 0.48437,-1.1875 1.4375,-1.8125 0.96875,-0.625 2.17187,-0.625 0.875,0 1.54688,0.375 0.6875,0.35938 1.10937,0.95313 v -4.79688 h 1.64063 v 13.35938 z m -5.17188,-4.82813 q 0,1.85938 0.78125,2.78125 0.78125,0.92188 1.84375,0.92188 1.07813,0 1.82813,-0.875 0.75,-0.89063 0.75,-2.6875 0,-1.98438 -0.76563,-2.90625 -0.76562,-0.9375 -1.89062,-0.9375 -1.07813,0 -1.8125,0.89062 -0.73438,0.89063 -0.73438,2.8125 z m 15.54758,4.82813 v -1.21875 q -0.90625,1.4375 -2.70313,1.4375 -1.15625,0 -2.125,-0.64063 -0.96875,-0.64062 -1.5,-1.78125 -0.53125,-1.14062 -0.53125,-2.625 0,-1.45312 0.48438,-2.625 0.48437,-1.1875 1.4375,-1.8125 0.96875,-0.625 2.17187,-0.625 0.875,0 1.54688,0.375 0.6875,0.35938 1.10937,0.95313 v -4.79688 h 1.64063 v 13.35938 z m -5.17188,-4.82813 q 0,1.85938 0.78125,2.78125 0.78125,0.92188 1.84375,0.92188 1.07813,0 1.82813,-0.875 0.75,-0.89063 0.75,-2.6875 0,-1.98438 -0.76563,-2.90625 -0.76562,-0.9375 -1.89062,-0.9375 -1.07813,0 -1.8125,0.89062 -0.73438,0.89063 -0.73438,2.8125 z m 15.90698,1.71875 1.6875,0.20313 q -0.40625,1.48437 -1.48437,2.3125 -1.07813,0.8125 -2.76563,0.8125 -2.125,0 -3.375,-1.29688 -1.23437,-1.3125 -1.23437,-3.67187 0,-2.45313 1.25,-3.79688 1.26562,-1.34375 3.26562,-1.34375 1.9375,0 3.15625,1.32813 1.23438,1.3125 1.23438,3.70312 0,0.15625 0,0.4375 h -7.21875 q 0.0937,1.59375 0.90625,2.45313 0.8125,0.84375 2.01562,0.84375 0.90625,0 1.54688,-0.46875 0.64062,-0.48438 1.01562,-1.51563 z m -5.39062,-2.65625 h 5.40625 q -0.10938,-1.21875 -0.625,-1.82812 -0.78125,-0.95313 -2.03125,-0.95313 -1.125,0 -1.90625,0.76563 -0.76563,0.75 -0.84375,2.01562 z m 9.14133,5.76563 v -9.67188 h 1.46875 v 1.375 q 1.0625,-1.59375 3.07812,-1.59375 0.875,0 1.60938,0.3125 0.73437,0.3125 1.09375,0.82813 0.375,0.5 0.51562,1.20312 0.0937,0.45313 0.0937,1.59375 v 5.95313 h -1.64062 v -5.89063 q 0,-1 -0.20313,-1.48437 -0.1875,-0.5 -0.67187,-0.79688 -0.48438,-0.29687 -1.14063,-0.29687 -1.04687,0 -1.8125,0.67187 -0.75,0.65625 -0.75,2.51563 v 5.28125 z m 21.87152,-3.54688 1.60937,0.21875 q -0.26562,1.65625 -1.35937,2.60938 -1.07813,0.9375 -2.67188,0.9375 -1.98437,0 -3.1875,-1.29688 -1.20312,-1.29687 -1.20312,-3.71875 0,-1.57812 0.51562,-2.75 0.51563,-1.17187 1.57813,-1.75 1.0625,-0.59375 2.3125,-0.59375 1.57812,0 2.57812,0.79688 1,0.79687 1.28125,2.26562 l -1.59375,0.23438 q -0.23437,-0.96875 -0.8125,-1.45313 -0.57812,-0.5 -1.39062,-0.5 -1.23438,0 -2.01563,0.89063 -0.78125,0.89062 -0.78125,2.8125 0,1.95312 0.75,2.84375 0.75,0.875 1.95313,0.875 0.96875,0 1.60937,-0.59375 0.65625,-0.59375 0.82813,-1.82813 z m 3.01562,3.54688 v -13.35938 h 1.64063 v 4.79688 q 1.14062,-1.32813 2.89062,-1.32813 1.07813,0 1.85938,0.42188 0.79687,0.42187 1.14062,1.17187 0.34375,0.75 0.34375,2.17188 v 6.125 h -1.64062 v -6.125 q 0,-1.23438 -0.53125,-1.79688 -0.53125,-0.5625 -1.51563,-0.5625 -0.71875,0 -1.35937,0.39063 -0.64063,0.375 -0.92188,1.01562 -0.26562,0.64063 -0.26562,1.78125 v 5.29688 z m 16.68823,-1.1875 q -0.92187,0.76562 -1.76562,1.09375 -0.82813,0.3125 -1.79688,0.3125 -1.59375,0 -2.45312,-0.78125 -0.85938,-0.78125 -0.85938,-1.98438 0,-0.71875 0.32813,-1.29687 0.32812,-0.59375 0.84375,-0.9375 0.53125,-0.35938 1.1875,-0.54688 0.46875,-0.125 1.45312,-0.25 1.98438,-0.23437 2.92188,-0.5625 0.0156,-0.34375 0.0156,-0.42187 0,-1 -0.46875,-1.42188 -0.625,-0.54687 -1.875,-0.54687 -1.15625,0 -1.70312,0.40625 -0.54688,0.40625 -0.8125,1.42187 l -1.60938,-0.21875 q 0.21875,-1.01562 0.71875,-1.64062 0.5,-0.64063 1.45313,-0.98438 0.95312,-0.34375 2.1875,-0.34375 1.25,0 2.01562,0.29688 0.78125,0.28125 1.14063,0.73437 0.375,0.4375 0.51562,1.10938 0.0781,0.42187 0.0781,1.51562 v 2.1875 q 0,2.28125 0.10937,2.89063 0.10938,0.59375 0.40625,1.15625 h -1.70312 q -0.26563,-0.51563 -0.32813,-1.1875 z m -0.14062,-3.67188 q -0.89063,0.375 -2.67188,0.625 -1.01562,0.14063 -1.4375,0.32813 -0.42187,0.1875 -0.65625,0.53125 -0.21875,0.34375 -0.21875,0.78125 0,0.65625 0.5,1.09375 0.5,0.4375 1.45313,0.4375 0.9375,0 1.67187,-0.40625 0.75,-0.42188 1.09375,-1.14063 0.26563,-0.5625 0.26563,-1.64062 z m 4.20383,4.85938 v -9.67188 h 1.46875 v 1.375 q 1.0625,-1.59375 3.07812,-1.59375 0.875,0 1.60938,0.3125 0.73437,0.3125 1.09375,0.82813 0.375,0.5 0.51562,1.20312 0.0937,0.45313 0.0937,1.59375 v 5.95313 h -1.64062 v -5.89063 q 0,-1 -0.20313,-1.48437 -0.1875,-0.5 -0.67187,-0.79688 -0.48438,-0.29687 -1.14063,-0.29687 -1.04687,0 -1.8125,0.67187 -0.75,0.65625 -0.75,2.51563 v 5.28125 z m 10.37573,0 v -9.67188 h 1.46875 v 1.375 q 1.0625,-1.59375 3.07812,-1.59375 0.875,0 1.60938,0.3125 0.73437,0.3125 1.09375,0.82813 0.375,0.5 0.51562,1.20312 0.0937,0.45313 0.0937,1.59375 v 5.95313 h -1.64062 v -5.89063 q 0,-1 -0.20313,-1.48437 -0.1875,-0.5 -0.67187,-0.79688 -0.48438,-0.29687 -1.14063,-0.29687 -1.04687,0 -1.8125,0.67187 -0.75,0.65625 -0.75,2.51563 v 5.28125 z m 17.0007,-3.10938 1.6875,0.20313 q -0.40625,1.48437 -1.48437,2.3125 -1.07813,0.8125 -2.76563,0.8125 -2.125,0 -3.375,-1.29688 -1.23437,-1.3125 -1.23437,-3.67187 0,-2.45313 1.25,-3.79688 1.26562,-1.34375 3.26562,-1.34375 1.9375,0 3.15625,1.32813 1.23438,1.3125 1.23438,3.70312 0,0.15625 0,0.4375 h -7.21875 q 0.0937,1.59375 0.90625,2.45313 0.8125,0.84375 2.01562,0.84375 0.90625,0 1.54688,-0.46875 0.64062,-0.48438 1.01562,-1.51563 z m -5.39062,-2.65625 h 5.40625 q -0.10938,-1.21875 -0.625,-1.82812 -0.78125,-0.95313 -2.03125,-0.95313 -1.125,0 -1.90625,0.76563 -0.76563,0.75 -0.84375,2.01562 z m 9.09448,5.76563 v -13.35938 h 1.64062 v 13.35938 z m 3.53543,-2.89063 1.625,-0.25 q 0.125,0.96875 0.75,1.5 0.625,0.51563 1.75,0.51563 1.125,0 1.67187,-0.45313 0.54688,-0.46875 0.54688,-1.09375 0,-0.54687 -0.48438,-0.875 -0.32812,-0.21875 -1.67187,-0.54687 -1.8125,-0.46875 -2.51563,-0.79688 -0.6875,-0.32812 -1.04687,-0.90625 -0.35938,-0.59375 -0.35938,-1.3125 0,-0.64062 0.29688,-1.1875 0.29687,-0.5625 0.8125,-0.92187 0.375,-0.28125 1.03125,-0.46875 0.67187,-0.20313 1.42187,-0.20313 1.14063,0 2,0.32813 0.85938,0.32812 1.26563,0.89062 0.42187,0.5625 0.57812,1.5 l -1.60937,0.21875 q -0.10938,-0.75 -0.64063,-1.17187 -0.51562,-0.42188 -1.46875,-0.42188 -1.14062,0 -1.625,0.375 -0.46875,0.375 -0.46875,0.875 0,0.3125 0.1875,0.57813 0.20313,0.26562 0.64063,0.4375 0.23437,0.0937 1.4375,0.42187 1.75,0.45313 2.4375,0.75 0.6875,0.29688 1.07812,0.85938 0.39063,0.5625 0.39063,1.40625 0,0.82812 -0.48438,1.54687 -0.46875,0.71875 -1.375,1.125 -0.90625,0.39063 -2.04687,0.39063 -1.875,0 -2.875,-0.78125 -0.98438,-0.78125 -1.25,-2.32813 z"
       id="path65"
       inkscape:connector-curvature="0"
       style="fill:#000000;fill-rule:nonzero" />
  </g>
</svg>
