<svg version="1.1" viewBox="0.0 0.0 2880.0 1536.0" fill="none" stroke="none" stroke-linecap="square" stroke-miterlimit="10" xmlns:xlink="http://www.w3.org/1999/xlink" xmlns="http://www.w3.org/2000/svg"><clipPath id="g6e326a5eaa_0_0.0"><path d="m0 0l2880.0 0l0 1536.0l-2880.0 0l0 -1536.0z" clip-rule="nonzero"/></clipPath><g clip-path="url(#g6e326a5eaa_0_0.0)"><path fill="#ffffff" d="m0 0l2880.0 0l0 1536.0l-2880.0 0z" fill-rule="evenodd"/><path fill="#e6ae87" d="m952.63525 569.87103l80.44092 0l0 79.24408l-80.44092 0z" fill-rule="evenodd"/><path stroke="#e6ae87" stroke-width="4.0" stroke-linejoin="round" stroke-linecap="butt" d="m952.63525 569.87103l80.44092 0l0 79.24408l-80.44092 0z" fill-rule="evenodd"/><path fill="#ffe3bc" d="m1032.6715 569.87103l80.44092 0l0 79.24408l-80.44092 0z" fill-rule="evenodd"/><path stroke="#e6ae87" stroke-width="4.0" stroke-linejoin="round" stroke-linecap="butt" d="m1032.6715 569.87103l80.44092 0l0 79.24408l-80.44092 0z" fill-rule="evenodd"/><path fill="#ffe3bc" d="m1112.7078 569.87103l80.44092 0l0 79.24408l-80.44092 0z" fill-rule="evenodd"/><path stroke="#e6ae87" stroke-width="4.0" stroke-linejoin="round" stroke-linecap="butt" d="m1112.7078 569.87103l80.44092 0l0 79.24408l-80.44092 0z" fill-rule="evenodd"/><path fill="#000000" fill-opacity="0.0" d="m1537.8163 687.3846c2.8353271 -0.008666992 5.133789 -2.9251099 5.133789 -6.513977l0 -34.153076c0 -3.5889282 2.298584 -6.505371 5.133911 -6.514038l0 0c-2.8353271 0.008666992 -5.133911 -2.8936157 -5.133911 -6.482544l0 -34.153076l0 0c0 -3.5888672 -2.298462 -6.491211 -5.133789 -6.482483z" fill-rule="evenodd"/><path fill="#000000" fill-opacity="0.0" d="m1537.8163 687.3846c2.8353271 -0.008666992 5.133789 -2.9251099 5.133789 -6.513977l0 -34.153076c0 -3.5889282 2.298584 -6.505371 5.133911 -6.514038l0 0c-2.8353271 0.008666992 -5.133911 -2.8936157 -5.133911 -6.482544l0 -34.153076l0 0c0 -3.5888672 -2.298462 -6.491211 -5.133789 -6.482483" fill-rule="evenodd"/><path stroke="#595959" stroke-width="1.0" stroke-linejoin="round" stroke-linecap="butt" d="m1537.8163 687.3846c2.8353271 -0.008666992 5.133789 -2.9251099 5.133789 -6.513977l0 -34.153076c0 -3.5889282 2.298584 -6.505371 5.133911 -6.514038l0 0c-2.8353271 0.008666992 -5.133911 -2.8936157 -5.133911 -6.482544l0 -34.153076l0 0c0 -3.5888672 -2.298462 -6.491211 -5.133789 -6.482483" fill-rule="evenodd"/><path fill="#000000" fill-opacity="0.0" d="m1728.5328 617.0072l-160.63 0l0 46.42517l160.63 0z" fill-rule="evenodd"/><path fill="#666666" d="m1583.0278 631.69727l4.375 12.375l4.359375 -12.375l4.625 0l0 17.0625l-3.53125 0l0 -4.671875l0.34375 -8.046875l-4.59375 12.71875l-2.421875 0l-4.59375 -12.703125l0.359375 8.03125l0 4.671875l-3.515625 0l0 -17.0625l4.59375 0zm23.554688 17.0625q-0.234375 -0.453125 -0.34375 -1.140625q-1.234375 1.375 -3.203125 1.375q-1.859375 0 -3.09375 -1.078125q-1.21875 -1.078125 -1.21875 -2.71875q0 -2.015625 1.484375 -3.09375q1.5 -1.078125 4.328125 -1.09375l1.5625 0l0 -0.71875q0 -0.890625 -0.453125 -1.40625q-0.453125 -0.53125 -1.421875 -0.53125q-0.859375 0 -1.34375 0.40625q-0.484375 0.40625 -0.484375 1.125l-3.390625 0q0 -1.09375 0.671875 -2.03125q0.6875 -0.9375 1.921875 -1.46875q1.25 -0.546875 2.796875 -0.546875q2.34375 0 3.71875 1.1875q1.375 1.171875 1.375 3.3125l0 5.484375q0.015625 1.8125 0.515625 2.734375l0 0.203125l-3.421875 0zm-2.8125 -2.359375q0.75 0 1.375 -0.328125q0.640625 -0.34375 0.953125 -0.90625l0 -2.171875l-1.265625 0q-2.546875 0 -2.703125 1.75l-0.015625 0.203125q0 0.640625 0.4375 1.046875q0.453125 0.40625 1.21875 0.40625zm12.3828125 -13.4375l0 3.109375l2.171875 0l0 2.484375l-2.171875 0l0 6.328125q0 0.703125 0.265625 1.015625q0.265625 0.296875 1.03125 0.296875q0.5625 0 1.0 -0.078125l0 2.5625q-1.0 0.3125 -2.046875 0.3125q-3.5625 0 -3.640625 -3.59375l0 -6.84375l-1.84375 0l0 -2.484375l1.84375 0l0 -3.109375l3.390625 0zm11.640625 14.5q-1.25 1.53125 -3.46875 1.53125q-2.03125 0 -3.109375 -1.171875q-1.0625 -1.171875 -1.09375 -3.4375l0 -8.3125l3.390625 0l0 8.203125q0 1.96875 1.796875 1.96875q1.734375 0 2.375 -1.1875l0 -8.984375l3.390625 0l0 12.6875l-3.1875 0l-0.09375 -1.296875zm12.9609375 -8.203125q-0.6875 -0.09375 -1.21875 -0.09375q-1.921875 0 -2.515625 1.296875l0 8.296875l-3.390625 0l0 -12.6875l3.203125 0l0.09375 1.515625q1.015625 -1.75 2.828125 -1.75q0.5625 0 1.046875 0.15625l-0.046875 3.265625zm7.25 9.734375q-2.796875 0 -4.546875 -1.703125q-1.75 -1.71875 -1.75 -4.5625l0 -0.328125q0 -1.921875 0.734375 -3.421875q0.75 -1.5 2.09375 -2.3125q1.359375 -0.828125 3.09375 -0.828125q2.59375 0 4.09375 1.640625q1.5 1.640625 1.5 4.65625l0 1.390625l-8.078125 0q0.15625 1.234375 0.984375 1.984375q0.828125 0.75 2.09375 0.75q1.953125 0 3.0625 -1.421875l1.65625 1.875q-0.75 1.078125 -2.0625 1.6875q-1.296875 0.59375 -2.875 0.59375zm-0.390625 -10.40625q-1.0 0 -1.640625 0.6875q-0.625 0.671875 -0.796875 1.9375l4.71875 0l0 -0.265625q-0.03125 -1.125 -0.625 -1.734375q-0.578125 -0.625 -1.65625 -0.625z" fill-rule="nonzero"/><path fill="#e6ae87" d="m952.63525 649.13l80.44092 0l0 79.24408l-80.44092 0z" fill-rule="evenodd"/><path stroke="#e6ae87" stroke-width="4.0" stroke-linejoin="round" stroke-linecap="butt" d="m952.63525 649.13l80.44092 0l0 79.24408l-80.44092 0z" fill-rule="evenodd"/><path fill="#e6ae87" d="m1032.6715 649.13l80.44092 0l0 79.24408l-80.44092 0z" fill-rule="evenodd"/><path stroke="#e6ae87" stroke-width="4.0" stroke-linejoin="round" stroke-linecap="butt" d="m1032.6715 649.13l80.44092 0l0 79.24408l-80.44092 0z" fill-rule="evenodd"/><path fill="#ffe3bc" d="m1112.7078 649.13l80.44092 0l0 79.24408l-80.44092 0z" fill-rule="evenodd"/><path stroke="#e6ae87" stroke-width="4.0" stroke-linejoin="round" stroke-linecap="butt" d="m1112.7078 649.13l80.44092 0l0 79.24408l-80.44092 0z" fill-rule="evenodd"/><path fill="#e6ae87" d="m952.63525 728.389l80.44092 0l0 79.24408l-80.44092 0z" fill-rule="evenodd"/><path stroke="#e6ae87" stroke-width="4.0" stroke-linejoin="round" stroke-linecap="butt" d="m952.63525 728.389l80.44092 0l0 79.24408l-80.44092 0z" fill-rule="evenodd"/><path fill="#e6ae87" d="m1032.6715 728.389l80.44092 0l0 79.24408l-80.44092 0z" fill-rule="evenodd"/><path stroke="#e6ae87" stroke-width="4.0" stroke-linejoin="round" stroke-linecap="butt" d="m1032.6715 728.389l80.44092 0l0 79.24408l-80.44092 0z" fill-rule="evenodd"/><path fill="#e6ae87" d="m1112.7078 728.389l80.44092 0l0 79.24408l-80.44092 0z" fill-rule="evenodd"/><path stroke="#e6ae87" stroke-width="4.0" stroke-linejoin="round" stroke-linecap="butt" d="m1112.7078 728.389l80.44092 0l0 79.24408l-80.44092 0z" fill-rule="evenodd"/><path fill="#ffe3bc" d="m1193.1487 649.1313l80.44092 0l0 79.24408l-80.44092 0z" fill-rule="evenodd"/><path stroke="#e6ae87" stroke-width="4.0" stroke-linejoin="round" stroke-linecap="butt" d="m1193.1487 649.1313l80.44092 0l0 79.24408l-80.44092 0z" fill-rule="evenodd"/><path fill="#ffe3bc" d="m1193.1487 728.39026l80.44092 0l0 79.24408l-80.44092 0z" fill-rule="evenodd"/><path stroke="#e6ae87" stroke-width="4.0" stroke-linejoin="round" stroke-linecap="butt" d="m1193.1487 728.39026l80.44092 0l0 79.24408l-80.44092 0z" fill-rule="evenodd"/><path fill="#e6ae87" d="m952.63525 807.63306l80.44092 0l0 79.24408l-80.44092 0z" fill-rule="evenodd"/><path stroke="#e6ae87" stroke-width="4.0" stroke-linejoin="round" stroke-linecap="butt" d="m952.63525 807.63306l80.44092 0l0 79.24408l-80.44092 0z" fill-rule="evenodd"/><path fill="#ffe3bc" d="m1032.6715 807.63306l80.44092 0l0 79.24408l-80.44092 0z" fill-rule="evenodd"/><path stroke="#e6ae87" stroke-width="4.0" stroke-linejoin="round" stroke-linecap="butt" d="m1032.6715 807.63306l80.44092 0l0 79.24408l-80.44092 0z" fill-rule="evenodd"/><path fill="#ffe3bc" d="m1112.7078 807.63306l80.44092 0l0 79.24408l-80.44092 0z" fill-rule="evenodd"/><path stroke="#e6ae87" stroke-width="4.0" stroke-linejoin="round" stroke-linecap="butt" d="m1112.7078 807.63306l80.44092 0l0 79.24408l-80.44092 0z" fill-rule="evenodd"/><path fill="#ffe3bc" d="m1193.1487 807.63434l80.44092 0l0 79.24414l-80.44092 0z" fill-rule="evenodd"/><path stroke="#e6ae87" stroke-width="4.0" stroke-linejoin="round" stroke-linecap="butt" d="m1193.1487 807.63434l80.44092 0l0 79.24414l-80.44092 0z" fill-rule="evenodd"/><path fill="#e6ae87" d="m952.63525 886.8824l80.44092 0l0 79.24408l-80.44092 0z" fill-rule="evenodd"/><path stroke="#e6ae87" stroke-width="4.0" stroke-linejoin="round" stroke-linecap="butt" d="m952.63525 886.8824l80.44092 0l0 79.24408l-80.44092 0z" fill-rule="evenodd"/><path fill="#e6ae87" d="m1032.6715 886.8824l80.44092 0l0 79.24408l-80.44092 0z" fill-rule="evenodd"/><path stroke="#e6ae87" stroke-width="4.0" stroke-linejoin="round" stroke-linecap="butt" d="m1032.6715 886.8824l80.44092 0l0 79.24408l-80.44092 0z" fill-rule="evenodd"/><path fill="#ffe3bc" d="m1112.7078 886.8824l80.44092 0l0 79.24408l-80.44092 0z" fill-rule="evenodd"/><path stroke="#e6ae87" stroke-width="4.0" stroke-linejoin="round" stroke-linecap="butt" d="m1112.7078 886.8824l80.44092 0l0 79.24408l-80.44092 0z" fill-rule="evenodd"/><path fill="#000000" fill-opacity="0.0" d="m1537.8163 815.16534c2.8353271 -0.008666992 5.133789 -2.9251099 5.133789 -6.513977l0 -34.153076c0 -3.5889282 2.298584 -6.505371 5.133911 -6.514038l0 0c-2.8353271 0.008666992 -5.133911 -2.8936157 -5.133911 -6.482544l0 -34.153076l0 0c0 -3.5888672 -2.298462 -6.491211 -5.133789 -6.482483z" fill-rule="evenodd"/><path fill="#000000" fill-opacity="0.0" d="m1537.8163 815.16534c2.8353271 -0.008666992 5.133789 -2.9251099 5.133789 -6.513977l0 -34.153076c0 -3.5889282 2.298584 -6.505371 5.133911 -6.514038l0 0c-2.8353271 0.008666992 -5.133911 -2.8936157 -5.133911 -6.482544l0 -34.153076l0 0c0 -3.5888672 -2.298462 -6.491211 -5.133789 -6.482483" fill-rule="evenodd"/><path stroke="#595959" stroke-width="1.0" stroke-linejoin="round" stroke-linecap="butt" d="m1537.8163 815.16534c2.8353271 -0.008666992 5.133789 -2.9251099 5.133789 -6.513977l0 -34.153076c0 -3.5889282 2.298584 -6.505371 5.133911 -6.514038l0 0c-2.8353271 0.008666992 -5.133911 -2.8936157 -5.133911 -6.482544l0 -34.153076l0 0c0 -3.5888672 -2.298462 -6.491211 -5.133789 -6.482483" fill-rule="evenodd"/><path fill="#000000" fill-opacity="0.0" d="m1728.5328 744.78796l-160.63 0l0 46.42517l160.63 0z" fill-rule="evenodd"/><path fill="#666666" d="m1591.9341 774.3843q-0.953125 1.140625 -2.6875 1.765625q-1.734375 0.625 -3.84375 0.625q-2.21875 0 -3.890625 -0.96875q-1.671875 -0.96875 -2.578125 -2.796875q-0.90625 -1.84375 -0.921875 -4.328125l0 -1.171875q0 -2.546875 0.859375 -4.40625q0.859375 -1.875 2.484375 -2.859375q1.625 -1.0 3.796875 -1.0q3.03125 0 4.734375 1.453125q1.71875 1.4375 2.046875 4.203125l-3.421875 0q-0.234375 -1.46875 -1.046875 -2.140625q-0.796875 -0.6875 -2.203125 -0.6875q-1.796875 0 -2.734375 1.359375q-0.9375 1.34375 -0.953125 4.0l0 1.09375q0 2.6875 1.015625 4.0625q1.03125 1.359375 3.0 1.359375q1.984375 0 2.828125 -0.84375l0 -2.9375l-3.203125 0l0 -2.59375l6.71875 0l0 6.8125zm9.738281 -7.34375q-0.6875 -0.09375 -1.21875 -0.09375q-1.921875 0 -2.515625 1.296875l0 8.296875l-3.390625 0l0 -12.6875l3.203125 0l0.09375 1.515625q1.015625 -1.75 2.828125 -1.75q0.5625 0 1.046875 0.15625l-0.046875 3.265625zm0.69140625 3.046875q0 -1.890625 0.71875 -3.359375q0.734375 -1.484375 2.09375 -2.296875q1.359375 -0.8125 3.171875 -0.8125q2.5625 0 4.1875 1.578125q1.625 1.5625 1.8125 4.265625l0.015625 0.859375q0 2.921875 -1.625 4.6875q-1.625 1.765625 -4.375 1.765625q-2.734375 0 -4.375 -1.75q-1.625 -1.765625 -1.625 -4.796875l0 -0.140625zm3.375 0.234375q0 1.8125 0.671875 2.765625q0.6875 0.953125 1.953125 0.953125q1.234375 0 1.921875 -0.9375q0.703125 -0.953125 0.703125 -3.015625q0 -1.78125 -0.703125 -2.75q-0.6875 -0.96875 -1.9375 -0.96875q-1.25 0 -1.9375 0.96875q-0.671875 0.96875 -0.671875 2.984375zm21.742188 1.609375l1.671875 -8.078125l3.265625 0l-3.234375 12.6875l-2.84375 0l-2.390625 -7.984375l-2.40625 7.984375l-2.828125 0l-3.234375 -12.6875l3.265625 0l1.65625 8.0625l2.328125 -8.0625l2.4375 0l2.3125 8.078125zm10.183594 4.609375l-3.390625 0l0 -12.6875l3.390625 0l0 12.6875zm-3.59375 -15.96875q0 -0.75 0.5 -1.234375q0.515625 -0.5 1.390625 -0.5q0.875 0 1.390625 0.5q0.515625 0.484375 0.515625 1.234375q0 0.78125 -0.53125 1.28125q-0.515625 0.484375 -1.375 0.484375q-0.84375 0 -1.375 -0.484375q-0.515625 -0.5 -0.515625 -1.28125zm9.503906 3.28125l0.109375 1.46875q1.359375 -1.703125 3.640625 -1.703125q2.015625 0 3.0 1.1875q0.984375 1.1875 1.0 3.546875l0 8.1875l-3.375 0l0 -8.109375q0 -1.078125 -0.46875 -1.5625q-0.46875 -0.484375 -1.5625 -0.484375q-1.4375 0 -2.140625 1.21875l0 8.9375l-3.390625 0l0 -12.6875l3.1875 0zm9.832031 6.25q0 -2.921875 1.390625 -4.703125q1.390625 -1.78125 3.734375 -1.78125q2.09375 0 3.25 1.4375l0.140625 -1.203125l3.078125 0l0 12.265625q0 1.671875 -0.765625 2.890625q-0.75 1.234375 -2.125 1.875q-1.375 0.65625 -3.203125 0.65625q-1.40625 0 -2.734375 -0.5625q-1.3125 -0.5625 -2.0 -1.4375l1.5 -2.0625q1.265625 1.421875 3.078125 1.421875q1.34375 0 2.09375 -0.71875q0.75 -0.71875 0.75 -2.046875l0 -0.6875q-1.171875 1.328125 -3.078125 1.328125q-2.28125 0 -3.703125 -1.78125q-1.40625 -1.796875 -1.40625 -4.75l0 -0.140625zm3.390625 0.25q0 1.71875 0.6875 2.703125q0.6875 0.96875 1.890625 0.96875q1.546875 0 2.21875 -1.15625l0 -5.328125q-0.671875 -1.15625 -2.1875 -1.15625q-1.21875 0 -1.921875 1.0q-0.6875 0.984375 -0.6875 2.96875z" fill-rule="nonzero"/><path fill="#000000" fill-opacity="0.0" d="m1537.8163 942.9449c2.8353271 -0.008728027 5.133789 -2.9251099 5.133789 -6.514038l0 -34.153076c0 -3.5888672 2.298584 -6.50531 5.133911 -6.513977l0 0c-2.8353271 0.008666992 -5.133911 -2.8936157 -5.133911 -6.482544l0 -34.153076l0 0c0 -3.5888672 -2.298462 -6.491211 -5.133789 -6.482483z" fill-rule="evenodd"/><path fill="#000000" fill-opacity="0.0" d="m1537.8163 942.9449c2.8353271 -0.008728027 5.133789 -2.9251099 5.133789 -6.514038l0 -34.153076c0 -3.5888672 2.298584 -6.50531 5.133911 -6.513977l0 0c-2.8353271 0.008666992 -5.133911 -2.8936157 -5.133911 -6.482544l0 -34.153076l0 0c0 -3.5888672 -2.298462 -6.491211 -5.133789 -6.482483" fill-rule="evenodd"/><path stroke="#595959" stroke-width="1.0" stroke-linejoin="round" stroke-linecap="butt" d="m1537.8163 942.9449c2.8353271 -0.008728027 5.133789 -2.9251099 5.133789 -6.514038l0 -34.153076c0 -3.5888672 2.298584 -6.50531 5.133911 -6.513977l0 0c-2.8353271 0.008666992 -5.133911 -2.8936157 -5.133911 -6.482544l0 -34.153076l0 0c0 -3.5888672 -2.298462 -6.491211 -5.133789 -6.482483" fill-rule="evenodd"/><path fill="#000000" fill-opacity="0.0" d="m1728.5328 872.5675l-160.63 0l0 46.42517l160.63 0z" fill-rule="evenodd"/><path fill="#666666" d="m1578.4341 904.32007l0 -17.0625l5.25 0q2.25 0 4.015625 1.015625q1.78125 1.015625 2.765625 2.890625q1.0 1.859375 1.0 4.234375l0 0.78125q0 2.390625 -0.984375 4.25q-0.96875 1.84375 -2.75 2.859375q-1.78125 1.015625 -4.015625 1.03125l-5.28125 0zm3.515625 -14.21875l0 11.390625l1.6875 0q2.0625 0 3.15625 -1.34375q1.09375 -1.34375 1.109375 -3.859375l0 -0.90625q0 -2.59375 -1.078125 -3.9375q-1.078125 -1.34375 -3.140625 -1.34375l-1.734375 0zm17.691406 14.453125q-2.796875 0 -4.546875 -1.703125q-1.75 -1.71875 -1.75 -4.5625l0 -0.328125q0 -1.921875 0.734375 -3.421875q0.75 -1.5 2.09375 -2.3125q1.359375 -0.828125 3.09375 -0.828125q2.59375 0 4.09375 1.640625q1.5 1.640625 1.5 4.65625l0 1.390625l-8.078125 0q0.15625 1.234375 0.984375 1.984375q0.828125 0.75 2.09375 0.75q1.953125 0 3.0625 -1.421875l1.65625 1.875q-0.75 1.078125 -2.0625 1.6875q-1.296875 0.59375 -2.875 0.59375zm-0.390625 -10.40625q-1.0 0 -1.640625 0.6875q-0.625 0.671875 -0.796875 1.9375l4.71875 0l0 -0.265625q-0.03125 -1.125 -0.625 -1.734375q-0.578125 -0.625 -1.65625 -0.625zm14.878906 10.171875q-0.234375 -0.453125 -0.34375 -1.140625q-1.234375 1.375 -3.203125 1.375q-1.859375 0 -3.09375 -1.078125q-1.21875 -1.078125 -1.21875 -2.71875q0 -2.015625 1.484375 -3.09375q1.5 -1.078125 4.328125 -1.09375l1.5625 0l0 -0.71875q0 -0.890625 -0.453125 -1.40625q-0.453125 -0.53125 -1.421875 -0.53125q-0.859375 0 -1.34375 0.40625q-0.484375 0.40625 -0.484375 1.125l-3.390625 0q0 -1.09375 0.671875 -2.03125q0.6875 -0.9375 1.921875 -1.46875q1.25 -0.546875 2.796875 -0.546875q2.34375 0 3.71875 1.1875q1.375 1.171875 1.375 3.3125l0 5.484375q0.015625 1.8125 0.515625 2.734375l0 0.203125l-3.421875 0zm-2.8125 -2.359375q0.75 0 1.375 -0.328125q0.640625 -0.34375 0.953125 -0.90625l0 -2.171875l-1.265625 0q-2.546875 0 -2.703125 1.75l-0.015625 0.203125q0 0.640625 0.4375 1.046875q0.453125 0.40625 1.21875 0.40625zm7.8046875 -4.078125q0 -2.96875 1.328125 -4.71875q1.328125 -1.765625 3.640625 -1.765625q1.84375 0 3.046875 1.390625l0 -6.46875l3.40625 0l0 18.0l-3.0625 0l-0.15625 -1.34375q-1.265625 1.578125 -3.265625 1.578125q-2.234375 0 -3.59375 -1.765625q-1.34375 -1.765625 -1.34375 -4.90625zm3.375 0.25q0 1.78125 0.625 2.734375q0.625 0.9375 1.8125 0.9375q1.5625 0 2.203125 -1.3125l0 -5.015625q-0.625 -1.3125 -2.1875 -1.3125q-2.453125 0 -2.453125 3.96875z" fill-rule="nonzero"/><path fill="#d9d9d9" d="m1424.4558 856.15576l80.44092 0l0 79.24414l-80.44092 0z" fill-rule="evenodd"/><path stroke="#b7b7b7" stroke-width="4.0" stroke-linejoin="round" stroke-linecap="butt" d="m1424.4558 856.15576l80.44092 0l0 79.24414l-80.44092 0z" fill-rule="evenodd"/><path fill="#ffe3bc" d="m1424.4558 728.37537l80.44092 0l0 79.24414l-80.44092 0z" fill-rule="evenodd"/><path stroke="#e6ae87" stroke-width="4.0" stroke-linejoin="round" stroke-linecap="butt" d="m1424.4558 728.37537l80.44092 0l0 79.24414l-80.44092 0z" fill-rule="evenodd"/><path fill="#e6ae87" d="m1424.4558 600.59503l80.44092 0l0 79.24414l-80.44092 0z" fill-rule="evenodd"/><path stroke="#e6ae87" stroke-width="4.0" stroke-linejoin="round" stroke-linecap="butt" d="m1424.4558 600.59503l80.44092 0l0 79.24414l-80.44092 0z" fill-rule="evenodd"/><path fill="#d9d9d9" d="m1193.1487 569.8723l80.44092 0l0 79.24408l-80.44092 0z" fill-rule="evenodd"/><path stroke="#b7b7b7" stroke-width="4.0" stroke-linejoin="round" stroke-linecap="butt" d="m1193.1487 569.8723l80.44092 0l0 79.24408l-80.44092 0z" fill-rule="evenodd"/><path fill="#d9d9d9" d="m1272.7812 569.8723l80.44092 0l0 79.24408l-80.44092 0z" fill-rule="evenodd"/><path stroke="#b7b7b7" stroke-width="4.0" stroke-linejoin="round" stroke-linecap="butt" d="m1272.7812 569.8723l80.44092 0l0 79.24408l-80.44092 0z" fill-rule="evenodd"/><path fill="#d9d9d9" d="m1272.7812 649.1313l80.44092 0l0 79.24408l-80.44092 0z" fill-rule="evenodd"/><path stroke="#b7b7b7" stroke-width="4.0" stroke-linejoin="round" stroke-linecap="butt" d="m1272.7812 649.1313l80.44092 0l0 79.24408l-80.44092 0z" fill-rule="evenodd"/><path fill="#d9d9d9" d="m1272.7812 728.39026l80.44092 0l0 79.24408l-80.44092 0z" fill-rule="evenodd"/><path stroke="#b7b7b7" stroke-width="4.0" stroke-linejoin="round" stroke-linecap="butt" d="m1272.7812 728.39026l80.44092 0l0 79.24408l-80.44092 0z" fill-rule="evenodd"/><path fill="#d9d9d9" d="m1272.7812 807.63434l80.44092 0l0 79.24414l-80.44092 0z" fill-rule="evenodd"/><path stroke="#b7b7b7" stroke-width="4.0" stroke-linejoin="round" stroke-linecap="butt" d="m1272.7812 807.63434l80.44092 0l0 79.24414l-80.44092 0z" fill-rule="evenodd"/><path fill="#d9d9d9" d="m1193.1487 886.8837l80.44092 0l0 79.24408l-80.44092 0z" fill-rule="evenodd"/><path stroke="#b7b7b7" stroke-width="4.0" stroke-linejoin="round" stroke-linecap="butt" d="m1193.1487 886.8837l80.44092 0l0 79.24408l-80.44092 0z" fill-rule="evenodd"/><path fill="#d9d9d9" d="m1272.7812 886.8837l80.44092 0l0 79.24408l-80.44092 0z" fill-rule="evenodd"/><path stroke="#b7b7b7" stroke-width="4.0" stroke-linejoin="round" stroke-linecap="butt" d="m1272.7812 886.8837l80.44092 0l0 79.24408l-80.44092 0z" fill-rule="evenodd"/></g></svg>