<?xml version="1.0" encoding="UTF-8" standalone="no"?>
<svg
   xmlns:dc="http://purl.org/dc/elements/1.1/"
   xmlns:cc="http://creativecommons.org/ns#"
   xmlns:rdf="http://www.w3.org/1999/02/22-rdf-syntax-ns#"
   xmlns:svg="http://www.w3.org/2000/svg"
   xmlns="http://www.w3.org/2000/svg"
   xmlns:sodipodi="http://sodipodi.sourceforge.net/DTD/sodipodi-0.dtd"
   xmlns:inkscape="http://www.inkscape.org/namespaces/inkscape"
   version="1.1"
   viewBox="0 0 780.63934 400.25674"
   stroke-miterlimit="10"
   id="svg151"
   sodipodi:docname="alive2.svg"
   width="780.63934"
   height="400.25674"
   style="fill:none;stroke:none;stroke-linecap:square;stroke-miterlimit:10"
   inkscape:export-filename="/Users/eyvind/Downloads/alive2.png"
   inkscape:export-xdpi="96"
   inkscape:export-ydpi="96"
   inkscape:version="0.92.2 5c3e80d, 2017-08-06">
  <metadata
     id="metadata157">
    <rdf:RDF>
      <cc:Work
         rdf:about="">
        <dc:format>image/svg+xml</dc:format>
        <dc:type
           rdf:resource="http://purl.org/dc/dcmitype/StillImage" />
        <dc:title></dc:title>
      </cc:Work>
    </rdf:RDF>
  </metadata>
  <defs
     id="defs155" />
  <sodipodi:namedview
     pagecolor="#ffffff"
     bordercolor="#666666"
     borderopacity="1"
     objecttolerance="10"
     gridtolerance="10"
     guidetolerance="10"
     inkscape:pageopacity="0"
     inkscape:pageshadow="2"
     inkscape:window-width="1918"
     inkscape:window-height="1190"
     id="namedview153"
     showgrid="false"
     fit-margin-top="0"
     fit-margin-left="0"
     fit-margin-right="0"
     fit-margin-bottom="0"
     inkscape:zoom="0.1125"
     inkscape:cx="489.36475"
     inkscape:cy="200.12778"
     inkscape:window-x="0"
     inkscape:window-y="393"
     inkscape:window-maximized="0"
     inkscape:current-layer="g149" />
  <clipPath
     id="g6e326a5eaa_0_0.0">
    <path
       d="M 0,0 H 2880 V 1536 H 0 Z"
       id="path2"
       inkscape:connector-curvature="0"
       style="clip-rule:nonzero" />
  </clipPath>
  <g
     clip-path="url(#g6e326a5eaa_0_0.0)"
     id="g149"
     transform="translate(-950.63525,-567.87103)">
    <path
       d="m 952.63525,569.87103 h 80.44095 v 79.24408 h -80.44095 z"
       id="path7"
       inkscape:connector-curvature="0"
       style="fill:#e6ae87;fill-rule:evenodd" />
    <path
       d="m 952.63525,569.87103 h 80.44095 v 79.24408 h -80.44095 z"
       id="path9"
       inkscape:connector-curvature="0"
       style="fill-rule:evenodd;stroke:#e6ae87;stroke-width:4;stroke-linecap:butt;stroke-linejoin:round" />
    <path
       d="m 1032.6715,569.87103 h 80.4409 v 79.24408 h -80.4409 z"
       id="path11"
       inkscape:connector-curvature="0"
       style="fill:#ffe3bc;fill-rule:evenodd" />
    <path
       d="m 1032.6715,569.87103 h 80.4409 v 79.24408 h -80.4409 z"
       id="path13"
       inkscape:connector-curvature="0"
       style="fill-rule:evenodd;stroke:#e6ae87;stroke-width:4;stroke-linecap:butt;stroke-linejoin:round" />
    <path
       d="m 1112.7078,569.87103 h 80.4409 v 79.24408 h -80.4409 z"
       id="path15"
       inkscape:connector-curvature="0"
       style="fill:#ffe3bc;fill-rule:evenodd" />
    <path
       d="m 1112.7078,569.87103 h 80.4409 v 79.24408 h -80.4409 z"
       id="path17"
       inkscape:connector-curvature="0"
       style="fill-rule:evenodd;stroke:#e6ae87;stroke-width:4;stroke-linecap:butt;stroke-linejoin:round" />
    <path
       d="m 1611.3754,687.3951 c -2.8354,-0.009 -5.1339,-2.92511 -5.1339,-6.51398 v -34.15307 c 0,-3.58893 -2.2985,-6.50537 -5.1338,-6.51404 v 0 c 2.8353,0.009 5.1338,-2.89362 5.1338,-6.48254 v -34.15308 0 c 0,-3.58887 2.2985,-6.49121 5.1339,-6.48248 z"
       id="path19"
       inkscape:connector-curvature="0"
       style="fill:#000000;fill-opacity:0;fill-rule:evenodd" />
    <path
       d="m 1611.3754,687.3951 c -2.8354,-0.009 -5.1339,-2.92511 -5.1339,-6.51398 v -34.15307 c 0,-3.58893 -2.2985,-6.50537 -5.1338,-6.51404 v 0 c 2.8353,0.009 5.1338,-2.89362 5.1338,-6.48254 v -34.15308 0 c 0,-3.58887 2.2985,-6.49121 5.1339,-6.48248"
       id="path21"
       inkscape:connector-curvature="0"
       style="fill:#000000;fill-opacity:0;fill-rule:evenodd" />
    <path
       d="m 1611.3754,687.3951 c -2.8354,-0.009 -5.1339,-2.92511 -5.1339,-6.51398 v -34.15307 c 0,-3.58893 -2.2985,-6.50537 -5.1338,-6.51404 v 0 c 2.8353,0.009 5.1338,-2.89362 5.1338,-6.48254 v -34.15308 0 c 0,-3.58887 2.2985,-6.49121 5.1339,-6.48248"
       id="path23"
       inkscape:connector-curvature="0"
       style="fill-rule:evenodd;stroke:#595959;stroke-width:1;stroke-linecap:butt;stroke-linejoin:round" />
    <path
       d="m 1440.4777,617.0177 h 160.63 v 46.42517 h -160.63 z"
       id="path25"
       inkscape:connector-curvature="0"
       style="fill:#000000;fill-opacity:0;fill-rule:evenodd" />
    <path
       d="m 1488.4508,631.70776 4.375,12.375 4.3594,-12.375 h 4.625 v 17.0625 h -3.5313 v -4.67188 l 0.3438,-8.04687 -4.5938,12.71875 h -2.4218 l -4.5938,-12.70313 0.3594,8.03125 v 4.67188 h -3.5156 v -17.0625 z m 23.5547,17.0625 q -0.2344,-0.45313 -0.3438,-1.14063 -1.2343,1.375 -3.2031,1.375 -1.8594,0 -3.0937,-1.07812 -1.2188,-1.07813 -1.2188,-2.71875 0,-2.01563 1.4844,-3.09375 1.5,-1.07813 4.3281,-1.09375 h 1.5625 v -0.71875 q 0,-0.89063 -0.4531,-1.40625 -0.4531,-0.53125 -1.4219,-0.53125 -0.8594,0 -1.3437,0.40625 -0.4844,0.40625 -0.4844,1.125 h -3.3906 q 0,-1.09375 0.6718,-2.03125 0.6875,-0.9375 1.9219,-1.46875 1.25,-0.54688 2.7969,-0.54688 2.3437,0 3.7187,1.1875 1.375,1.17188 1.375,3.3125 v 5.48438 q 0.016,1.8125 0.5157,2.73437 v 0.20313 z m -2.8125,-2.35938 q 0.75,0 1.375,-0.32812 0.6406,-0.34375 0.9531,-0.90625 v -2.17188 h -1.2656 q -2.5469,0 -2.7031,1.75 l -0.016,0.20313 q 0,0.64062 0.4375,1.04687 0.4532,0.40625 1.2188,0.40625 z m 12.3828,-13.4375 v 3.10938 h 2.1719 v 2.48437 h -2.1719 v 6.32813 q 0,0.70312 0.2656,1.01562 0.2657,0.29688 1.0313,0.29688 0.5625,0 1,-0.0781 v 2.5625 q -1,0.3125 -2.0469,0.3125 -3.5625,0 -3.6406,-3.59375 v -6.84375 h -1.8438 v -2.48437 h 1.8438 v -3.10938 z m 11.6406,14.5 q -1.25,1.53125 -3.4687,1.53125 -2.0313,0 -3.1094,-1.17187 -1.0625,-1.17188 -1.0937,-3.4375 v -8.3125 h 3.3906 v 8.20312 q 0,1.96875 1.7969,1.96875 1.7343,0 2.375,-1.1875 v -8.98437 h 3.3906 v 12.6875 h -3.1875 z m 12.961,-8.20312 q -0.6875,-0.0937 -1.2188,-0.0937 -1.9219,0 -2.5156,1.29687 v 8.29688 h -3.3906 v -12.6875 h 3.2031 l 0.094,1.51562 q 1.0157,-1.75 2.8282,-1.75 0.5625,0 1.0468,0.15625 z m 7.25,9.73437 q -2.7969,0 -4.5469,-1.70312 -1.75,-1.71875 -1.75,-4.5625 v -0.32813 q 0,-1.92187 0.7344,-3.42187 0.75,-1.5 2.0937,-2.3125 1.3594,-0.82813 3.0938,-0.82813 2.5937,0 4.0937,1.64063 1.5,1.64062 1.5,4.65625 v 1.39062 h -8.0781 q 0.1562,1.23438 0.9844,1.98438 0.8281,0.75 2.0937,0.75 1.9531,0 3.0625,-1.42188 l 1.6563,1.875 q -0.75,1.07813 -2.0625,1.6875 -1.2969,0.59375 -2.875,0.59375 z m -0.3907,-10.40625 q -1,0 -1.6406,0.6875 -0.625,0.67188 -0.7969,1.9375 h 4.7188 v -0.26562 q -0.031,-1.125 -0.625,-1.73438 -0.5781,-0.625 -1.6563,-0.625 z"
       id="path27"
       inkscape:connector-curvature="0"
       style="fill:#666666;fill-rule:nonzero" />
    <path
       d="m 952.63525,649.13 h 80.44095 v 79.24408 h -80.44095 z"
       id="path29"
       inkscape:connector-curvature="0"
       style="fill:#e6ae87;fill-rule:evenodd" />
    <path
       d="m 952.63525,649.13 h 80.44095 v 79.24408 h -80.44095 z"
       id="path31"
       inkscape:connector-curvature="0"
       style="fill-rule:evenodd;stroke:#e6ae87;stroke-width:4;stroke-linecap:butt;stroke-linejoin:round" />
    <path
       d="m 1032.6715,649.13 h 80.4409 v 79.24408 h -80.4409 z"
       id="path33"
       inkscape:connector-curvature="0"
       style="fill:#e6ae87;fill-rule:evenodd" />
    <path
       d="m 1032.6715,649.13 h 80.4409 v 79.24408 h -80.4409 z"
       id="path35"
       inkscape:connector-curvature="0"
       style="fill-rule:evenodd;stroke:#e6ae87;stroke-width:4;stroke-linecap:butt;stroke-linejoin:round" />
    <path
       d="m 1112.7078,649.13 h 80.4409 v 79.24408 h -80.4409 z"
       id="path37"
       inkscape:connector-curvature="0"
       style="fill:#ffe3bc;fill-rule:evenodd" />
    <path
       d="m 1112.7078,649.13 h 80.4409 v 79.24408 h -80.4409 z"
       id="path39"
       inkscape:connector-curvature="0"
       style="fill-rule:evenodd;stroke:#e6ae87;stroke-width:4;stroke-linecap:butt;stroke-linejoin:round" />
    <path
       d="m 952.63525,728.389 h 80.44095 v 79.24408 h -80.44095 z"
       id="path41"
       inkscape:connector-curvature="0"
       style="fill:#e6ae87;fill-rule:evenodd" />
    <path
       d="m 952.63525,728.389 h 80.44095 v 79.24408 h -80.44095 z"
       id="path43"
       inkscape:connector-curvature="0"
       style="fill-rule:evenodd;stroke:#e6ae87;stroke-width:4;stroke-linecap:butt;stroke-linejoin:round" />
    <path
       d="m 1032.6715,728.389 h 80.4409 v 79.24408 h -80.4409 z"
       id="path45"
       inkscape:connector-curvature="0"
       style="fill:#e6ae87;fill-rule:evenodd" />
    <path
       d="m 1032.6715,728.389 h 80.4409 v 79.24408 h -80.4409 z"
       id="path47"
       inkscape:connector-curvature="0"
       style="fill-rule:evenodd;stroke:#e6ae87;stroke-width:4;stroke-linecap:butt;stroke-linejoin:round" />
    <path
       d="m 1112.7078,728.389 h 80.4409 v 79.24408 h -80.4409 z"
       id="path49"
       inkscape:connector-curvature="0"
       style="fill:#e6ae87;fill-rule:evenodd" />
    <path
       d="m 1112.7078,728.389 h 80.4409 v 79.24408 h -80.4409 z"
       id="path51"
       inkscape:connector-curvature="0"
       style="fill-rule:evenodd;stroke:#e6ae87;stroke-width:4;stroke-linecap:butt;stroke-linejoin:round" />
    <path
       d="m 1193.1487,649.1313 h 80.4409 v 79.24408 h -80.4409 z"
       id="path53"
       inkscape:connector-curvature="0"
       style="fill:#ffe3bc;fill-rule:evenodd" />
    <path
       d="m 1193.1487,649.1313 h 80.4409 v 79.24408 h -80.4409 z"
       id="path55"
       inkscape:connector-curvature="0"
       style="fill-rule:evenodd;stroke:#e6ae87;stroke-width:4;stroke-linecap:butt;stroke-linejoin:round" />
    <path
       d="m 1193.1487,728.39026 h 80.4409 v 79.24408 h -80.4409 z"
       id="path57"
       inkscape:connector-curvature="0"
       style="fill:#ffe3bc;fill-rule:evenodd" />
    <path
       d="m 1193.1487,728.39026 h 80.4409 v 79.24408 h -80.4409 z"
       id="path59"
       inkscape:connector-curvature="0"
       style="fill-rule:evenodd;stroke:#e6ae87;stroke-width:4;stroke-linecap:butt;stroke-linejoin:round" />
    <path
       d="m 952.63525,807.63306 h 80.44095 v 79.24408 h -80.44095 z"
       id="path61"
       inkscape:connector-curvature="0"
       style="fill:#e6ae87;fill-rule:evenodd" />
    <path
       d="m 952.63525,807.63306 h 80.44095 v 79.24408 h -80.44095 z"
       id="path63"
       inkscape:connector-curvature="0"
       style="fill-rule:evenodd;stroke:#e6ae87;stroke-width:4;stroke-linecap:butt;stroke-linejoin:round" />
    <path
       d="m 1032.6715,807.63306 h 80.4409 v 79.24408 h -80.4409 z"
       id="path65"
       inkscape:connector-curvature="0"
       style="fill:#ffe3bc;fill-rule:evenodd" />
    <path
       d="m 1032.6715,807.63306 h 80.4409 v 79.24408 h -80.4409 z"
       id="path67"
       inkscape:connector-curvature="0"
       style="fill-rule:evenodd;stroke:#e6ae87;stroke-width:4;stroke-linecap:butt;stroke-linejoin:round" />
    <path
       d="m 1112.7078,807.63306 h 80.4409 v 79.24408 h -80.4409 z"
       id="path69"
       inkscape:connector-curvature="0"
       style="fill:#ffe3bc;fill-rule:evenodd" />
    <path
       d="m 1112.7078,807.63306 h 80.4409 v 79.24408 h -80.4409 z"
       id="path71"
       inkscape:connector-curvature="0"
       style="fill-rule:evenodd;stroke:#e6ae87;stroke-width:4;stroke-linecap:butt;stroke-linejoin:round" />
    <path
       d="m 1193.1487,807.63434 h 80.4409 v 79.24414 h -80.4409 z"
       id="path73"
       inkscape:connector-curvature="0"
       style="fill:#ffe3bc;fill-rule:evenodd" />
    <path
       d="m 1193.1487,807.63434 h 80.4409 v 79.24414 h -80.4409 z"
       id="path75"
       inkscape:connector-curvature="0"
       style="fill-rule:evenodd;stroke:#e6ae87;stroke-width:4;stroke-linecap:butt;stroke-linejoin:round" />
    <path
       d="m 952.63525,886.8824 h 80.44095 v 79.24408 h -80.44095 z"
       id="path77"
       inkscape:connector-curvature="0"
       style="fill:#e6ae87;fill-rule:evenodd" />
    <path
       d="m 952.63525,886.8824 h 80.44095 v 79.24408 h -80.44095 z"
       id="path79"
       inkscape:connector-curvature="0"
       style="fill-rule:evenodd;stroke:#e6ae87;stroke-width:4;stroke-linecap:butt;stroke-linejoin:round" />
    <path
       d="m 1032.6715,886.8824 h 80.4409 v 79.24408 h -80.4409 z"
       id="path81"
       inkscape:connector-curvature="0"
       style="fill:#e6ae87;fill-rule:evenodd" />
    <path
       d="m 1032.6715,886.8824 h 80.4409 v 79.24408 h -80.4409 z"
       id="path83"
       inkscape:connector-curvature="0"
       style="fill-rule:evenodd;stroke:#e6ae87;stroke-width:4;stroke-linecap:butt;stroke-linejoin:round" />
    <path
       d="m 1112.7078,886.8824 h 80.4409 v 79.24408 h -80.4409 z"
       id="path85"
       inkscape:connector-curvature="0"
       style="fill:#ffe3bc;fill-rule:evenodd" />
    <path
       d="m 1112.7078,886.8824 h 80.4409 v 79.24408 h -80.4409 z"
       id="path87"
       inkscape:connector-curvature="0"
       style="fill-rule:evenodd;stroke:#e6ae87;stroke-width:4;stroke-linecap:butt;stroke-linejoin:round" />
    <path
       d="m 1611.3754,815.17584 c -2.8354,-0.009 -5.1339,-2.92511 -5.1339,-6.51398 v -34.15307 c 0,-3.58893 -2.2985,-6.50537 -5.1338,-6.51404 v 0 c 2.8353,0.009 5.1338,-2.89362 5.1338,-6.48255 v -34.15307 0 c 0,-3.58887 2.2985,-6.49121 5.1339,-6.48248 z"
       id="path89"
       inkscape:connector-curvature="0"
       style="fill:#000000;fill-opacity:0;fill-rule:evenodd" />
    <path
       d="m 1611.3754,815.17584 c -2.8354,-0.009 -5.1339,-2.92511 -5.1339,-6.51398 v -34.15307 c 0,-3.58893 -2.2985,-6.50537 -5.1338,-6.51404 v 0 c 2.8353,0.009 5.1338,-2.89362 5.1338,-6.48255 v -34.15307 0 c 0,-3.58887 2.2985,-6.49121 5.1339,-6.48248"
       id="path91"
       inkscape:connector-curvature="0"
       style="fill:#000000;fill-opacity:0;fill-rule:evenodd" />
    <path
       d="m 1611.3754,815.17584 c -2.8354,-0.009 -5.1339,-2.92511 -5.1339,-6.51398 v -34.15307 c 0,-3.58893 -2.2985,-6.50537 -5.1338,-6.51404 v 0 c 2.8353,0.009 5.1338,-2.89362 5.1338,-6.48255 v -34.15307 0 c 0,-3.58887 2.2985,-6.49121 5.1339,-6.48248"
       id="path93"
       inkscape:connector-curvature="0"
       style="fill-rule:evenodd;stroke:#595959;stroke-width:1;stroke-linecap:butt;stroke-linejoin:round" />
    <path
       d="m 1440.4777,744.79846 h 160.63 v 46.42517 h -160.63 z"
       id="path95"
       inkscape:connector-curvature="0"
       style="fill:#000000;fill-opacity:0;fill-rule:evenodd" />
    <path
       d="m 1491.1285,774.3948 q -0.9531,1.14063 -2.6875,1.76563 -1.7344,0.625 -3.8437,0.625 -2.2188,0 -3.8907,-0.96875 -1.6718,-0.96875 -2.5781,-2.79688 -0.9062,-1.84375 -0.9219,-4.32812 v -1.17188 q 0,-2.54687 0.8594,-4.40625 0.8594,-1.875 2.4844,-2.85937 1.625,-1 3.7969,-1 3.0312,0 4.7343,1.45312 1.7188,1.4375 2.0469,4.20313 h -3.4219 q -0.2343,-1.46875 -1.0468,-2.14063 -0.7969,-0.6875 -2.2032,-0.6875 -1.7968,0 -2.7343,1.35938 -0.9375,1.34375 -0.9532,4 v 1.09375 q 0,2.6875 1.0157,4.0625 1.0312,1.35937 3,1.35937 1.9843,0 2.8281,-0.84375 v -2.9375 h -3.2031 v -2.59375 h 6.7187 z m 9.7383,-7.34375 q -0.6875,-0.0937 -1.2188,-0.0937 -1.9218,0 -2.5156,1.29688 v 8.29687 h -3.3906 v -12.6875 h 3.2031 l 0.094,1.51563 q 1.0156,-1.75 2.8281,-1.75 0.5625,0 1.0469,0.15625 z m 0.6914,3.04688 q 0,-1.89063 0.7187,-3.35938 0.7344,-1.48437 2.0938,-2.29687 1.3594,-0.8125 3.1719,-0.8125 2.5625,0 4.1875,1.57812 1.625,1.5625 1.8125,4.26563 l 0.016,0.85937 q 0,2.92188 -1.625,4.6875 -1.625,1.76563 -4.375,1.76563 -2.7344,0 -4.375,-1.75 -1.625,-1.76563 -1.625,-4.79688 z m 3.375,0.23437 q 0,1.8125 0.6719,2.76563 0.6875,0.95312 1.9531,0.95312 1.2344,0 1.9219,-0.9375 0.7031,-0.95312 0.7031,-3.01562 0,-1.78125 -0.7031,-2.75 -0.6875,-0.96875 -1.9375,-0.96875 -1.25,0 -1.9375,0.96875 -0.6719,0.96875 -0.6719,2.98437 z m 21.7422,1.60938 1.6719,-8.07813 h 3.2656 l -3.2344,12.6875 h -2.8437 l -2.3907,-7.98437 -2.4062,7.98437 h -2.8281 l -3.2344,-12.6875 h 3.2656 l 1.6563,8.0625 2.3281,-8.0625 h 2.4375 z m 10.1836,4.60937 h -3.3907 v -12.6875 h 3.3907 z m -3.5938,-15.96875 q 0,-0.75 0.5,-1.23437 0.5156,-0.5 1.3906,-0.5 0.875,0 1.3907,0.5 0.5156,0.48437 0.5156,1.23437 0,0.78125 -0.5313,1.28125 -0.5156,0.48438 -1.375,0.48438 -0.8437,0 -1.375,-0.48438 -0.5156,-0.5 -0.5156,-1.28125 z m 9.5039,3.28125 0.1094,1.46875 q 1.3594,-1.70312 3.6406,-1.70312 2.0157,0 3,1.1875 0.9844,1.1875 1,3.54687 v 8.1875 h -3.375 v -8.10937 q 0,-1.07813 -0.4687,-1.5625 -0.4688,-0.48438 -1.5625,-0.48438 -1.4375,0 -2.1406,1.21875 v 8.9375 h -3.3907 v -12.6875 z m 9.8321,6.25 q 0,-2.92187 1.3906,-4.70312 1.3906,-1.78125 3.7344,-1.78125 2.0937,0 3.25,1.4375 l 0.1406,-1.20313 h 3.0781 v 12.26563 q 0,1.67187 -0.7656,2.89062 -0.75,1.23438 -2.125,1.875 -1.375,0.65625 -3.2031,0.65625 -1.4063,0 -2.7344,-0.5625 -1.3125,-0.5625 -2,-1.4375 l 1.5,-2.0625 q 1.2656,1.42188 3.0781,1.42188 1.3438,0 2.0938,-0.71875 0.75,-0.71875 0.75,-2.04688 v -0.6875 q -1.1719,1.32813 -3.0782,1.32813 -2.2812,0 -3.7031,-1.78125 -1.4062,-1.79688 -1.4062,-4.75 z m 3.3906,0.25 q 0,1.71875 0.6875,2.70313 0.6875,0.96875 1.8906,0.96875 1.5469,0 2.2188,-1.15625 v -5.32813 q -0.6719,-1.15625 -2.1875,-1.15625 -1.2188,0 -1.9219,1 -0.6875,0.98438 -0.6875,2.96875 z"
       id="path97"
       inkscape:connector-curvature="0"
       style="fill:#666666;fill-rule:nonzero" />
    <path
       d="m 1611.3754,942.9554 c -2.8354,-0.009 -5.1339,-2.92511 -5.1339,-6.51404 v -34.15307 c 0,-3.58887 -2.2985,-6.50531 -5.1338,-6.51398 v 0 c 2.8353,0.009 5.1338,-2.89362 5.1338,-6.48254 v -34.15308 0 c 0,-3.58887 2.2985,-6.49121 5.1339,-6.48248 z"
       id="path99"
       inkscape:connector-curvature="0"
       style="fill:#000000;fill-opacity:0;fill-rule:evenodd" />
    <path
       d="m 1611.3754,942.9554 c -2.8354,-0.009 -5.1339,-2.92511 -5.1339,-6.51404 v -34.15307 c 0,-3.58887 -2.2985,-6.50531 -5.1338,-6.51398 v 0 c 2.8353,0.009 5.1338,-2.89362 5.1338,-6.48254 v -34.15308 0 c 0,-3.58887 2.2985,-6.49121 5.1339,-6.48248"
       id="path101"
       inkscape:connector-curvature="0"
       style="fill:#000000;fill-opacity:0;fill-rule:evenodd" />
    <path
       d="m 1611.3754,942.9554 c -2.8354,-0.009 -5.1339,-2.92511 -5.1339,-6.51404 v -34.15307 c 0,-3.58887 -2.2985,-6.50531 -5.1338,-6.51398 v 0 c 2.8353,0.009 5.1338,-2.89362 5.1338,-6.48254 v -34.15308 0 c 0,-3.58887 2.2985,-6.49121 5.1339,-6.48248"
       id="path103"
       inkscape:connector-curvature="0"
       style="fill-rule:evenodd;stroke:#595959;stroke-width:1;stroke-linecap:butt;stroke-linejoin:round" />
    <path
       d="m 1440.4777,872.578 h 160.63 v 46.42517 h -160.63 z"
       id="path105"
       inkscape:connector-curvature="0"
       style="fill:#000000;fill-opacity:0;fill-rule:evenodd" />
    <path
       d="m 1494.8434,904.33057 v -17.0625 h 5.25 q 2.25,0 4.0156,1.01562 1.7813,1.01563 2.7657,2.89063 1,1.85937 1,4.23437 v 0.78125 q 0,2.39063 -0.9844,4.25 -0.9688,1.84375 -2.75,2.85938 -1.7813,1.01562 -4.0156,1.03125 z m 3.5156,-14.21875 v 11.39062 h 1.6875 q 2.0625,0 3.1563,-1.34375 1.0937,-1.34375 1.1094,-3.85937 v -0.90625 q 0,-2.59375 -1.0782,-3.9375 -1.0781,-1.34375 -3.1406,-1.34375 z m 17.6914,14.45312 q -2.7968,0 -4.5468,-1.70312 -1.75,-1.71875 -1.75,-4.5625 v -0.32813 q 0,-1.92187 0.7343,-3.42187 0.75,-1.5 2.0938,-2.3125 1.3594,-0.82813 3.0937,-0.82813 2.5938,0 4.0938,1.64063 1.5,1.64062 1.5,4.65625 v 1.39062 h -8.0781 q 0.1562,1.23438 0.9843,1.98438 0.8282,0.75 2.0938,0.75 1.9531,0 3.0625,-1.42188 l 1.6562,1.875 q -0.75,1.07813 -2.0625,1.6875 -1.2968,0.59375 -2.875,0.59375 z m -0.3906,-10.40625 q -1,0 -1.6406,0.6875 -0.625,0.67188 -0.7969,1.9375 h 4.7188 v -0.26562 q -0.031,-1.125 -0.625,-1.73438 -0.5782,-0.625 -1.6563,-0.625 z m 14.8789,10.17188 q -0.2344,-0.45313 -0.3437,-1.14063 -1.2344,1.375 -3.2032,1.375 -1.8593,0 -3.0937,-1.07812 -1.2188,-1.07813 -1.2188,-2.71875 0,-2.01563 1.4844,-3.09375 1.5,-1.07813 4.3281,-1.09375 h 1.5625 v -0.71875 q 0,-0.89063 -0.4531,-1.40625 -0.4531,-0.53125 -1.4219,-0.53125 -0.8593,0 -1.3437,0.40625 -0.4844,0.40625 -0.4844,1.125 h -3.3906 q 0,-1.09375 0.6719,-2.03125 0.6875,-0.9375 1.9218,-1.46875 1.25,-0.54688 2.7969,-0.54688 2.3438,0 3.7188,1.1875 1.375,1.17188 1.375,3.3125 v 5.48438 q 0.016,1.8125 0.5156,2.73437 v 0.20313 z m -2.8125,-2.35938 q 0.75,0 1.375,-0.32812 0.6406,-0.34375 0.9531,-0.90625 v -2.17188 h -1.2656 q -2.5469,0 -2.7031,1.75 l -0.016,0.20313 q 0,0.64062 0.4375,1.04687 0.4531,0.40625 1.2187,0.40625 z m 7.8047,-4.07812 q 0,-2.96875 1.3281,-4.71875 1.3281,-1.76563 3.6406,-1.76563 1.8438,0 3.0469,1.39063 v -6.46875 h 3.4063 v 18 h -3.0625 l -0.1563,-1.34375 q -1.2656,1.57812 -3.2656,1.57812 -2.2344,0 -3.5938,-1.76562 -1.3437,-1.76563 -1.3437,-4.90625 z m 3.375,0.25 q 0,1.78125 0.625,2.73437 0.625,0.9375 1.8125,0.9375 1.5625,0 2.2031,-1.3125 v -5.01562 q -0.625,-1.3125 -2.1875,-1.3125 -2.4531,0 -2.4531,3.96875 z"
       id="path107"
       inkscape:connector-curvature="0"
       style="fill:#666666;fill-rule:nonzero" />
    <path
       d="m 1648.8337,856.1689 h 80.4409 v 79.24414 h -80.4409 z"
       id="path109"
       inkscape:connector-curvature="0"
       style="fill:#d9d9d9;fill-rule:evenodd" />
    <path
       d="m 1648.8337,856.1689 h 80.4409 v 79.24414 h -80.4409 z"
       id="path111"
       inkscape:connector-curvature="0"
       style="fill-rule:evenodd;stroke:#b7b7b7;stroke-width:4;stroke-linecap:butt;stroke-linejoin:round" />
    <path
       d="m 1648.8337,728.3885 h 80.4409 v 79.24414 h -80.4409 z"
       id="path113"
       inkscape:connector-curvature="0"
       style="fill:#ffe3bc;fill-rule:evenodd" />
    <path
       d="m 1648.8337,728.3885 h 80.4409 v 79.24414 h -80.4409 z"
       id="path115"
       inkscape:connector-curvature="0"
       style="fill-rule:evenodd;stroke:#e6ae87;stroke-width:4;stroke-linecap:butt;stroke-linejoin:round" />
    <path
       d="m 1648.8337,600.60815 h 80.4409 v 79.24414 h -80.4409 z"
       id="path117"
       inkscape:connector-curvature="0"
       style="fill:#e6ae87;fill-rule:evenodd" />
    <path
       d="m 1648.8337,600.60815 h 80.4409 v 79.24414 h -80.4409 z"
       id="path119"
       inkscape:connector-curvature="0"
       style="fill-rule:evenodd;stroke:#e6ae87;stroke-width:4;stroke-linecap:butt;stroke-linejoin:round" />
    <path
       d="m 1193.1487,569.8723 h 80.4409 v 79.24408 h -80.4409 z"
       id="path121"
       inkscape:connector-curvature="0"
       style="fill:#d9d9d9;fill-rule:evenodd" />
    <path
       d="m 1193.1487,569.8723 h 80.4409 v 79.24408 h -80.4409 z"
       id="path123"
       inkscape:connector-curvature="0"
       style="fill-rule:evenodd;stroke:#b7b7b7;stroke-width:4;stroke-linecap:butt;stroke-linejoin:round" />
    <path
       d="m 1272.7812,569.8723 h 80.4409 v 79.24408 h -80.4409 z"
       id="path125"
       inkscape:connector-curvature="0"
       style="fill:#d9d9d9;fill-rule:evenodd" />
    <path
       d="m 1272.7812,569.8723 h 80.4409 v 79.24408 h -80.4409 z"
       id="path127"
       inkscape:connector-curvature="0"
       style="fill-rule:evenodd;stroke:#b7b7b7;stroke-width:4;stroke-linecap:butt;stroke-linejoin:round" />
    <path
       d="m 1272.7812,649.1313 h 80.4409 v 79.24408 h -80.4409 z"
       id="path129"
       inkscape:connector-curvature="0"
       style="fill:#d9d9d9;fill-rule:evenodd" />
    <path
       d="m 1272.7812,649.1313 h 80.4409 v 79.24408 h -80.4409 z"
       id="path131"
       inkscape:connector-curvature="0"
       style="fill-rule:evenodd;stroke:#b7b7b7;stroke-width:4;stroke-linecap:butt;stroke-linejoin:round" />
    <path
       d="m 1272.7812,728.39026 h 80.4409 v 79.24408 h -80.4409 z"
       id="path133"
       inkscape:connector-curvature="0"
       style="fill:#d9d9d9;fill-rule:evenodd" />
    <path
       d="m 1272.7812,728.39026 h 80.4409 v 79.24408 h -80.4409 z"
       id="path135"
       inkscape:connector-curvature="0"
       style="fill-rule:evenodd;stroke:#b7b7b7;stroke-width:4;stroke-linecap:butt;stroke-linejoin:round" />
    <path
       d="m 1272.7812,807.63434 h 80.4409 v 79.24414 h -80.4409 z"
       id="path137"
       inkscape:connector-curvature="0"
       style="fill:#d9d9d9;fill-rule:evenodd" />
    <path
       d="m 1272.7812,807.63434 h 80.4409 v 79.24414 h -80.4409 z"
       id="path139"
       inkscape:connector-curvature="0"
       style="fill-rule:evenodd;stroke:#b7b7b7;stroke-width:4;stroke-linecap:butt;stroke-linejoin:round" />
    <path
       d="m 1193.1487,886.8837 h 80.4409 v 79.24408 h -80.4409 z"
       id="path141"
       inkscape:connector-curvature="0"
       style="fill:#d9d9d9;fill-rule:evenodd" />
    <path
       d="m 1193.1487,886.8837 h 80.4409 v 79.24408 h -80.4409 z"
       id="path143"
       inkscape:connector-curvature="0"
       style="fill-rule:evenodd;stroke:#b7b7b7;stroke-width:4;stroke-linecap:butt;stroke-linejoin:round" />
    <path
       d="m 1272.7812,886.8837 h 80.4409 v 79.24408 h -80.4409 z"
       id="path145"
       inkscape:connector-curvature="0"
       style="fill:#d9d9d9;fill-rule:evenodd" />
    <path
       d="m 1272.7812,886.8837 h 80.4409 v 79.24408 h -80.4409 z"
       id="path147"
       inkscape:connector-curvature="0"
       style="fill-rule:evenodd;stroke:#b7b7b7;stroke-width:4;stroke-linecap:butt;stroke-linejoin:round" />
  </g>
</svg>
