<?xml version="1.0" encoding="UTF-8" standalone="no"?>
<svg
   xmlns:dc="http://purl.org/dc/elements/1.1/"
   xmlns:cc="http://creativecommons.org/ns#"
   xmlns:rdf="http://www.w3.org/1999/02/22-rdf-syntax-ns#"
   xmlns:svg="http://www.w3.org/2000/svg"
   xmlns="http://www.w3.org/2000/svg"
   xmlns:sodipodi="http://sodipodi.sourceforge.net/DTD/sodipodi-0.dtd"
   xmlns:inkscape="http://www.inkscape.org/namespaces/inkscape"
   version="1.1"
   viewBox="0 0 925.49872 281.3952"
   stroke-miterlimit="10"
   id="svg125"
   sodipodi:docname="amask.svg"
   width="925.49872"
   height="281.3952"
   style="fill:none;stroke:none;stroke-linecap:square;stroke-miterlimit:10"
   inkscape:export-filename="/Users/eyvind/Downloads/amask.png"
   inkscape:export-xdpi="96"
   inkscape:export-ydpi="96"
   inkscape:version="0.92.2 5c3e80d, 2017-08-06">
  <metadata
     id="metadata131">
    <rdf:RDF>
      <cc:Work
         rdf:about="">
        <dc:format>image/svg+xml</dc:format>
        <dc:type
           rdf:resource="http://purl.org/dc/dcmitype/StillImage" />
        <dc:title></dc:title>
      </cc:Work>
    </rdf:RDF>
  </metadata>
  <defs
     id="defs129" />
  <sodipodi:namedview
     pagecolor="#ffffff"
     bordercolor="#666666"
     borderopacity="1"
     objecttolerance="10"
     gridtolerance="10"
     guidetolerance="10"
     inkscape:pageopacity="0"
     inkscape:pageshadow="2"
     inkscape:window-width="1918"
     inkscape:window-height="1022"
     id="namedview127"
     showgrid="false"
     fit-margin-top="0"
     fit-margin-left="0"
     fit-margin-right="0"
     fit-margin-bottom="0"
     inkscape:zoom="0.1125"
     inkscape:cx="437.084"
     inkscape:cy="61.416193"
     inkscape:window-x="0"
     inkscape:window-y="393"
     inkscape:window-maximized="0"
     inkscape:current-layer="g123" />
  <clipPath
     id="g6e326a5eaa_0_0.0">
    <path
       d="M 0,0 H 2880 V 1536 H 0 Z"
       id="path2"
       inkscape:connector-curvature="0"
       style="clip-rule:nonzero" />
  </clipPath>
  <g
     clip-path="url(#g6e326a5eaa_0_0.0)"
     id="g123"
     transform="translate(-1002.916,-548.021)">
    <path
       d="m 1547.7994,708.58154 h 120.5984 V 827.4162 h -120.5984 z"
       id="path7"
       inkscape:connector-curvature="0"
       style="fill:#ffe3bc;fill-rule:evenodd" />
    <path
       d="m 1547.7994,708.58154 h 120.5984 V 827.4162 h -120.5984 z"
       id="path9"
       inkscape:connector-curvature="0"
       style="fill-rule:evenodd;stroke:#e6ae87;stroke-width:4;stroke-linecap:butt;stroke-linejoin:round" />
    <path
       d="m 1613.4803,742.7176 h 3 q -1.1406,3.57812 -2.0937,8.64062 1.125,6.28125 2.0937,8.64063 h -2.9062 q -0.7032,-1.625 -1.0625,-3.15625 -1.3594,3.54687 -5.6563,3.54687 -3.25,0 -5.2344,-2.4375 -1.9843,-2.4375 -1.9843,-6.625 0,-4.29687 1.9843,-6.64062 2,-2.35938 5.2969,-2.35938 2.0313,0 3.3125,0.82813 1.2813,0.8125 2.3906,2.48437 0.1094,-0.5625 0.8594,-2.92187 z m -6.0781,2.03125 q -2.1094,0 -3.3281,1.70312 -1.2188,1.6875 -1.2188,4.875 0,3.10938 1.1563,4.89063 1.1562,1.76562 3.2187,1.76562 2.0313,0 3.375,-1.75 1.3438,-1.75 1.3438,-5.03125 0,-3.20312 -1.2657,-4.82812 -1.25,-1.625 -3.2812,-1.625 z"
       id="path11"
       inkscape:connector-curvature="0"
       style="fill:#666666;fill-rule:nonzero" />
    <path
       d="m 1577.0562,788.2332 q 0,-4.23438 0.8594,-6.8125 0.875,-2.57813 2.5937,-3.96875 1.7188,-1.40625 4.3125,-1.40625 1.9219,0 3.375,0.78125 1.4532,0.76562 2.3907,2.21875 0.9375,1.45312 1.4687,3.54687 0.5469,2.09375 0.5469,5.64063 0,4.20312 -0.8594,6.78125 -0.8594,2.57812 -2.5781,3.98437 -1.7188,1.40625 -4.3438,1.40625 -3.4375,0 -5.4062,-2.46875 -2.3594,-2.98437 -2.3594,-9.70312 z m 3,0 q 0,5.875 1.375,7.82812 1.375,1.9375 3.3906,1.9375 2.0313,0 3.4063,-1.95312 1.375,-1.95313 1.375,-7.8125 0,-5.89063 -1.375,-7.82813 -1.375,-1.9375 -3.4375,-1.9375 -2.0156,0 -3.2188,1.70313 -1.5156,2.1875 -1.5156,8.0625 z m 17.1761,11.76562 v -3.34375 h 3.3282 v 3.34375 z m 22.8066,-18.01562 -2.9063,0.23437 q -0.3906,-1.73437 -1.1094,-2.51562 -1.1875,-1.25 -2.9218,-1.25 -1.4063,0 -2.4688,0.78125 -1.375,1.01562 -2.1719,2.95312 -0.7968,1.92188 -0.8281,5.51563 1.0469,-1.60938 2.5781,-2.39063 1.5313,-0.78125 3.2032,-0.78125 2.9375,0 4.9843,2.15625 2.0625,2.15625 2.0625,5.5625 0,2.25 -0.9687,4.1875 -0.9688,1.92188 -2.6563,2.95313 -1.6875,1.01562 -3.8437,1.01562 -3.6563,0 -5.9688,-2.6875 -2.3125,-2.70312 -2.3125,-8.875 0,-6.92187 2.5625,-10.0625 2.2188,-2.73437 6,-2.73437 2.8125,0 4.6094,1.57812 1.7969,1.57813 2.1563,4.35938 z m -11.9532,10.28125 q 0,1.51562 0.6407,2.90625 0.6406,1.375 1.7968,2.10937 1.1563,0.71875 2.4219,0.71875 1.8594,0 3.1875,-1.5 1.3438,-1.5 1.3438,-4.0625 0,-2.48437 -1.3282,-3.90625 -1.3125,-1.42187 -3.3125,-1.42187 -1.9843,0 -3.375,1.42187 -1.375,1.42188 -1.375,3.73438 z m 15.3168,1.4375 2.9219,-0.39063 q 0.5,2.48438 1.7187,3.59375 1.2188,1.09375 2.9532,1.09375 2.0625,0 3.4843,-1.42187 1.4219,-1.4375 1.4219,-3.5625 0,-2.01563 -1.3125,-3.32813 -1.3125,-1.3125 -3.3437,-1.3125 -0.8438,0 -2.0782,0.32813 l 0.3282,-2.5625 q 0.2968,0.0312 0.4687,0.0312 1.875,0 3.375,-0.96875 1.5,-0.98438 1.5,-3.01563 0,-1.625 -1.0937,-2.67187 -1.0938,-1.0625 -2.8125,-1.0625 -1.7188,0 -2.8594,1.07812 -1.125,1.07813 -1.4531,3.21875 l -2.9375,-0.51562 q 0.5468,-2.95313 2.4375,-4.5625 1.9062,-1.625 4.75,-1.625 1.9531,0 3.5937,0.84375 1.6406,0.82812 2.5,2.28125 0.875,1.45312 0.875,3.07812 0,1.54688 -0.8281,2.8125 -0.8281,1.26563 -2.4531,2.01563 2.1093,0.48437 3.2812,2.03125 1.1719,1.53125 1.1719,3.84375 0,3.125 -2.2813,5.29687 -2.2656,2.17188 -5.75,2.17188 -3.1406,0 -5.2187,-1.85938 -2.0781,-1.875 -2.3594,-4.85937 z"
       id="path13"
       inkscape:connector-curvature="0"
       style="fill:#666666;fill-rule:nonzero" />
    <path
       d="m 1667.7994,708.58154 h 120.5984 V 827.4162 h -120.5984 z"
       id="path15"
       inkscape:connector-curvature="0"
       style="fill:#ffe3bc;fill-opacity:0.6536;fill-rule:evenodd" />
    <path
       d="m 1667.7994,708.58154 h 120.5984 V 827.4162 h -120.5984 z"
       id="path17"
       inkscape:connector-curvature="0"
       style="fill-rule:evenodd;stroke:#e6ae87;stroke-width:4;stroke-linecap:butt;stroke-linejoin:round" />
    <path
       d="m 1733.4803,742.7176 h 3 q -1.1406,3.57812 -2.0937,8.64062 1.125,6.28125 2.0937,8.64063 h -2.9062 q -0.7032,-1.625 -1.0625,-3.15625 -1.3594,3.54687 -5.6563,3.54687 -3.25,0 -5.2344,-2.4375 -1.9843,-2.4375 -1.9843,-6.625 0,-4.29687 1.9843,-6.64062 2,-2.35938 5.2969,-2.35938 2.0313,0 3.3125,0.82813 1.2813,0.8125 2.3906,2.48437 0.1094,-0.5625 0.8594,-2.92187 z m -6.0781,2.03125 q -2.1094,0 -3.3281,1.70312 -1.2188,1.6875 -1.2188,4.875 0,3.10938 1.1563,4.89063 1.1562,1.76562 3.2187,1.76562 2.0313,0 3.375,-1.75 1.3438,-1.75 1.3438,-5.03125 0,-3.20312 -1.2657,-4.82812 -1.25,-1.625 -3.2812,-1.625 z"
       id="path19"
       inkscape:connector-curvature="0"
       style="fill:#666666;fill-rule:nonzero" />
    <path
       d="m 1697.0562,788.2332 q 0,-4.23438 0.8594,-6.8125 0.875,-2.57813 2.5937,-3.96875 1.7188,-1.40625 4.3125,-1.40625 1.9219,0 3.375,0.78125 1.4532,0.76562 2.3907,2.21875 0.9375,1.45312 1.4687,3.54687 0.5469,2.09375 0.5469,5.64063 0,4.20312 -0.8594,6.78125 -0.8594,2.57812 -2.5781,3.98437 -1.7188,1.40625 -4.3438,1.40625 -3.4375,0 -5.4062,-2.46875 -2.3594,-2.98437 -2.3594,-9.70312 z m 3,0 q 0,5.875 1.375,7.82812 1.375,1.9375 3.3906,1.9375 2.0313,0 3.4063,-1.95312 1.375,-1.95313 1.375,-7.8125 0,-5.89063 -1.375,-7.82813 -1.375,-1.9375 -3.4375,-1.9375 -2.0156,0 -3.2188,1.70313 -1.5156,2.1875 -1.5156,8.0625 z m 17.1761,11.76562 v -3.34375 h 3.3282 v 3.34375 z m 7.6191,-11.76562 q 0,-4.23438 0.8593,-6.8125 0.875,-2.57813 2.5938,-3.96875 1.7187,-1.40625 4.3125,-1.40625 1.9219,0 3.375,0.78125 1.4531,0.76562 2.3906,2.21875 0.9375,1.45312 1.4688,3.54687 0.5468,2.09375 0.5468,5.64063 0,4.20312 -0.8593,6.78125 -0.8594,2.57812 -2.5782,3.98437 -1.7187,1.40625 -4.3437,1.40625 -3.4375,0 -5.4063,-2.46875 -2.3593,-2.98437 -2.3593,-9.70312 z m 3,0 q 0,5.875 1.375,7.82812 1.375,1.9375 3.3906,1.9375 2.0312,0 3.4062,-1.95312 1.375,-1.95313 1.375,-7.8125 0,-5.89063 -1.375,-7.82813 -1.375,-1.9375 -3.4375,-1.9375 -2.0156,0 -3.2187,1.70313 -1.5156,2.1875 -1.5156,8.0625 z m 15.973,6.25 2.8125,-0.26563 q 0.3594,1.98438 1.3594,2.89063 1.0156,0.89062 2.5937,0.89062 1.3438,0 2.3594,-0.60937 1.0312,-0.625 1.6719,-1.65625 0.6562,-1.04688 1.0937,-2.79688 0.4375,-1.75 0.4375,-3.57812 0,-0.20313 -0.016,-0.59375 -0.875,1.40625 -2.4063,2.28125 -1.5156,0.85937 -3.2812,0.85937 -2.9688,0 -5.0156,-2.14062 -2.0469,-2.15625 -2.0469,-5.67188 0,-3.625 2.125,-5.82812 2.1406,-2.21875 5.375,-2.21875 2.3281,0 4.25,1.25 1.9219,1.25 2.9219,3.57812 1.0156,2.3125 1.0156,6.70313 0,4.57812 -1,7.29687 -1,2.70313 -2.9688,4.125 -1.9531,1.40625 -4.5781,1.40625 -2.7969,0 -4.5781,-1.54687 -1.7656,-1.5625 -2.125,-4.375 z m 11.9844,-10.53125 q 0,-2.51563 -1.3438,-4 -1.3437,-1.48438 -3.2187,-1.48438 -1.9532,0 -3.4063,1.59375 -1.4531,1.59375 -1.4531,4.14063 0,2.28125 1.375,3.70312 1.375,1.42188 3.3906,1.42188 2.0469,0 3.3438,-1.42188 1.3125,-1.42187 1.3125,-3.95312 z"
       id="path21"
       inkscape:connector-curvature="0"
       style="fill:#666666;fill-rule:nonzero" />
    <path
       d="m 1787.7994,708.58154 h 120.5984 V 827.4162 h -120.5984 z"
       id="path23"
       inkscape:connector-curvature="0"
       style="fill:#ffffff;fill-rule:evenodd" />
    <path
       d="m 1787.7994,708.58154 h 120.5984 V 827.4162 h -120.5984 z"
       id="path25"
       inkscape:connector-curvature="0"
       style="fill-rule:evenodd;stroke:#999999;stroke-width:4;stroke-linecap:butt;stroke-linejoin:round" />
    <path
       d="m 1853.4803,742.7176 h 3 q -1.1406,3.57812 -2.0937,8.64062 1.125,6.28125 2.0937,8.64063 h -2.9062 q -0.7032,-1.625 -1.0625,-3.15625 -1.3594,3.54687 -5.6563,3.54687 -3.25,0 -5.2344,-2.4375 -1.9843,-2.4375 -1.9843,-6.625 0,-4.29687 1.9843,-6.64062 2,-2.35938 5.2969,-2.35938 2.0313,0 3.3125,0.82813 1.2813,0.8125 2.3906,2.48437 0.1094,-0.5625 0.8594,-2.92187 z m -6.0781,2.03125 q -2.1094,0 -3.3281,1.70312 -1.2188,1.6875 -1.2188,4.875 0,3.10938 1.1563,4.89063 1.1562,1.76562 3.2187,1.76562 2.0313,0 3.375,-1.75 1.3438,-1.75 1.3438,-5.03125 0,-3.20312 -1.2657,-4.82812 -1.25,-1.625 -3.2812,-1.625 z"
       id="path27"
       inkscape:connector-curvature="0"
       style="fill:#666666;fill-rule:nonzero" />
    <path
       d="m 1817.0562,788.2332 q 0,-4.23438 0.8594,-6.8125 0.875,-2.57813 2.5937,-3.96875 1.7188,-1.40625 4.3125,-1.40625 1.9219,0 3.375,0.78125 1.4532,0.76562 2.3907,2.21875 0.9375,1.45312 1.4687,3.54687 0.5469,2.09375 0.5469,5.64063 0,4.20312 -0.8594,6.78125 -0.8594,2.57812 -2.5781,3.98437 -1.7188,1.40625 -4.3438,1.40625 -3.4375,0 -5.4062,-2.46875 -2.3594,-2.98437 -2.3594,-9.70312 z m 3,0 q 0,5.875 1.375,7.82812 1.375,1.9375 3.3906,1.9375 2.0313,0 3.4063,-1.95312 1.375,-1.95313 1.375,-7.8125 0,-5.89063 -1.375,-7.82813 -1.375,-1.9375 -3.4375,-1.9375 -2.0156,0 -3.2188,1.70313 -1.5156,2.1875 -1.5156,8.0625 z m 17.1761,11.76562 v -3.34375 h 3.3282 v 3.34375 z m 7.6191,-11.76562 q 0,-4.23438 0.8593,-6.8125 0.875,-2.57813 2.5938,-3.96875 1.7187,-1.40625 4.3125,-1.40625 1.9219,0 3.375,0.78125 1.4531,0.76562 2.3906,2.21875 0.9375,1.45312 1.4688,3.54687 0.5468,2.09375 0.5468,5.64063 0,4.20312 -0.8593,6.78125 -0.8594,2.57812 -2.5782,3.98437 -1.7187,1.40625 -4.3437,1.40625 -3.4375,0 -5.4063,-2.46875 -2.3593,-2.98437 -2.3593,-9.70312 z m 3,0 q 0,5.875 1.375,7.82812 1.375,1.9375 3.3906,1.9375 2.0312,0 3.4062,-1.95312 1.375,-1.95313 1.375,-7.8125 0,-5.89063 -1.375,-7.82813 -1.375,-1.9375 -3.4375,-1.9375 -2.0156,0 -3.2187,1.70313 -1.5156,2.1875 -1.5156,8.0625 z m 15.5355,0 q 0,-4.23438 0.8594,-6.8125 0.875,-2.57813 2.5937,-3.96875 1.7188,-1.40625 4.3125,-1.40625 1.9219,0 3.375,0.78125 1.4531,0.76562 2.3906,2.21875 0.9375,1.45312 1.4688,3.54687 0.5469,2.09375 0.5469,5.64063 0,4.20312 -0.8594,6.78125 -0.8594,2.57812 -2.5781,3.98437 -1.7188,1.40625 -4.3438,1.40625 -3.4375,0 -5.4062,-2.46875 -2.3594,-2.98437 -2.3594,-9.70312 z m 3,0 q 0,5.875 1.375,7.82812 1.375,1.9375 3.3906,1.9375 2.0313,0 3.4063,-1.95312 1.375,-1.95313 1.375,-7.8125 0,-5.89063 -1.375,-7.82813 -1.375,-1.9375 -3.4375,-1.9375 -2.0157,0 -3.2188,1.70313 -1.5156,2.1875 -1.5156,8.0625 z"
       id="path29"
       inkscape:connector-curvature="0"
       style="fill:#666666;fill-rule:nonzero" />
    <path
       d="m 1022.9321,708.58154 h 120.5984 V 827.4162 h -120.5984 z"
       id="path31"
       inkscape:connector-curvature="0"
       style="fill:#ffe3bc;fill-rule:evenodd" />
    <path
       d="m 1022.9321,708.58154 h 120.5984 V 827.4162 h -120.5984 z"
       id="path33"
       inkscape:connector-curvature="0"
       style="fill-rule:evenodd;stroke:#e6ae87;stroke-width:4;stroke-linecap:butt;stroke-linejoin:round" />
    <path
       d="m 1088.613,742.7176 h 3 q -1.1406,3.57812 -2.0937,8.64062 1.125,6.28125 2.0937,8.64063 h -2.9062 q -0.7032,-1.625 -1.0625,-3.15625 -1.3594,3.54687 -5.6563,3.54687 -3.25,0 -5.2344,-2.4375 -1.9843,-2.4375 -1.9843,-6.625 0,-4.29687 1.9843,-6.64062 2,-2.35938 5.2969,-2.35938 2.0313,0 3.3125,0.82813 1.2813,0.8125 2.3906,2.48437 0.1094,-0.5625 0.8594,-2.92187 z m -6.0781,2.03125 q -2.1094,0 -3.3281,1.70312 -1.2188,1.6875 -1.2188,4.875 0,3.10938 1.1563,4.89063 1.1562,1.76562 3.2187,1.76562 2.0313,0 3.375,-1.75 1.3438,-1.75 1.3438,-5.03125 0,-3.20312 -1.2657,-4.82812 -1.25,-1.625 -3.2812,-1.625 z"
       id="path35"
       inkscape:connector-curvature="0"
       style="fill:#666666;fill-rule:nonzero" />
    <path
       d="m 1052.1888,788.2332 q 0,-4.23438 0.8594,-6.8125 0.875,-2.57813 2.5937,-3.96875 1.7188,-1.40625 4.3125,-1.40625 1.9219,0 3.375,0.78125 1.4532,0.76562 2.3907,2.21875 0.9375,1.45312 1.4687,3.54687 0.5469,2.09375 0.5469,5.64063 0,4.20312 -0.8594,6.78125 -0.8594,2.57812 -2.5781,3.98437 -1.7188,1.40625 -4.3438,1.40625 -3.4375,0 -5.4062,-2.46875 -2.3594,-2.98437 -2.3594,-9.70312 z m 3,0 q 0,5.875 1.375,7.82812 1.375,1.9375 3.3906,1.9375 2.0313,0 3.4063,-1.95312 1.375,-1.95313 1.375,-7.8125 0,-5.89063 -1.375,-7.82813 -1.375,-1.9375 -3.4375,-1.9375 -2.0156,0 -3.2188,1.70313 -1.5156,2.1875 -1.5156,8.0625 z m 17.1761,11.76562 v -3.34375 h 3.3282 v 3.34375 z m 22.8066,-18.01562 -2.9063,0.23437 q -0.3906,-1.73437 -1.1094,-2.51562 -1.1875,-1.25 -2.9218,-1.25 -1.4063,0 -2.4688,0.78125 -1.375,1.01562 -2.1719,2.95312 -0.7968,1.92188 -0.8281,5.51563 1.0469,-1.60938 2.5781,-2.39063 1.5313,-0.78125 3.2032,-0.78125 2.9375,0 4.9843,2.15625 2.0625,2.15625 2.0625,5.5625 0,2.25 -0.9687,4.1875 -0.9688,1.92188 -2.6563,2.95313 -1.6875,1.01562 -3.8437,1.01562 -3.6563,0 -5.9688,-2.6875 -2.3125,-2.70312 -2.3125,-8.875 0,-6.92187 2.5625,-10.0625 2.2188,-2.73437 6,-2.73437 2.8125,0 4.6094,1.57812 1.7969,1.57813 2.1563,4.35938 z m -11.9532,10.28125 q 0,1.51562 0.6407,2.90625 0.6406,1.375 1.7968,2.10937 1.1563,0.71875 2.4219,0.71875 1.8594,0 3.1875,-1.5 1.3438,-1.5 1.3438,-4.0625 0,-2.48437 -1.3282,-3.90625 -1.3125,-1.42187 -3.3125,-1.42187 -1.9843,0 -3.375,1.42187 -1.375,1.42188 -1.375,3.73438 z m 15.3168,1.4375 2.9219,-0.39063 q 0.5,2.48438 1.7187,3.59375 1.2188,1.09375 2.9532,1.09375 2.0625,0 3.4843,-1.42187 1.4219,-1.4375 1.4219,-3.5625 0,-2.01563 -1.3125,-3.32813 -1.3125,-1.3125 -3.3437,-1.3125 -0.8438,0 -2.0782,0.32813 l 0.3282,-2.5625 q 0.2968,0.0312 0.4687,0.0312 1.875,0 3.375,-0.96875 1.5,-0.98438 1.5,-3.01563 0,-1.625 -1.0937,-2.67187 -1.0938,-1.0625 -2.8125,-1.0625 -1.7188,0 -2.8594,1.07812 -1.125,1.07813 -1.4531,3.21875 l -2.9375,-0.51562 q 0.5468,-2.95313 2.4375,-4.5625 1.9062,-1.625 4.75,-1.625 1.9531,0 3.5937,0.84375 1.6406,0.82812 2.5,2.28125 0.875,1.45312 0.875,3.07812 0,1.54688 -0.8281,2.8125 -0.8281,1.26563 -2.4531,2.01563 2.1093,0.48437 3.2812,2.03125 1.1719,1.53125 1.1719,3.84375 0,3.125 -2.2813,5.29687 -2.2656,2.17188 -5.75,2.17188 -3.1406,0 -5.2187,-1.85938 -2.0781,-1.875 -2.3594,-4.85937 z"
       id="path37"
       inkscape:connector-curvature="0"
       style="fill:#666666;fill-rule:nonzero" />
    <path
       d="m 1142.9321,708.58154 h 120.5984 V 827.4162 h -120.5984 z"
       id="path39"
       inkscape:connector-curvature="0"
       style="fill:#ffe3bc;fill-opacity:0.6536;fill-rule:evenodd" />
    <path
       d="m 1142.9321,708.58154 h 120.5984 V 827.4162 h -120.5984 z"
       id="path41"
       inkscape:connector-curvature="0"
       style="fill-rule:evenodd;stroke:#e6ae87;stroke-width:4;stroke-linecap:butt;stroke-linejoin:round" />
    <path
       d="m 1208.613,742.7176 h 3 q -1.1406,3.57812 -2.0937,8.64062 1.125,6.28125 2.0937,8.64063 h -2.9062 q -0.7032,-1.625 -1.0625,-3.15625 -1.3594,3.54687 -5.6563,3.54687 -3.25,0 -5.2344,-2.4375 -1.9843,-2.4375 -1.9843,-6.625 0,-4.29687 1.9843,-6.64062 2,-2.35938 5.2969,-2.35938 2.0313,0 3.3125,0.82813 1.2813,0.8125 2.3906,2.48437 0.1094,-0.5625 0.8594,-2.92187 z m -6.0781,2.03125 q -2.1094,0 -3.3281,1.70312 -1.2188,1.6875 -1.2188,4.875 0,3.10938 1.1563,4.89063 1.1562,1.76562 3.2187,1.76562 2.0313,0 3.375,-1.75 1.3438,-1.75 1.3438,-5.03125 0,-3.20312 -1.2657,-4.82812 -1.25,-1.625 -3.2812,-1.625 z"
       id="path43"
       inkscape:connector-curvature="0"
       style="fill:#666666;fill-rule:nonzero" />
    <path
       d="m 1172.1888,788.2332 q 0,-4.23438 0.8594,-6.8125 0.875,-2.57813 2.5937,-3.96875 1.7188,-1.40625 4.3125,-1.40625 1.9219,0 3.375,0.78125 1.4532,0.76562 2.3907,2.21875 0.9375,1.45312 1.4687,3.54687 0.5469,2.09375 0.5469,5.64063 0,4.20312 -0.8594,6.78125 -0.8594,2.57812 -2.5781,3.98437 -1.7188,1.40625 -4.3438,1.40625 -3.4375,0 -5.4062,-2.46875 -2.3594,-2.98437 -2.3594,-9.70312 z m 3,0 q 0,5.875 1.375,7.82812 1.375,1.9375 3.3906,1.9375 2.0313,0 3.4063,-1.95312 1.375,-1.95313 1.375,-7.8125 0,-5.89063 -1.375,-7.82813 -1.375,-1.9375 -3.4375,-1.9375 -2.0156,0 -3.2188,1.70313 -1.5156,2.1875 -1.5156,8.0625 z m 17.1761,11.76562 v -3.34375 h 3.3282 v 3.34375 z m 7.6191,-11.76562 q 0,-4.23438 0.8593,-6.8125 0.875,-2.57813 2.5938,-3.96875 1.7187,-1.40625 4.3125,-1.40625 1.9219,0 3.375,0.78125 1.4531,0.76562 2.3906,2.21875 0.9375,1.45312 1.4688,3.54687 0.5468,2.09375 0.5468,5.64063 0,4.20312 -0.8593,6.78125 -0.8594,2.57812 -2.5782,3.98437 -1.7187,1.40625 -4.3437,1.40625 -3.4375,0 -5.4063,-2.46875 -2.3593,-2.98437 -2.3593,-9.70312 z m 3,0 q 0,5.875 1.375,7.82812 1.375,1.9375 3.3906,1.9375 2.0312,0 3.4062,-1.95312 1.375,-1.95313 1.375,-7.8125 0,-5.89063 -1.375,-7.82813 -1.375,-1.9375 -3.4375,-1.9375 -2.0156,0 -3.2187,1.70313 -1.5156,2.1875 -1.5156,8.0625 z m 15.973,6.25 2.8125,-0.26563 q 0.3594,1.98438 1.3594,2.89063 1.0156,0.89062 2.5937,0.89062 1.3438,0 2.3594,-0.60937 1.0312,-0.625 1.6719,-1.65625 0.6562,-1.04688 1.0937,-2.79688 0.4375,-1.75 0.4375,-3.57812 0,-0.20313 -0.016,-0.59375 -0.875,1.40625 -2.4063,2.28125 -1.5156,0.85937 -3.2812,0.85937 -2.9688,0 -5.0156,-2.14062 -2.0469,-2.15625 -2.0469,-5.67188 0,-3.625 2.125,-5.82812 2.1406,-2.21875 5.375,-2.21875 2.3281,0 4.25,1.25 1.9219,1.25 2.9219,3.57812 1.0156,2.3125 1.0156,6.70313 0,4.57812 -1,7.29687 -1,2.70313 -2.9688,4.125 -1.9531,1.40625 -4.5781,1.40625 -2.7969,0 -4.5781,-1.54687 -1.7656,-1.5625 -2.125,-4.375 z m 11.9844,-10.53125 q 0,-2.51563 -1.3438,-4 -1.3437,-1.48438 -3.2187,-1.48438 -1.9532,0 -3.4063,1.59375 -1.4531,1.59375 -1.4531,4.14063 0,2.28125 1.375,3.70312 1.375,1.42188 3.3906,1.42188 2.0469,0 3.3438,-1.42188 1.3125,-1.42187 1.3125,-3.95312 z"
       id="path45"
       inkscape:connector-curvature="0"
       style="fill:#666666;fill-rule:nonzero" />
    <path
       d="m 1262.9321,708.58154 h 120.5984 V 827.4162 h -120.5984 z"
       id="path47"
       inkscape:connector-curvature="0"
       style="fill:#ffe3bc;fill-opacity:0.3464;fill-rule:evenodd" />
    <path
       d="m 1262.9321,708.58154 h 120.5984 V 827.4162 h -120.5984 z"
       id="path49"
       inkscape:connector-curvature="0"
       style="fill-rule:evenodd;stroke:#e6ae87;stroke-width:4;stroke-linecap:butt;stroke-linejoin:round" />
    <path
       d="m 1328.613,742.7176 h 3 q -1.1406,3.57812 -2.0937,8.64062 1.125,6.28125 2.0937,8.64063 h -2.9062 q -0.7032,-1.625 -1.0625,-3.15625 -1.3594,3.54687 -5.6563,3.54687 -3.25,0 -5.2344,-2.4375 -1.9843,-2.4375 -1.9843,-6.625 0,-4.29687 1.9843,-6.64062 2,-2.35938 5.2969,-2.35938 2.0313,0 3.3125,0.82813 1.2813,0.8125 2.3906,2.48437 0.1094,-0.5625 0.8594,-2.92187 z m -6.0781,2.03125 q -2.1094,0 -3.3281,1.70312 -1.2188,1.6875 -1.2188,4.875 0,3.10938 1.1563,4.89063 1.1562,1.76562 3.2187,1.76562 2.0313,0 3.375,-1.75 1.3438,-1.75 1.3438,-5.03125 0,-3.20312 -1.2657,-4.82812 -1.25,-1.625 -3.2812,-1.625 z"
       id="path51"
       inkscape:connector-curvature="0"
       style="fill:#666666;fill-rule:nonzero" />
    <path
       d="m 1292.1888,788.2332 q 0,-4.23438 0.8594,-6.8125 0.875,-2.57813 2.5937,-3.96875 1.7188,-1.40625 4.3125,-1.40625 1.9219,0 3.375,0.78125 1.4532,0.76562 2.3907,2.21875 0.9375,1.45312 1.4687,3.54687 0.5469,2.09375 0.5469,5.64063 0,4.20312 -0.8594,6.78125 -0.8594,2.57812 -2.5781,3.98437 -1.7188,1.40625 -4.3438,1.40625 -3.4375,0 -5.4062,-2.46875 -2.3594,-2.98437 -2.3594,-9.70312 z m 3,0 q 0,5.875 1.375,7.82812 1.375,1.9375 3.3906,1.9375 2.0313,0 3.4063,-1.95312 1.375,-1.95313 1.375,-7.8125 0,-5.89063 -1.375,-7.82813 -1.375,-1.9375 -3.4375,-1.9375 -2.0156,0 -3.2188,1.70313 -1.5156,2.1875 -1.5156,8.0625 z m 17.1761,11.76562 v -3.34375 h 3.3282 v 3.34375 z m 7.6191,-11.76562 q 0,-4.23438 0.8593,-6.8125 0.875,-2.57813 2.5938,-3.96875 1.7187,-1.40625 4.3125,-1.40625 1.9219,0 3.375,0.78125 1.4531,0.76562 2.3906,2.21875 0.9375,1.45312 1.4688,3.54687 0.5468,2.09375 0.5468,5.64063 0,4.20312 -0.8593,6.78125 -0.8594,2.57812 -2.5782,3.98437 -1.7187,1.40625 -4.3437,1.40625 -3.4375,0 -5.4063,-2.46875 -2.3593,-2.98437 -2.3593,-9.70312 z m 3,0 q 0,5.875 1.375,7.82812 1.375,1.9375 3.3906,1.9375 2.0312,0 3.4062,-1.95312 1.375,-1.95313 1.375,-7.8125 0,-5.89063 -1.375,-7.82813 -1.375,-1.9375 -3.4375,-1.9375 -2.0156,0 -3.2187,1.70313 -1.5156,2.1875 -1.5156,8.0625 z m 15.5355,5.51562 3.0625,-0.26562 q 0.3437,2.25 1.5937,3.39062 1.25,1.125 3,1.125 2.1094,0 3.5782,-1.59375 1.4687,-1.59375 1.4687,-4.23437 0,-2.5 -1.4062,-3.95313 -1.4063,-1.45312 -3.6875,-1.45312 -1.4219,0 -2.5625,0.65625 -1.125,0.64062 -1.7813,1.65625 l -2.75,-0.35938 2.3125,-12.25 h 11.8594 v 2.79688 h -9.5156 l -1.2969,6.40625 q 2.1562,-1.48438 4.5156,-1.48438 3.125,0 5.2656,2.17188 2.1563,2.15625 2.1563,5.54687 0,3.25 -1.8906,5.60938 -2.2969,2.89062 -6.2657,2.89062 -3.25,0 -5.3125,-1.8125 -2.0625,-1.82812 -2.3437,-4.84375 z"
       id="path53"
       inkscape:connector-curvature="0"
       style="fill:#666666;fill-rule:nonzero" />
    <path
       d="m 1036.0604,697.32544 c 0.01,-2.83533 2.925,-5.13385 6.5139,-5.13385 h 34.1531 c 3.589,0 6.5054,-2.29852 6.514,-5.13385 v 0 c -0.01,2.83533 2.8937,5.13385 6.4826,5.13385 h 34.1531 v 0 c 3.5888,0 6.4912,2.29852 6.4825,5.13385 z"
       id="path55"
       inkscape:connector-curvature="0"
       style="fill:#000000;fill-opacity:0;fill-rule:evenodd" />
    <path
       d="m 1036.0604,697.32544 c 0.01,-2.83533 2.925,-5.13385 6.5139,-5.13385 h 34.1531 c 3.589,0 6.5054,-2.29852 6.514,-5.13385 v 0 c -0.01,2.83533 2.8937,5.13385 6.4826,5.13385 h 34.1531 v 0 c 3.5888,0 6.4912,2.29852 6.4825,5.13385"
       id="path57"
       inkscape:connector-curvature="0"
       style="fill:#000000;fill-opacity:0;fill-rule:evenodd" />
    <path
       d="m 1036.0604,697.32544 c 0.01,-2.83533 2.925,-5.13385 6.5139,-5.13385 h 34.1531 c 3.589,0 6.5054,-2.29852 6.514,-5.13385 v 0 c -0.01,2.83533 2.8937,5.13385 6.4826,5.13385 h 34.1531 v 0 c 3.5888,0 6.4912,2.29852 6.4825,5.13385"
       id="path59"
       inkscape:connector-curvature="0"
       style="fill-rule:evenodd;stroke:#595959;stroke-width:1;stroke-linecap:butt;stroke-linejoin:round" />
    <path
       d="m 1002.916,631.33386 h 160.6299 v 46.42523 H 1002.916 Z"
       id="path61"
       inkscape:connector-curvature="0"
       style="fill:#000000;fill-opacity:0;fill-rule:evenodd" />
    <path
       d="m 1067.4751,645.07086 h -6.1562 l -1.1719,3.51563 h -3.75 l 6.3594,-17.0625 h 3.25 l 6.3906,17.0625 h -3.7344 z m -5.2187,-2.84375 h 4.2656 l -2.1406,-6.39062 z m 15.0859,6.35938 h -3.3906 v -18 h 3.3906 z m 6.3633,0 h -3.3907 v -12.6875 h 3.3907 z m -3.5938,-15.96875 q 0,-0.75 0.5,-1.23438 0.5156,-0.5 1.3906,-0.5 0.875,0 1.3907,0.5 0.5156,0.48438 0.5156,1.23438 0,0.78125 -0.5313,1.28125 -0.5156,0.48437 -1.375,0.48437 -0.8437,0 -1.375,-0.48437 -0.5156,-0.5 -0.5156,-1.28125 z m 11.1289,11.82812 2.3594,-8.54687 h 3.5312 l -4.2656,12.6875 h -3.2344 l -4.2812,-12.6875 h 3.5312 z m 13.0703,4.375 q -2.7968,0 -4.5468,-1.70312 -1.75,-1.71875 -1.75,-4.5625 v -0.32813 q 0,-1.92187 0.7343,-3.42187 0.75,-1.5 2.0938,-2.3125 1.3594,-0.82813 3.0937,-0.82813 2.5938,0 4.0938,1.64063 1.5,1.64062 1.5,4.65625 v 1.39062 h -8.0781 q 0.1562,1.23438 0.9843,1.98438 0.8282,0.75 2.0938,0.75 1.9531,0 3.0625,-1.42188 l 1.6562,1.875 q -0.75,1.07813 -2.0625,1.6875 -1.2968,0.59375 -2.875,0.59375 z m -0.3906,-10.40625 q -1,0 -1.6406,0.6875 -0.625,0.67188 -0.7969,1.9375 h 4.7188 v -0.26562 q -0.031,-1.125 -0.625,-1.73438 -0.5782,-0.625 -1.6563,-0.625 z"
       id="path63"
       inkscape:connector-curvature="0"
       style="fill:#666666;fill-rule:nonzero" />
    <path
       d="m 1038.8188,670.69586 q 0.5625,-4.1875 2.5,-7.48437 1.9375,-3.29688 4.8594,-4.59375 l 0.5625,1.875 q -4,3.0625 -5.0625,9.84375 -0.375,2.29687 -0.3906,4.125 -0.062,4.8125 2.2031,6.6875 l -0.7344,1.76562 q -2.5312,-1.40625 -3.5469,-4.85937 -0.6718,-2.32813 -0.5937,-4.96875 0.016,-1.10938 0.1562,-2.10938 z m 12.1602,-5.79687 -0.2657,1.4375 q 1.5313,-1.71875 3.7032,-1.67188 1.1718,0.0312 1.9375,0.54688 0.7812,0.51562 1.0625,1.39062 1.6718,-1.98437 3.9375,-1.9375 1.7343,0.0469 2.625,1.20313 0.8906,1.15625 0.75,3.34375 l -0.031,0.29687 -1.3437,8.07813 h -3.3125 l 1.3437,-8.09375 q 0.047,-0.4375 0.031,-0.8125 -0.078,-1.23438 -1.4063,-1.26563 -1.3594,0 -2.3281,1.45313 l -0.031,0.26562 -1.4843,8.45313 h -3.2969 l 1.3437,-8.07813 q 0.047,-0.4375 0.031,-0.8125 -0.078,-1.23437 -1.3906,-1.26562 -1.25,-0.0469 -2.2657,1.17187 l -1.5781,8.98438 h -3.3125 l 2.2031,-12.6875 z m 22.3359,12.6875 q -0.1563,-0.48438 -0.125,-1.15625 -1.4375,1.4375 -3.2344,1.39062 -1.6719,-0.0156 -2.7656,-1.07812 -1.0938,-1.0625 -1.0313,-2.625 0.094,-2.07813 1.75,-3.1875 1.6563,-1.10938 4.4375,-1.10938 l 1.5469,0.0312 0.1719,-0.76562 q 0.062,-0.39063 0.031,-0.73438 -0.062,-0.54687 -0.4218,-0.85937 -0.3438,-0.3125 -0.9375,-0.32813 -0.7657,-0.0156 -1.3125,0.39063 -0.5313,0.39062 -0.6875,1.15625 l -3.3125,0.0156 q 0.078,-1.8125 1.6562,-2.9375 1.5938,-1.14062 3.9219,-1.125 2.1562,0.0469 3.375,1.29688 1.2187,1.23437 1.0312,3.17187 l -0.9843,6.07813 -0.047,0.75 q -0.031,0.82812 0.1875,1.40625 v 0.21875 z m -2.5469,-2.32813 q 1.4375,0.0469 2.5,-1.25 l 0.4063,-2.1875 -1.1407,-0.0156 q -1.8281,0.0469 -2.6406,1.10937 -0.2969,0.39063 -0.3594,0.95313 -0.094,0.64062 0.25,1.01562 0.3594,0.35938 0.9844,0.375 z m 14.5039,-13.46875 -0.5469,3.10938 h 2.1094 l -0.4375,2.48437 h -2.1094 l -1.0781,6.35938 q -0.062,0.59375 0.094,0.92187 0.1718,0.3125 0.7968,0.32813 0.1875,0.0156 1.0157,-0.0625 l -0.2344,2.59375 q -0.875,0.29687 -1.9063,0.28125 -1.625,-0.0312 -2.4218,-1.03125 -0.7969,-1 -0.6563,-2.6875 l 1.0938,-6.70313 h -1.7969 l 0.4375,-2.48437 h 1.7969 l 0.5312,-3.10938 z m 9.1367,14.48438 q -1.4062,1.57812 -3.5,1.54687 -1.8281,-0.0156 -2.7656,-1.3125 -0.9375,-1.29687 -0.7187,-3.40625 l 1.375,-8.20312 h 3.2968 l -1.3906,8.25 q -0.047,0.375 -0.016,0.71875 0.125,1.17187 1.2969,1.20312 1.5468,0.0469 2.5468,-1.17187 l 1.5782,-9 h 3.3281 l -2.2031,12.6875 h -3.0782 z m 13.9766,-8.1875 q -0.6719,-0.125 -1.1094,-0.125 -1.7656,-0.0469 -2.7968,1.32812 l -1.4688,8.29688 h -3.3125 l 2.2031,-12.6875 h 3.1094 l -0.2969,1.54687 q 1.1875,-1.79687 2.9532,-1.79687 0.4843,0 1.1406,0.15625 z m 5.7344,9.73437 q -1.6719,-0.0156 -2.9531,-0.8125 -1.2813,-0.8125 -1.9219,-2.20312 -0.625,-1.40625 -0.4844,-3.09375 l 0.031,-0.46875 q 0.1875,-1.84375 1.0781,-3.39063 0.9062,-1.54687 2.3281,-2.39062 1.4219,-0.84375 3.1406,-0.79688 2.4532,0.0469 3.7032,1.8125 1.2656,1.75 0.9531,4.42188 l -0.1875,1.45312 h -7.7656 q -0.047,1.21875 0.5937,1.96875 0.6563,0.73438 1.7656,0.75 1.7969,0.0469 3.1563,-1.39062 l 1.5156,1.875 q -0.7187,1.07812 -2.0625,1.6875 -1.3437,0.60937 -2.8906,0.57812 z m 1.0469,-10.42187 q -0.9063,-0.0156 -1.625,0.57812 -0.7032,0.59375 -1.2657,2.07813 h 4.5469 l 0.078,-0.3125 q 0.062,-0.46875 0,-0.89063 -0.1093,-0.67187 -0.5781,-1.04687 -0.4531,-0.39063 -1.1562,-0.40625 z m 4.9375,15.5625 -0.5625,-1.85938 q 4.0156,-3.10937 5.0781,-9.9375 0.3437,-2.1875 0.3594,-4.04687 0.062,-4.8125 -2.1719,-6.70313 l 0.7344,-1.76562 q 1.375,0.75 2.3593,2.1875 1,1.4375 1.4688,3.46875 0.4844,2.01562 0.4531,4.15625 -0.062,3.26562 -1.125,6.34375 -1.0469,3.07812 -2.75,5.15625 -1.7031,2.09375 -3.8437,3 z"
       id="path65"
       inkscape:connector-curvature="0"
       style="fill:#666666;fill-rule:nonzero" />
    <path
       d="m 1160.5154,697.32544 c 0.01,-2.83533 2.9252,-5.13385 6.514,-5.13385 h 89.7437 c 3.5889,0 6.5052,-2.29852 6.5139,-5.13385 v 0 c -0.01,2.83533 2.8937,5.13385 6.4825,5.13385 h 89.7437 v 0 c 3.5889,0 6.4912,2.29852 6.4825,5.13385 z"
       id="path67"
       inkscape:connector-curvature="0"
       style="fill:#000000;fill-opacity:0;fill-rule:evenodd" />
    <path
       d="m 1160.5154,697.32544 c 0.01,-2.83533 2.9252,-5.13385 6.514,-5.13385 h 89.7437 c 3.5889,0 6.5052,-2.29852 6.5139,-5.13385 v 0 c -0.01,2.83533 2.8937,5.13385 6.4825,5.13385 h 89.7437 v 0 c 3.5889,0 6.4912,2.29852 6.4825,5.13385"
       id="path69"
       inkscape:connector-curvature="0"
       style="fill:#000000;fill-opacity:0;fill-rule:evenodd" />
    <path
       d="m 1160.5154,697.32544 c 0.01,-2.83533 2.9252,-5.13385 6.514,-5.13385 h 89.7437 c 3.5889,0 6.5052,-2.29852 6.5139,-5.13385 v 0 c -0.01,2.83533 2.8937,5.13385 6.4825,5.13385 h 89.7437 v 0 c 3.5889,0 6.4912,2.29852 6.4825,5.13385"
       id="path71"
       inkscape:connector-curvature="0"
       style="fill-rule:evenodd;stroke:#595959;stroke-width:1;stroke-linecap:butt;stroke-linejoin:round" />
    <path
       d="m 1182.9624,631.33386 h 160.63 v 46.42523 h -160.63 z"
       id="path73"
       inkscape:connector-curvature="0"
       style="fill:#000000;fill-opacity:0;fill-rule:evenodd" />
    <path
       d="m 1247.5216,645.07086 h -6.1562 l -1.1719,3.51563 h -3.75 l 6.3594,-17.0625 h 3.25 l 6.3906,17.0625 h -3.7344 z m -5.2187,-2.84375 h 4.2656 l -2.1406,-6.39062 z m 15.0859,6.35938 h -3.3906 v -18 h 3.3906 z m 6.3633,0 h -3.3907 v -12.6875 h 3.3907 z m -3.5938,-15.96875 q 0,-0.75 0.5,-1.23438 0.5156,-0.5 1.3906,-0.5 0.875,0 1.3907,0.5 0.5156,0.48438 0.5156,1.23438 0,0.78125 -0.5313,1.28125 -0.5156,0.48437 -1.375,0.48437 -0.8437,0 -1.375,-0.48437 -0.5156,-0.5 -0.5156,-1.28125 z m 11.1289,11.82812 2.3594,-8.54687 h 3.5312 l -4.2656,12.6875 h -3.2344 l -4.2812,-12.6875 h 3.5312 z m 13.0703,4.375 q -2.7968,0 -4.5468,-1.70312 -1.75,-1.71875 -1.75,-4.5625 v -0.32813 q 0,-1.92187 0.7343,-3.42187 0.75,-1.5 2.0938,-2.3125 1.3594,-0.82813 3.0937,-0.82813 2.5938,0 4.0938,1.64063 1.5,1.64062 1.5,4.65625 v 1.39062 h -8.0781 q 0.1562,1.23438 0.9843,1.98438 0.8282,0.75 2.0938,0.75 1.9531,0 3.0625,-1.42188 l 1.6562,1.875 q -0.75,1.07813 -2.0625,1.6875 -1.2968,0.59375 -2.875,0.59375 z m -0.3906,-10.40625 q -1,0 -1.6406,0.6875 -0.625,0.67188 -0.7969,1.9375 h 4.7188 v -0.26562 q -0.031,-1.125 -0.625,-1.73438 -0.5782,-0.625 -1.6563,-0.625 z"
       id="path75"
       inkscape:connector-curvature="0"
       style="fill:#666666;fill-rule:nonzero" />
    <path
       d="m 1213.9318,670.69586 q 0.5625,-4.1875 2.5,-7.48437 1.9375,-3.29688 4.8594,-4.59375 l 0.5625,1.875 q -4,3.0625 -5.0625,9.84375 -0.375,2.29687 -0.3906,4.125 -0.062,4.8125 2.2031,6.6875 l -0.7344,1.76562 q -2.5312,-1.40625 -3.5469,-4.85937 -0.6718,-2.32813 -0.5937,-4.96875 0.016,-1.10938 0.1562,-2.10938 z m 7.5195,0.53125 q 0.3438,-2.9375 1.9063,-4.76562 1.5781,-1.84375 3.9531,-1.79688 2.0313,0.0469 3.0156,1.45313 l 0.4375,-1.21875 h 3.0313 l -2.0625,12.25 q -0.3438,2.53125 -2.1719,4 -1.8125,1.48437 -4.4844,1.4375 -1.3125,-0.0156 -2.5156,-0.5625 -1.1875,-0.54688 -1.9687,-1.5 l 1.6406,-2.01563 q 1.1094,1.40625 2.7656,1.45313 1.2969,0.0469 2.2031,-0.6875 0.9219,-0.71875 1.25,-2.03125 l 0.1875,-0.76563 q -1.3906,1.39063 -3.1093,1.34375 -1.8594,-0.0156 -2.9532,-1.375 -1.0781,-1.35937 -1.1875,-3.53125 -0.031,-0.70312 0.062,-1.6875 z m 3.25,1.39063 q 0,1.09375 0.4532,1.76562 0.4687,0.65625 1.3437,0.6875 1.3438,0.0469 2.3906,-1.14062 l 0.9844,-5.375 q -0.5,-1.09375 -1.8594,-1.14063 -1.2656,-0.0312 -2.1562,1.03125 -0.875,1.04688 -1.0938,2.78125 -0.078,0.85938 -0.062,1.39063 z m 18.2032,-4.53125 q -0.6719,-0.125 -1.1094,-0.125 -1.7656,-0.0469 -2.7969,1.32812 l -1.4687,8.29688 h -3.3125 l 2.2031,-12.6875 h 3.1094 l -0.2969,1.54687 q 1.1875,-1.79687 2.9531,-1.79687 0.4844,0 1.1406,0.15625 z m 6.7695,-3.42188 q 1.6719,0.0312 2.875,0.875 1.2187,0.82813 1.7812,2.29688 0.5782,1.46875 0.4063,3.26562 -0.2656,3.03125 -2.1094,4.90625 -1.8281,1.85938 -4.5156,1.8125 -1.6563,-0.0156 -2.8594,-0.84375 -1.2031,-0.82812 -1.7812,-2.29687 -0.5782,-1.46875 -0.4063,-3.23438 0.2969,-3.14062 2.125,-4.98437 1.8281,-1.85938 4.4844,-1.79688 z m -3.3438,7.98438 q 0.016,1.125 0.5157,1.78125 0.5156,0.64062 1.4218,0.67187 1.5313,0.0469 2.3907,-1.39062 0.875,-1.45313 0.8125,-3.8125 -0.047,-1.125 -0.5469,-1.79688 -0.5,-0.67187 -1.4219,-0.70312 -1.4687,-0.0469 -2.3594,1.39062 -0.8906,1.4375 -0.8125,3.85938 z m 20.8086,0.3125 3.0157,-8.0625 h 3.2968 l -5.3437,12.6875 h -2.7656 l -0.9375,-7.9375 -3.7032,7.9375 h -2.7656 l -0.9375,-12.6875 h 3.0938 l 0.2031,7.98437 3.625,-7.98437 h 2.3906 z m 9.2735,4.625 h -3.3282 l 2.2032,-12.6875 h 3.3281 z m -0.7344,-15.90625 q -0.031,-0.78125 0.5,-1.29688 0.5469,-0.51562 1.3125,-0.51562 0.75,-0.0312 1.2969,0.45312 0.5468,0.48438 0.5781,1.25 0.016,0.71875 -0.5,1.26563 -0.5,0.53125 -1.3125,0.5625 -0.75,0.0156 -1.3125,-0.45313 -0.5469,-0.46875 -0.5625,-1.26562 z m 8.7617,3.21875 -0.2812,1.5 q 1.5156,-1.78125 3.6875,-1.73438 1.7968,0.0469 2.6406,1.32813 0.8594,1.26562 0.625,3.53125 l -1.3281,8.0625 h -3.3125 l 1.3593,-8.09375 q 0.062,-0.46875 0.031,-0.84375 -0.1563,-1.1875 -1.5,-1.21875 -1.2969,-0.0469 -2.3281,1.20312 l -1.5938,8.95313 h -3.2969 l 2.2032,-12.6875 z m 8.5664,6.32812 q 0.3438,-2.9375 1.9063,-4.76562 1.5781,-1.84375 3.9531,-1.79688 2.0312,0.0469 3.0156,1.45313 l 0.4375,-1.21875 h 3.0313 l -2.0625,12.25 q -0.3438,2.53125 -2.1719,4 -1.8125,1.48437 -4.4844,1.4375 -1.3125,-0.0156 -2.5156,-0.5625 -1.1875,-0.54688 -1.9688,-1.5 l 1.6407,-2.01563 q 1.1093,1.40625 2.7656,1.45313 1.2969,0.0469 2.2031,-0.6875 0.9219,-0.71875 1.25,-2.03125 l 0.1875,-0.76563 q -1.3906,1.39063 -3.1094,1.34375 -1.8593,-0.0156 -2.9531,-1.375 -1.0781,-1.35937 -1.1875,-3.53125 -0.031,-0.70312 0.062,-1.6875 z m 3.25,1.39063 q 0,1.09375 0.4531,1.76562 0.4688,0.65625 1.3438,0.6875 1.3437,0.0469 2.3906,-1.14062 l 0.9844,-5.375 q -0.5,-1.09375 -1.8594,-1.14063 -1.2656,-0.0312 -2.1562,1.03125 -0.875,1.04688 -1.0938,2.78125 -0.078,0.85938 -0.062,1.39063 z m 8.8281,10.34375 -0.5625,-1.85938 q 4.0157,-3.10937 5.0782,-9.9375 0.3437,-2.1875 0.3593,-4.04687 0.062,-4.8125 -2.1718,-6.70313 l 0.7343,-1.76562 q 1.375,0.75 2.3594,2.1875 1,1.4375 1.4688,3.46875 0.4843,2.01562 0.4531,4.15625 -0.062,3.26562 -1.125,6.34375 -1.0469,3.07812 -2.75,5.15625 -1.7031,2.09375 -3.8438,3 z"
       id="path77"
       inkscape:connector-curvature="0"
       style="fill:#666666;fill-rule:nonzero" />
    <path
       d="m 1560.9291,697.32544 c 0.01,-2.83533 2.9252,-5.13385 6.514,-5.13385 h 34.1531 c 3.5889,0 6.5054,-2.29852 6.5141,-5.13385 v 0 c -0.01,2.83533 2.8936,5.13385 6.4825,5.13385 h 34.1531 v 0 c 3.5888,0 6.4912,2.29852 6.4825,5.13385 z"
       id="path79"
       inkscape:connector-curvature="0"
       style="fill:#000000;fill-opacity:0;fill-rule:evenodd" />
    <path
       d="m 1560.9291,697.32544 c 0.01,-2.83533 2.9252,-5.13385 6.514,-5.13385 h 34.1531 c 3.5889,0 6.5054,-2.29852 6.5141,-5.13385 v 0 c -0.01,2.83533 2.8936,5.13385 6.4825,5.13385 h 34.1531 v 0 c 3.5888,0 6.4912,2.29852 6.4825,5.13385"
       id="path81"
       inkscape:connector-curvature="0"
       style="fill:#000000;fill-opacity:0;fill-rule:evenodd" />
    <path
       d="m 1560.9291,697.32544 c 0.01,-2.83533 2.9252,-5.13385 6.514,-5.13385 h 34.1531 c 3.5889,0 6.5054,-2.29852 6.5141,-5.13385 v 0 c -0.01,2.83533 2.8936,5.13385 6.4825,5.13385 h 34.1531 v 0 c 3.5888,0 6.4912,2.29852 6.4825,5.13385"
       id="path83"
       inkscape:connector-curvature="0"
       style="fill-rule:evenodd;stroke:#595959;stroke-width:1;stroke-linecap:butt;stroke-linejoin:round" />
    <path
       d="m 1527.7848,631.33386 h 160.6299 v 46.42523 h -160.6299 z"
       id="path85"
       inkscape:connector-curvature="0"
       style="fill:#000000;fill-opacity:0;fill-rule:evenodd" />
    <path
       d="m 1592.3439,645.07086 h -6.1562 l -1.1719,3.51563 h -3.75 l 6.3594,-17.0625 h 3.25 l 6.3906,17.0625 h -3.7344 z m -5.2187,-2.84375 h 4.2656 l -2.1406,-6.39062 z m 15.0859,6.35938 h -3.3906 v -18 h 3.3906 z m 6.3633,0 h -3.3907 v -12.6875 h 3.3907 z m -3.5938,-15.96875 q 0,-0.75 0.5,-1.23438 0.5156,-0.5 1.3906,-0.5 0.875,0 1.3907,0.5 0.5156,0.48438 0.5156,1.23438 0,0.78125 -0.5313,1.28125 -0.5156,0.48437 -1.375,0.48437 -0.8437,0 -1.375,-0.48437 -0.5156,-0.5 -0.5156,-1.28125 z m 11.1289,11.82812 2.3594,-8.54687 h 3.5312 l -4.2656,12.6875 h -3.2344 l -4.2812,-12.6875 h 3.5312 z m 13.0703,4.375 q -2.7968,0 -4.5468,-1.70312 -1.75,-1.71875 -1.75,-4.5625 v -0.32813 q 0,-1.92187 0.7343,-3.42187 0.75,-1.5 2.0938,-2.3125 1.3594,-0.82813 3.0937,-0.82813 2.5938,0 4.0938,1.64063 1.5,1.64062 1.5,4.65625 v 1.39062 h -8.0781 q 0.1562,1.23438 0.9843,1.98438 0.8282,0.75 2.0938,0.75 1.9531,0 3.0625,-1.42188 l 1.6562,1.875 q -0.75,1.07813 -2.0625,1.6875 -1.2968,0.59375 -2.875,0.59375 z m -0.3906,-10.40625 q -1,0 -1.6406,0.6875 -0.625,0.67188 -0.7969,1.9375 h 4.7188 v -0.26562 q -0.031,-1.125 -0.625,-1.73438 -0.5782,-0.625 -1.6563,-0.625 z"
       id="path87"
       inkscape:connector-curvature="0"
       style="fill:#666666;fill-rule:nonzero" />
    <path
       d="m 1563.6876,670.69586 q 0.5625,-4.1875 2.5,-7.48437 1.9375,-3.29688 4.8594,-4.59375 l 0.5625,1.875 q -4,3.0625 -5.0625,9.84375 -0.375,2.29687 -0.3906,4.125 -0.062,4.8125 2.2031,6.6875 l -0.7344,1.76562 q -2.5312,-1.40625 -3.5469,-4.85937 -0.6718,-2.32813 -0.5937,-4.96875 0.016,-1.10938 0.1562,-2.10938 z m 12.1602,-5.79687 -0.2657,1.4375 q 1.5313,-1.71875 3.7032,-1.67188 1.1718,0.0312 1.9375,0.54688 0.7812,0.51562 1.0625,1.39062 1.6718,-1.98437 3.9375,-1.9375 1.7343,0.0469 2.625,1.20313 0.8906,1.15625 0.75,3.34375 l -0.031,0.29687 -1.3437,8.07813 h -3.3125 l 1.3437,-8.09375 q 0.047,-0.4375 0.031,-0.8125 -0.078,-1.23438 -1.4063,-1.26563 -1.3594,0 -2.3281,1.45313 l -0.031,0.26562 -1.4843,8.45313 h -3.2969 l 1.3437,-8.07813 q 0.047,-0.4375 0.031,-0.8125 -0.078,-1.23437 -1.3906,-1.26562 -1.25,-0.0469 -2.2657,1.17187 l -1.5781,8.98438 h -3.3125 l 2.2031,-12.6875 z m 22.3359,12.6875 q -0.1563,-0.48438 -0.125,-1.15625 -1.4375,1.4375 -3.2344,1.39062 -1.6719,-0.0156 -2.7656,-1.07812 -1.0938,-1.0625 -1.0313,-2.625 0.094,-2.07813 1.75,-3.1875 1.6563,-1.10938 4.4375,-1.10938 l 1.5469,0.0312 0.1719,-0.76562 q 0.062,-0.39063 0.031,-0.73438 -0.062,-0.54687 -0.4218,-0.85937 -0.3438,-0.3125 -0.9375,-0.32813 -0.7657,-0.0156 -1.3125,0.39063 -0.5313,0.39062 -0.6875,1.15625 l -3.3125,0.0156 q 0.078,-1.8125 1.6562,-2.9375 1.5938,-1.14062 3.9219,-1.125 2.1562,0.0469 3.375,1.29688 1.2187,1.23437 1.0312,3.17187 l -0.9843,6.07813 -0.047,0.75 q -0.031,0.82812 0.1875,1.40625 v 0.21875 z m -2.5469,-2.32813 q 1.4375,0.0469 2.5,-1.25 l 0.4063,-2.1875 -1.1407,-0.0156 q -1.8281,0.0469 -2.6406,1.10937 -0.2969,0.39063 -0.3594,0.95313 -0.094,0.64062 0.25,1.01562 0.3594,0.35938 0.9844,0.375 z m 14.5039,-13.46875 -0.5469,3.10938 h 2.1094 l -0.4375,2.48437 h -2.1094 l -1.0781,6.35938 q -0.062,0.59375 0.094,0.92187 0.1718,0.3125 0.7968,0.32813 0.1875,0.0156 1.0157,-0.0625 l -0.2344,2.59375 q -0.875,0.29687 -1.9063,0.28125 -1.625,-0.0312 -2.4218,-1.03125 -0.7969,-1 -0.6563,-2.6875 l 1.0938,-6.70313 h -1.7969 l 0.4375,-2.48437 h 1.7969 l 0.5312,-3.10938 z m 9.1367,14.48438 q -1.4062,1.57812 -3.5,1.54687 -1.8281,-0.0156 -2.7656,-1.3125 -0.9375,-1.29687 -0.7187,-3.40625 l 1.375,-8.20312 h 3.2968 l -1.3906,8.25 q -0.047,0.375 -0.016,0.71875 0.125,1.17187 1.2969,1.20312 1.5468,0.0469 2.5468,-1.17187 l 1.5782,-9 h 3.3281 l -2.2031,12.6875 h -3.0782 z m 13.9766,-8.1875 q -0.6719,-0.125 -1.1094,-0.125 -1.7656,-0.0469 -2.7968,1.32812 l -1.4688,8.29688 h -3.3125 l 2.2031,-12.6875 h 3.1094 l -0.2969,1.54687 q 1.1875,-1.79687 2.9532,-1.79687 0.4843,0 1.1406,0.15625 z m 5.7344,9.73437 q -1.6719,-0.0156 -2.9531,-0.8125 -1.2813,-0.8125 -1.9219,-2.20312 -0.625,-1.40625 -0.4844,-3.09375 l 0.031,-0.46875 q 0.1875,-1.84375 1.0781,-3.39063 0.9062,-1.54687 2.3281,-2.39062 1.4219,-0.84375 3.1406,-0.79688 2.4532,0.0469 3.7032,1.8125 1.2656,1.75 0.9531,4.42188 l -0.1875,1.45312 h -7.7656 q -0.047,1.21875 0.5937,1.96875 0.6563,0.73438 1.7656,0.75 1.7969,0.0469 3.1563,-1.39062 l 1.5156,1.875 q -0.7187,1.07812 -2.0625,1.6875 -1.3437,0.60937 -2.8906,0.57812 z m 1.0469,-10.42187 q -0.9063,-0.0156 -1.625,0.57812 -0.7032,0.59375 -1.2657,2.07813 h 4.5469 l 0.078,-0.3125 q 0.062,-0.46875 0,-0.89063 -0.1093,-0.67187 -0.5781,-1.04687 -0.4531,-0.39063 -1.1562,-0.40625 z m 4.9375,15.5625 -0.5625,-1.85938 q 4.0156,-3.10937 5.0781,-9.9375 0.3437,-2.1875 0.3594,-4.04687 0.062,-4.8125 -2.1719,-6.70313 l 0.7344,-1.76562 q 1.375,0.75 2.3593,2.1875 1,1.4375 1.4688,3.46875 0.4844,2.01562 0.4531,4.15625 -0.062,3.26562 -1.125,6.34375 -1.0469,3.07812 -2.75,5.15625 -1.7031,2.09375 -3.8437,3 z"
       id="path89"
       inkscape:connector-curvature="0"
       style="fill:#666666;fill-rule:nonzero" />
    <path
       d="m 1680.9291,697.32544 c 0.01,-2.83533 2.9252,-5.13385 6.514,-5.13385 h 34.1531 c 3.5889,0 6.5054,-2.29852 6.5141,-5.13385 v 0 c -0.01,2.83533 2.8936,5.13385 6.4825,5.13385 h 34.1531 v 0 c 3.5888,0 6.4912,2.29852 6.4825,5.13385 z"
       id="path91"
       inkscape:connector-curvature="0"
       style="fill:#000000;fill-opacity:0;fill-rule:evenodd" />
    <path
       d="m 1680.9291,697.32544 c 0.01,-2.83533 2.9252,-5.13385 6.514,-5.13385 h 34.1531 c 3.5889,0 6.5054,-2.29852 6.5141,-5.13385 v 0 c -0.01,2.83533 2.8936,5.13385 6.4825,5.13385 h 34.1531 v 0 c 3.5888,0 6.4912,2.29852 6.4825,5.13385"
       id="path93"
       inkscape:connector-curvature="0"
       style="fill:#000000;fill-opacity:0;fill-rule:evenodd" />
    <path
       d="m 1680.9291,697.32544 c 0.01,-2.83533 2.9252,-5.13385 6.514,-5.13385 h 34.1531 c 3.5889,0 6.5054,-2.29852 6.5141,-5.13385 v 0 c -0.01,2.83533 2.8936,5.13385 6.4825,5.13385 h 34.1531 v 0 c 3.5888,0 6.4912,2.29852 6.4825,5.13385"
       id="path95"
       inkscape:connector-curvature="0"
       style="fill-rule:evenodd;stroke:#595959;stroke-width:1;stroke-linecap:butt;stroke-linejoin:round" />
    <path
       d="m 1647.7848,631.33386 h 160.6299 v 46.42523 h -160.6299 z"
       id="path97"
       inkscape:connector-curvature="0"
       style="fill:#000000;fill-opacity:0;fill-rule:evenodd" />
    <path
       d="m 1712.3439,645.07086 h -6.1562 l -1.1719,3.51563 h -3.75 l 6.3594,-17.0625 h 3.25 l 6.3906,17.0625 h -3.7344 z m -5.2187,-2.84375 h 4.2656 l -2.1406,-6.39062 z m 15.0859,6.35938 h -3.3906 v -18 h 3.3906 z m 6.3633,0 h -3.3907 v -12.6875 h 3.3907 z m -3.5938,-15.96875 q 0,-0.75 0.5,-1.23438 0.5156,-0.5 1.3906,-0.5 0.875,0 1.3907,0.5 0.5156,0.48438 0.5156,1.23438 0,0.78125 -0.5313,1.28125 -0.5156,0.48437 -1.375,0.48437 -0.8437,0 -1.375,-0.48437 -0.5156,-0.5 -0.5156,-1.28125 z m 11.1289,11.82812 2.3594,-8.54687 h 3.5312 l -4.2656,12.6875 h -3.2344 l -4.2812,-12.6875 h 3.5312 z m 13.0703,4.375 q -2.7968,0 -4.5468,-1.70312 -1.75,-1.71875 -1.75,-4.5625 v -0.32813 q 0,-1.92187 0.7343,-3.42187 0.75,-1.5 2.0938,-2.3125 1.3594,-0.82813 3.0937,-0.82813 2.5938,0 4.0938,1.64063 1.5,1.64062 1.5,4.65625 v 1.39062 h -8.0781 q 0.1562,1.23438 0.9843,1.98438 0.8282,0.75 2.0938,0.75 1.9531,0 3.0625,-1.42188 l 1.6562,1.875 q -0.75,1.07813 -2.0625,1.6875 -1.2968,0.59375 -2.875,0.59375 z m -0.3906,-10.40625 q -1,0 -1.6406,0.6875 -0.625,0.67188 -0.7969,1.9375 h 4.7188 v -0.26562 q -0.031,-1.125 -0.625,-1.73438 -0.5782,-0.625 -1.6563,-0.625 z"
       id="path99"
       inkscape:connector-curvature="0"
       style="fill:#666666;fill-rule:nonzero" />
    <path
       d="m 1678.754,670.69586 q 0.5625,-4.1875 2.5,-7.48437 1.9375,-3.29688 4.8594,-4.59375 l 0.5625,1.875 q -4,3.0625 -5.0625,9.84375 -0.375,2.29687 -0.3906,4.125 -0.062,4.8125 2.2031,6.6875 l -0.7344,1.76562 q -2.5312,-1.40625 -3.5469,-4.85937 -0.6718,-2.32813 -0.5937,-4.96875 0.016,-1.10938 0.1562,-2.10938 z m 7.5195,0.53125 q 0.3438,-2.9375 1.9063,-4.76562 1.5781,-1.84375 3.9531,-1.79688 2.0313,0.0469 3.0156,1.45313 l 0.4375,-1.21875 h 3.0313 l -2.0625,12.25 q -0.3438,2.53125 -2.1719,4 -1.8125,1.48437 -4.4844,1.4375 -1.3125,-0.0156 -2.5156,-0.5625 -1.1875,-0.54688 -1.9687,-1.5 l 1.6406,-2.01563 q 1.1094,1.40625 2.7656,1.45313 1.2969,0.0469 2.2031,-0.6875 0.9219,-0.71875 1.25,-2.03125 l 0.1875,-0.76563 q -1.3906,1.39063 -3.1093,1.34375 -1.8594,-0.0156 -2.9532,-1.375 -1.0781,-1.35937 -1.1875,-3.53125 -0.031,-0.70312 0.062,-1.6875 z m 3.25,1.39063 q 0,1.09375 0.4532,1.76562 0.4687,0.65625 1.3437,0.6875 1.3438,0.0469 2.3906,-1.14062 l 0.9844,-5.375 q -0.5,-1.09375 -1.8594,-1.14063 -1.2656,-0.0312 -2.1562,1.03125 -0.875,1.04688 -1.0938,2.78125 -0.078,0.85938 -0.062,1.39063 z m 18.2032,-4.53125 q -0.6719,-0.125 -1.1094,-0.125 -1.7656,-0.0469 -2.7969,1.32812 l -1.4687,8.29688 h -3.3125 l 2.2031,-12.6875 h 3.1094 l -0.2969,1.54687 q 1.1875,-1.79687 2.9531,-1.79687 0.4844,0 1.1406,0.15625 z m 6.7695,-3.42188 q 1.6719,0.0312 2.875,0.875 1.2187,0.82813 1.7812,2.29688 0.5782,1.46875 0.4063,3.26562 -0.2656,3.03125 -2.1094,4.90625 -1.8281,1.85938 -4.5156,1.8125 -1.6563,-0.0156 -2.8594,-0.84375 -1.2031,-0.82812 -1.7812,-2.29687 -0.5782,-1.46875 -0.4063,-3.23438 0.2969,-3.14062 2.125,-4.98437 1.8281,-1.85938 4.4844,-1.79688 z m -3.3438,7.98438 q 0.016,1.125 0.5157,1.78125 0.5156,0.64062 1.4218,0.67187 1.5313,0.0469 2.3907,-1.39062 0.875,-1.45313 0.8125,-3.8125 -0.047,-1.125 -0.5469,-1.79688 -0.5,-0.67187 -1.4219,-0.70312 -1.4687,-0.0469 -2.3594,1.39062 -0.8906,1.4375 -0.8125,3.85938 z m 20.8086,0.3125 3.0157,-8.0625 h 3.2968 l -5.3437,12.6875 h -2.7656 l -0.9375,-7.9375 -3.7032,7.9375 h -2.7656 l -0.9375,-12.6875 h 3.0938 l 0.2031,7.98437 3.625,-7.98437 h 2.3906 z m 9.2735,4.625 h -3.3282 l 2.2032,-12.6875 h 3.3281 z m -0.7344,-15.90625 q -0.031,-0.78125 0.5,-1.29688 0.5469,-0.51562 1.3125,-0.51562 0.75,-0.0312 1.2969,0.45312 0.5468,0.48438 0.5781,1.25 0.016,0.71875 -0.5,1.26563 -0.5,0.53125 -1.3125,0.5625 -0.75,0.0156 -1.3125,-0.45313 -0.5469,-0.46875 -0.5625,-1.26562 z m 8.7617,3.21875 -0.2812,1.5 q 1.5156,-1.78125 3.6875,-1.73438 1.7968,0.0469 2.6406,1.32813 0.8594,1.26562 0.625,3.53125 l -1.3281,8.0625 h -3.3125 l 1.3593,-8.09375 q 0.062,-0.46875 0.031,-0.84375 -0.1563,-1.1875 -1.5,-1.21875 -1.2969,-0.0469 -2.3281,1.20312 l -1.5938,8.95313 h -3.2969 l 2.2032,-12.6875 z m 8.5664,6.32812 q 0.3438,-2.9375 1.9063,-4.76562 1.5781,-1.84375 3.9531,-1.79688 2.0312,0.0469 3.0156,1.45313 l 0.4375,-1.21875 h 3.0313 l -2.0625,12.25 q -0.3438,2.53125 -2.1719,4 -1.8125,1.48437 -4.4844,1.4375 -1.3125,-0.0156 -2.5156,-0.5625 -1.1875,-0.54688 -1.9688,-1.5 l 1.6407,-2.01563 q 1.1093,1.40625 2.7656,1.45313 1.2969,0.0469 2.2031,-0.6875 0.9219,-0.71875 1.25,-2.03125 l 0.1875,-0.76563 q -1.3906,1.39063 -3.1094,1.34375 -1.8593,-0.0156 -2.9531,-1.375 -1.0781,-1.35937 -1.1875,-3.53125 -0.031,-0.70312 0.062,-1.6875 z m 3.25,1.39063 q 0,1.09375 0.4531,1.76562 0.4688,0.65625 1.3438,0.6875 1.3437,0.0469 2.3906,-1.14062 l 0.9844,-5.375 q -0.5,-1.09375 -1.8594,-1.14063 -1.2656,-0.0312 -2.1562,1.03125 -0.875,1.04688 -1.0938,2.78125 -0.078,0.85938 -0.062,1.39063 z m 8.8281,10.34375 -0.5625,-1.85938 q 4.0157,-3.10937 5.0782,-9.9375 0.3437,-2.1875 0.3593,-4.04687 0.062,-4.8125 -2.1718,-6.70313 l 0.7343,-1.76562 q 1.375,0.75 2.3594,2.1875 1,1.4375 1.4688,3.46875 0.4843,2.01562 0.4531,4.15625 -0.062,3.26562 -1.125,6.34375 -1.0469,3.07812 -2.75,5.15625 -1.7031,2.09375 -3.8438,3 z"
       id="path101"
       inkscape:connector-curvature="0"
       style="fill:#666666;fill-rule:nonzero" />
    <path
       d="m 1800.9291,697.32544 c 0.01,-2.83533 2.9252,-5.13385 6.514,-5.13385 h 34.1531 c 3.5889,0 6.5054,-2.29852 6.5141,-5.13385 v 0 c -0.01,2.83533 2.8936,5.13385 6.4825,5.13385 h 34.1531 v 0 c 3.5888,0 6.4912,2.29852 6.4825,5.13385 z"
       id="path103"
       inkscape:connector-curvature="0"
       style="fill:#000000;fill-opacity:0;fill-rule:evenodd" />
    <path
       d="m 1800.9291,697.32544 c 0.01,-2.83533 2.9252,-5.13385 6.514,-5.13385 h 34.1531 c 3.5889,0 6.5054,-2.29852 6.5141,-5.13385 v 0 c -0.01,2.83533 2.8936,5.13385 6.4825,5.13385 h 34.1531 v 0 c 3.5888,0 6.4912,2.29852 6.4825,5.13385"
       id="path105"
       inkscape:connector-curvature="0"
       style="fill:#000000;fill-opacity:0;fill-rule:evenodd" />
    <path
       d="m 1800.9291,697.32544 c 0.01,-2.83533 2.9252,-5.13385 6.514,-5.13385 h 34.1531 c 3.5889,0 6.5054,-2.29852 6.5141,-5.13385 v 0 c -0.01,2.83533 2.8936,5.13385 6.4825,5.13385 h 34.1531 v 0 c 3.5888,0 6.4912,2.29852 6.4825,5.13385"
       id="path107"
       inkscape:connector-curvature="0"
       style="fill-rule:evenodd;stroke:#595959;stroke-width:1;stroke-linecap:butt;stroke-linejoin:round" />
    <path
       d="m 1767.7848,631.33386 h 160.6299 v 46.42523 h -160.6299 z"
       id="path109"
       inkscape:connector-curvature="0"
       style="fill:#000000;fill-opacity:0;fill-rule:evenodd" />
    <path
       d="M 1822.1505,663.0865 V 646.024 h 5.25 q 2.25,0 4.0156,1.01562 1.7813,1.01563 2.7657,2.89063 1,1.85937 1,4.23437 v 0.78125 q 0,2.39063 -0.9844,4.25 -0.9688,1.84375 -2.75,2.85938 -1.7813,1.01562 -4.0156,1.03125 z m 3.5156,-14.21875 v 11.39062 h 1.6875 q 2.0625,0 3.1563,-1.34375 1.0937,-1.34375 1.1094,-3.85937 V 654.149 q 0,-2.59375 -1.0782,-3.9375 -1.0781,-1.34375 -3.1406,-1.34375 z m 17.6914,14.45312 q -2.7968,0 -4.5468,-1.70312 -1.75,-1.71875 -1.75,-4.5625 v -0.32813 q 0,-1.92187 0.7343,-3.42187 0.75,-1.5 2.0938,-2.3125 1.3594,-0.82813 3.0937,-0.82813 2.5938,0 4.0938,1.64063 1.5,1.64062 1.5,4.65625 v 1.39062 h -8.0781 q 0.1562,1.23438 0.9843,1.98438 0.8282,0.75 2.0938,0.75 1.9531,0 3.0625,-1.42188 l 1.6562,1.875 q -0.75,1.07813 -2.0625,1.6875 -1.2968,0.59375 -2.875,0.59375 z m -0.3906,-10.40625 q -1,0 -1.6406,0.6875 -0.625,0.67188 -0.7969,1.9375 h 4.7188 V 655.274 q -0.031,-1.125 -0.625,-1.73438 -0.5782,-0.625 -1.6563,-0.625 z m 14.8789,10.17188 q -0.2344,-0.45313 -0.3437,-1.14063 -1.2344,1.375 -3.2032,1.375 -1.8593,0 -3.0937,-1.07812 -1.2188,-1.07813 -1.2188,-2.71875 0,-2.01563 1.4844,-3.09375 1.5,-1.07813 4.3281,-1.09375 h 1.5625 v -0.71875 q 0,-0.89063 -0.4531,-1.40625 -0.4531,-0.53125 -1.4219,-0.53125 -0.8593,0 -1.3437,0.40625 -0.4844,0.40625 -0.4844,1.125 h -3.3906 q 0,-1.09375 0.6719,-2.03125 0.6875,-0.9375 1.9218,-1.46875 1.25,-0.54688 2.7969,-0.54688 2.3438,0 3.7188,1.1875 1.375,1.17188 1.375,3.3125 v 5.48438 q 0.016,1.8125 0.5156,2.73437 v 0.20313 z m -2.8125,-2.35938 q 0.75,0 1.375,-0.32812 0.6406,-0.34375 0.9531,-0.90625 v -2.17188 h -1.2656 q -2.5469,0 -2.7031,1.75 l -0.016,0.20313 q 0,0.64062 0.4375,1.04687 0.4531,0.40625 1.2187,0.40625 z m 7.8047,-4.07812 q 0,-2.96875 1.3281,-4.71875 1.3281,-1.76563 3.6406,-1.76563 1.8438,0 3.0469,1.39063 v -6.46875 h 3.4063 v 18 h -3.0625 l -0.1563,-1.34375 q -1.2656,1.57812 -3.2656,1.57812 -2.2344,0 -3.5938,-1.76562 -1.3437,-1.76563 -1.3437,-4.90625 z m 3.375,0.25 q 0,1.78125 0.625,2.73437 0.625,0.9375 1.8125,0.9375 1.5625,0 2.2031,-1.3125 v -5.01562 q -0.625,-1.3125 -2.1875,-1.3125 -2.4531,0 -2.4531,3.96875 z"
       id="path111"
       inkscape:connector-curvature="0"
       style="fill:#666666;fill-rule:nonzero" />
    <path
       d="m 1308.1837,548.021 h 314.9607 v 55.81103 h -314.9607 z"
       id="path113"
       inkscape:connector-curvature="0"
       style="fill:#000000;fill-opacity:0;fill-rule:evenodd" />
    <path
       d="m 1400.6426,576.54535 h -6.1562 l -1.1719,3.51562 h -3.75 l 6.3594,-17.0625 h 3.25 l 6.3906,17.0625 h -3.7344 z m -5.2187,-2.84375 h 4.2656 l -2.1406,-6.39063 z m 15.0859,6.35937 h -3.3906 v -18 h 3.3906 z m 6.3633,0 h -3.3907 v -12.6875 h 3.3907 z m -3.5938,-15.96875 q 0,-0.75 0.5,-1.23437 0.5156,-0.5 1.3906,-0.5 0.875,0 1.3907,0.5 0.5156,0.48437 0.5156,1.23437 0,0.78125 -0.5313,1.28125 -0.5156,0.48438 -1.375,0.48438 -0.8437,0 -1.375,-0.48438 -0.5156,-0.5 -0.5156,-1.28125 z m 11.1289,11.82813 2.3594,-8.54688 h 3.5312 l -4.2656,12.6875 h -3.2344 l -4.2812,-12.6875 h 3.5312 z m 13.0703,4.375 q -2.7968,0 -4.5468,-1.70313 -1.75,-1.71875 -1.75,-4.5625 v -0.32812 q 0,-1.92188 0.7343,-3.42188 0.75,-1.5 2.0938,-2.3125 1.3594,-0.82812 3.0937,-0.82812 2.5938,0 4.0938,1.64062 1.5,1.64063 1.5,4.65625 v 1.39063 h -8.0781 q 0.1562,1.23437 0.9843,1.98437 0.8282,0.75 2.0938,0.75 1.9531,0 3.0625,-1.42187 l 1.6562,1.875 q -0.75,1.07812 -2.0625,1.6875 -1.2968,0.59375 -2.875,0.59375 z m -0.3906,-10.40625 q -1,0 -1.6406,0.6875 -0.625,0.67187 -0.7969,1.9375 h 4.7188 v -0.26563 q -0.031,-1.125 -0.625,-1.73437 -0.5782,-0.625 -1.6563,-0.625 z m 18.3242,-6.89063 4.375,12.375 4.3594,-12.375 h 4.625 v 17.0625 h -3.5312 v -4.67187 l 0.3437,-8.04688 -4.5937,12.71875 h -2.4219 l -4.5938,-12.70312 0.3594,8.03125 v 4.67187 h -3.5156 v -17.0625 z m 23.5547,17.0625 q -0.2344,-0.45312 -0.3437,-1.14062 -1.2344,1.375 -3.2032,1.375 -1.8593,0 -3.0937,-1.07813 -1.2188,-1.07812 -1.2188,-2.71875 0,-2.01562 1.4844,-3.09375 1.5,-1.07812 4.3281,-1.09375 h 1.5625 v -0.71875 q 0,-0.89062 -0.4531,-1.40625 -0.4531,-0.53125 -1.4219,-0.53125 -0.8593,0 -1.3437,0.40625 -0.4844,0.40625 -0.4844,1.125 h -3.3906 q 0,-1.09375 0.6719,-2.03125 0.6875,-0.9375 1.9218,-1.46875 1.25,-0.54687 2.7969,-0.54687 2.3438,0 3.7188,1.1875 1.375,1.17187 1.375,3.3125 v 5.48437 q 0.016,1.8125 0.5156,2.73438 v 0.20312 z m -2.8125,-2.35937 q 0.75,0 1.375,-0.32813 0.6406,-0.34375 0.9531,-0.90625 v -2.17187 h -1.2656 q -2.5469,0 -2.7031,1.75 l -0.016,0.20312 q 0,0.64063 0.4375,1.04688 0.4531,0.40625 1.2187,0.40625 z m 15.1953,-1.14063 q 0,-0.625 -0.625,-0.98437 -0.6093,-0.35938 -1.9687,-0.64063 -4.5156,-0.95312 -4.5156,-3.84375 0,-1.6875 1.3906,-2.8125 1.4062,-1.14062 3.6719,-1.14062 2.4062,0 3.8437,1.14062 1.4531,1.14063 1.4531,2.95313 h -3.375 q 0,-0.71875 -0.4687,-1.1875 -0.4688,-0.48438 -1.4688,-0.48438 -0.8593,0 -1.3281,0.39063 -0.4687,0.375 -0.4687,0.98437 0,0.5625 0.5312,0.90625 0.5313,0.34375 1.7969,0.59375 1.2656,0.25 2.1406,0.5625 2.6875,0.98438 2.6875,3.42188 0,1.73437 -1.5,2.8125 -1.4844,1.0625 -3.8437,1.0625 -1.5938,0 -2.8282,-0.5625 -1.2343,-0.57813 -1.9375,-1.5625 -0.7031,-1 -0.7031,-2.14063 h 3.2188 q 0.047,0.90625 0.6562,1.39063 0.625,0.46875 1.6719,0.46875 0.9687,0 1.4687,-0.35938 0.5,-0.375 0.5,-0.96875 z m 10.0743,-1.59375 -1.2188,1.21875 v 3.875 h -3.3906 v -18 h 3.3906 v 9.96875 l 0.6563,-0.84375 3.25,-3.8125 h 4.0625 l -4.5782,5.29688 4.9844,7.39062 h -3.8906 z m 11.789,5.09375 h -3.3906 v -12.6875 h 3.3906 z m -3.5937,-15.96875 q 0,-0.75 0.5,-1.23437 0.5156,-0.5 1.3906,-0.5 0.875,0 1.3906,0.5 0.5156,0.48437 0.5156,1.23437 0,0.78125 -0.5312,1.28125 -0.5156,0.48438 -1.375,0.48438 -0.8438,0 -1.375,-0.48438 -0.5156,-0.5 -0.5156,-1.28125 z m 9.5039,3.28125 0.1093,1.46875 q 1.3594,-1.70312 3.6407,-1.70312 2.0156,0 3,1.1875 0.9843,1.1875 1,3.54687 v 8.1875 h -3.375 v -8.10937 q 0,-1.07813 -0.4688,-1.5625 -0.4687,-0.48438 -1.5625,-0.48438 -1.4375,0 -2.1406,1.21875 v 8.9375 h -3.3906 v -12.6875 z m 9.832,6.25 q 0,-2.92187 1.3906,-4.70312 1.3907,-1.78125 3.7344,-1.78125 2.0938,0 3.25,1.4375 l 0.1406,-1.20313 h 3.0782 v 12.26563 q 0,1.67187 -0.7657,2.89062 -0.75,1.23438 -2.125,1.875 -1.375,0.65625 -3.2031,0.65625 -1.4062,0 -2.7344,-0.5625 -1.3125,-0.5625 -2,-1.4375 l 1.5,-2.0625 q 1.2657,1.42188 3.0782,1.42188 1.3437,0 2.0937,-0.71875 0.75,-0.71875 0.75,-2.04688 v -0.6875 q -1.1719,1.32813 -3.0781,1.32813 -2.2813,0 -3.7031,-1.78125 -1.4063,-1.79688 -1.4063,-4.75 z m 3.3906,0.25 q 0,1.71875 0.6875,2.70313 0.6875,0.96875 1.8907,0.96875 1.5468,0 2.2187,-1.15625 v -5.32813 q -0.6719,-1.15625 -2.1875,-1.15625 -1.2187,0 -1.9219,1 -0.6875,0.98438 -0.6875,2.96875 z"
       id="path115"
       inkscape:connector-curvature="0"
       style="fill:#666666;fill-rule:nonzero" />
    <path
       d="m 1401.7126,768 h 127.9055"
       id="path117"
       inkscape:connector-curvature="0"
       style="fill:#000000;fill-opacity:0;fill-rule:evenodd" />
    <path
       d="m 1401.7126,768 h 109.9055"
       id="path119"
       inkscape:connector-curvature="0"
       style="fill-rule:evenodd;stroke:#666666;stroke-width:3;stroke-linecap:butt;stroke-linejoin:round" />
    <path
       d="M 1511.6182,772.9552 1525.2325,768 1511.6182,763.0448 Z"
       id="path121"
       inkscape:connector-curvature="0"
       style="fill:#666666;fill-rule:evenodd;stroke:#666666;stroke-width:3;stroke-linecap:butt" />
  </g>
</svg>
