<?xml version="1.0" encoding="UTF-8" standalone="no"?>
<svg
   xmlns:dc="http://purl.org/dc/elements/1.1/"
   xmlns:cc="http://creativecommons.org/ns#"
   xmlns:rdf="http://www.w3.org/1999/02/22-rdf-syntax-ns#"
   xmlns:svg="http://www.w3.org/2000/svg"
   xmlns="http://www.w3.org/2000/svg"
   xmlns:sodipodi="http://sodipodi.sourceforge.net/DTD/sodipodi-0.dtd"
   xmlns:inkscape="http://www.inkscape.org/namespaces/inkscape"
   version="1.1"
   viewBox="0 0 792.50397 195.51569"
   stroke-miterlimit="10"
   id="svg81"
   sodipodi:docname="step_flow.svg"
   width="792.50397"
   height="195.51569"
   style="fill:none;stroke:none;stroke-linecap:square;stroke-miterlimit:10"
   inkscape:version="0.92.4 (5da689c313, 2019-01-14)">
  <metadata
     id="metadata87">
    <rdf:RDF>
      <cc:Work
         rdf:about="">
        <dc:format>image/svg+xml</dc:format>
        <dc:type
           rdf:resource="http://purl.org/dc/dcmitype/StillImage" />
        <dc:title></dc:title>
      </cc:Work>
    </rdf:RDF>
  </metadata>
  <defs
     id="defs85" />
  <sodipodi:namedview
     pagecolor="#ffffff"
     bordercolor="#666666"
     borderopacity="1"
     objecttolerance="10"
     gridtolerance="10"
     guidetolerance="10"
     inkscape:pageopacity="0"
     inkscape:pageshadow="2"
     inkscape:window-width="2560"
     inkscape:window-height="1539"
     id="namedview83"
     showgrid="false"
     fit-margin-left="10"
     fit-margin-right="10"
     fit-margin-top="10"
     fit-margin-bottom="10"
     inkscape:zoom="1.0925926"
     inkscape:cx="572.38551"
     inkscape:cy="74.434965"
     inkscape:window-x="0"
     inkscape:window-y="0"
     inkscape:window-maximized="1"
     inkscape:current-layer="g79" />
  <clipPath
     id="p.0">
    <path
       d="M 0,0 H 1152 V 864 H 0 Z"
       id="path2"
       inkscape:connector-curvature="0"
       style="clip-rule:nonzero" />
  </clipPath>
  <g
     clip-path="url(#p.0)"
     id="g79"
     transform="translate(-49.496063,-70.000002)">
    <path
       d="M 0,0 H 1152 V 864 H 0 Z"
       id="path5"
       inkscape:connector-curvature="0"
       style="fill:#000000;fill-opacity:0;fill-rule:evenodd" />
    <path
       d="m 96,90.66688 v 0 c 0,-5.891151 4.77573,-10.666878 10.66688,-10.666878 h 122.66624 c 2.82904,0 5.5422,1.123825 7.54263,3.12426 C 238.87618,85.124689 240,87.837847 240,90.66688 v 42.66624 C 240,139.22428 235.22428,144 229.33312,144 H 106.66688 C 100.77573,144 96,139.22428 96,133.33312 Z"
       id="path7"
       inkscape:connector-curvature="0"
       style="fill:#f3f3f3;fill-rule:evenodd" />
    <path
       d="m 125.67276,122.62312 v -13.375 h 1.48437 v 1.25 q 0.53125,-0.73437 1.1875,-1.09375 0.67188,-0.375 1.625,-0.375 1.23438,0 2.17188,0.64063 0.95312,0.625 1.4375,1.79687 0.48437,1.15625 0.48437,2.54688 0,1.48437 -0.53125,2.67187 -0.53125,1.1875 -1.54687,1.82813 -1.01563,0.625 -2.14063,0.625 -0.8125,0 -1.46875,-0.34375 -0.65625,-0.34375 -1.0625,-0.875 v 4.70312 z m 1.48437,-8.48437 q 0,1.85937 0.75,2.76562 0.76563,0.89063 1.82813,0.89063 1.09375,0 1.875,-0.92188 0.78125,-0.9375 0.78125,-2.875 0,-1.84375 -0.76563,-2.76562 -0.75,-0.92188 -1.8125,-0.92188 -1.04687,0 -1.85937,0.98438 -0.79688,0.96875 -0.79688,2.84375 z m 15.51635,1.67187 1.6875,0.20313 q -0.40625,1.48437 -1.48438,2.3125 -1.07812,0.8125 -2.76562,0.8125 -2.125,0 -3.375,-1.29688 -1.23438,-1.3125 -1.23438,-3.67187 0,-2.45313 1.25,-3.79688 1.26563,-1.34375 3.26563,-1.34375 1.9375,0 3.15625,1.32813 1.23437,1.3125 1.23437,3.70312 0,0.15625 0,0.4375 h -7.21875 q 0.0937,1.59375 0.90625,2.45313 0.8125,0.84375 2.01563,0.84375 0.90625,0 1.54687,-0.46875 0.64063,-0.48438 1.01563,-1.51563 z m -5.39063,-2.65625 h 5.40625 q -0.10937,-1.21875 -0.625,-1.82812 -0.78125,-0.95313 -2.03125,-0.95313 -1.125,0 -1.90625,0.76563 -0.76562,0.75 -0.84375,2.01562 z m 9.12572,5.76563 v -9.67188 h 1.46875 v 1.46875 q 0.5625,-1.03125 1.03125,-1.35937 0.48437,-0.32813 1.0625,-0.32813 0.82812,0 1.6875,0.53125 l -0.5625,1.51563 q -0.60938,-0.35938 -1.20313,-0.35938 -0.54687,0 -0.96875,0.32813 -0.42187,0.32812 -0.60937,0.89062 -0.28125,0.875 -0.28125,1.92188 v 5.0625 z m 12.5408,-3.54688 1.60938,0.21875 q -0.26563,1.65625 -1.35938,2.60938 -1.07812,0.9375 -2.67187,0.9375 -1.98438,0 -3.1875,-1.29688 -1.20313,-1.29687 -1.20313,-3.71875 0,-1.57812 0.51563,-2.75 0.51562,-1.17187 1.57812,-1.75 1.0625,-0.59375 2.3125,-0.59375 1.57813,0 2.57813,0.79688 1,0.79687 1.28125,2.26562 l -1.59375,0.23438 q -0.23438,-0.96875 -0.8125,-1.45313 -0.57813,-0.5 -1.39063,-0.5 -1.23437,0 -2.01562,0.89063 -0.78125,0.89062 -0.78125,2.8125 0,1.95312 0.75,2.84375 0.75,0.875 1.95312,0.875 0.96875,0 1.60938,-0.59375 0.65625,-0.59375 0.82812,-1.82813 z m 9.64063,0.4375 1.6875,0.20313 q -0.40625,1.48437 -1.48438,2.3125 -1.07812,0.8125 -2.76562,0.8125 -2.125,0 -3.375,-1.29688 -1.23438,-1.3125 -1.23438,-3.67187 0,-2.45313 1.25,-3.79688 1.26563,-1.34375 3.26563,-1.34375 1.9375,0 3.15625,1.32813 1.23437,1.3125 1.23437,3.70312 0,0.15625 0,0.4375 h -7.21875 q 0.0937,1.59375 0.90625,2.45313 0.8125,0.84375 2.01563,0.84375 0.90625,0 1.54687,-0.46875 0.64063,-0.48438 1.01563,-1.51563 z m -5.39063,-2.65625 h 5.40625 q -0.10937,-1.21875 -0.625,-1.82812 -0.78125,-0.95313 -2.03125,-0.95313 -1.125,0 -1.90625,0.76563 -0.76562,0.75 -0.84375,2.01562 z m 9.14134,9.46875 v -13.375 h 1.48438 v 1.25 q 0.53125,-0.73437 1.1875,-1.09375 0.67187,-0.375 1.625,-0.375 1.23437,0 2.17187,0.64063 0.95313,0.625 1.4375,1.79687 0.48438,1.15625 0.48438,2.54688 0,1.48437 -0.53125,2.67187 -0.53125,1.1875 -1.54688,1.82813 -1.01562,0.625 -2.14062,0.625 -0.8125,0 -1.46875,-0.34375 -0.65625,-0.34375 -1.0625,-0.875 v 4.70312 z m 1.48438,-8.48437 q 0,1.85937 0.75,2.76562 0.76562,0.89063 1.82812,0.89063 1.09375,0 1.875,-0.92188 0.78125,-0.9375 0.78125,-2.875 0,-1.84375 -0.76562,-2.76562 -0.75,-0.92188 -1.8125,-0.92188 -1.04688,0 -1.85938,0.98438 -0.79687,0.96875 -0.79687,2.84375 z m 12.46946,3.3125 0.23438,1.45312 q -0.6875,0.14063 -1.23438,0.14063 -0.89062,0 -1.39062,-0.28125 -0.48438,-0.28125 -0.6875,-0.73438 -0.20313,-0.46875 -0.20313,-1.9375 v -5.57812 h -1.20312 v -1.26563 h 1.20312 v -2.39062 l 1.625,-0.98438 v 3.375 h 1.65625 v 1.26563 h -1.65625 v 5.67187 q 0,0.6875 0.0781,0.89063 0.0937,0.20312 0.28125,0.32812 0.20312,0.10938 0.57812,0.10938 0.26563,0 0.71875,-0.0625 z m 1.60518,-10 v -1.89063 h 1.64063 v 1.89063 z m 0,11.46875 v -9.67188 h 1.64063 V 118.92 Z m 3.53545,-4.84375 q 0,-2.6875 1.48437,-3.96875 1.25,-1.07813 3.04688,-1.07813 2,0 3.26562,1.3125 1.26563,1.29688 1.26563,3.60938 0,1.85937 -0.5625,2.9375 -0.5625,1.0625 -1.64063,1.65625 -1.0625,0.59375 -2.32812,0.59375 -2.03125,0 -3.28125,-1.29688 -1.25,-1.3125 -1.25,-3.76562 z m 1.6875,0 q 0,1.85937 0.79687,2.79687 0.8125,0.92188 2.04688,0.92188 1.21875,0 2.03125,-0.92188 0.8125,-0.9375 0.8125,-2.84375 0,-1.79687 -0.8125,-2.71875 -0.8125,-0.92187 -2.03125,-0.92187 -1.23438,0 -2.04688,0.92187 -0.79687,0.90625 -0.79687,2.76563 z m 9.29759,4.84375 v -9.67188 h 1.46875 v 1.375 q 1.0625,-1.59375 3.07813,-1.59375 0.875,0 1.60937,0.3125 0.73438,0.3125 1.09375,0.82813 0.375,0.5 0.51563,1.20312 0.0937,0.45313 0.0937,1.59375 V 118.92 h -1.64063 v -5.89063 q 0,-1 -0.20312,-1.48437 -0.1875,-0.5 -0.67188,-0.79688 -0.48437,-0.29687 -1.14062,-0.29687 -1.04688,0 -1.8125,0.67187 -0.75,0.65625 -0.75,2.51563 V 118.92 Z"
       id="path9"
       inkscape:connector-curvature="0"
       style="fill:#000000;fill-rule:nonzero" />
    <path
       d="M 168,198.01575 V 144"
       id="path11"
       inkscape:connector-curvature="0"
       style="fill:#000000;fill-opacity:0;fill-rule:evenodd" />
    <path
       d="M 168,198.01575 V 150"
       id="path13"
       inkscape:connector-curvature="0"
       style="fill-rule:evenodd;stroke:#000000;stroke-width:1;stroke-linecap:butt;stroke-linejoin:round" />
    <path
       d="M 169.65173,150 168,145.4619 166.34826,150 Z"
       id="path15"
       inkscape:connector-curvature="0"
       style="fill:#000000;fill-rule:evenodd;stroke:#000000;stroke-width:1;stroke-linecap:butt" />
    <path
       d="m 288,90.66688 v 0 c 0,-5.891151 4.77573,-10.666878 10.66687,-10.666878 h 122.66626 c 2.82901,0 5.54218,1.123825 7.5426,3.12426 C 430.87616,85.124689 432,87.837847 432,90.66688 v 42.66624 C 432,139.22428 427.22427,144 421.33313,144 H 298.66687 C 292.77573,144 288,139.22428 288,133.33312 Z"
       id="path17"
       inkscape:connector-curvature="0"
       style="fill:#d9ead3;fill-rule:evenodd" />
    <path
       d="M 327.1259,107.92 V 94.560625 h 1.78125 v 11.781255 h 6.5625 V 107.92 Z m 16.87573,-3.10937 1.6875,0.20312 q -0.40625,1.48438 -1.48437,2.3125 -1.07813,0.8125 -2.76563,0.8125 -2.125,0 -3.375,-1.29687 -1.23437,-1.3125 -1.23437,-3.67188 0,-2.45312 1.25,-3.796875 1.26562,-1.34375 3.26562,-1.34375 1.9375,0 3.15625,1.328125 1.23438,1.3125 1.23438,3.70313 0,0.15625 0,0.4375 h -7.21875 q 0.0937,1.59375 0.90625,2.45312 0.8125,0.84375 2.01562,0.84375 0.90625,0 1.54688,-0.46875 0.64062,-0.48437 1.01562,-1.51562 z m -5.39062,-2.65625 h 5.40625 q -0.10938,-1.21875 -0.625,-1.82813 -0.78125,-0.953125 -2.03125,-0.953125 -1.125,0 -1.90625,0.765625 -0.76563,0.75 -0.84375,2.01563 z m 15.45382,4.57812 q -0.92187,0.76563 -1.76562,1.09375 -0.82813,0.3125 -1.79688,0.3125 -1.59375,0 -2.45312,-0.78125 -0.85938,-0.78125 -0.85938,-1.98437 0,-0.71875 0.32813,-1.29688 0.32812,-0.59375 0.84375,-0.9375 0.53125,-0.35937 1.1875,-0.54687 0.46875,-0.125 1.45312,-0.25 1.98438,-0.23438 2.92188,-0.5625 0.0156,-0.34375 0.0156,-0.42188 0,-1 -0.46875,-1.421875 -0.625,-0.546875 -1.875,-0.546875 -1.15625,0 -1.70312,0.40625 -0.54688,0.40625 -0.8125,1.42188 l -1.60938,-0.21875 q 0.21875,-1.01563 0.71875,-1.64063 0.5,-0.640625 1.45313,-0.984375 0.95312,-0.34375 2.1875,-0.34375 1.25,0 2.01562,0.296875 0.78125,0.28125 1.14063,0.734375 0.375,0.4375 0.51562,1.109375 0.0781,0.42188 0.0781,1.51563 v 2.1875 q 0,2.28125 0.10937,2.89062 0.10938,0.59375 0.40625,1.15625 h -1.70312 q -0.26563,-0.51562 -0.32813,-1.1875 z m -0.14062,-3.67187 q -0.89063,0.375 -2.67188,0.625 -1.01562,0.14062 -1.4375,0.32812 -0.42187,0.1875 -0.65625,0.53125 -0.21875,0.34375 -0.21875,0.78125 0,0.65625 0.5,1.09375 0.5,0.4375 1.45313,0.4375 0.9375,0 1.67187,-0.40625 0.75,-0.42187 1.09375,-1.14062 0.26563,-0.5625 0.26563,-1.64063 z m 4.18823,4.85937 v -9.671875 h 1.46875 v 1.46875 q 0.5625,-1.03125 1.03125,-1.359375 0.48438,-0.328125 1.0625,-0.328125 0.82813,0 1.6875,0.53125 l -0.5625,1.515625 q -0.60937,-0.359375 -1.20312,-0.359375 -0.54688,0 -0.96875,0.328125 -0.42188,0.32813 -0.60938,0.89063 -0.28125,0.875 -0.28125,1.92187 v 5.0625 z m 6.2283,0 v -9.671875 h 1.46875 v 1.375 q 1.0625,-1.59375 3.07813,-1.59375 0.875,0 1.60937,0.3125 0.73438,0.3125 1.09375,0.828125 0.375,0.5 0.51563,1.20313 0.0937,0.45312 0.0937,1.59375 V 107.92 h -1.64063 v -5.89062 q 0,-1 -0.20312,-1.48438 -0.1875,-0.5 -0.67188,-0.796875 -0.48437,-0.296875 -1.14062,-0.296875 -1.04688,0 -1.8125,0.67188 -0.75,0.65625 -0.75,2.51562 V 107.92 Z m 17.00071,-3.10937 1.6875,0.20312 q -0.40625,1.48438 -1.48438,2.3125 -1.07812,0.8125 -2.76562,0.8125 -2.125,0 -3.375,-1.29687 -1.23438,-1.3125 -1.23438,-3.67188 0,-2.45312 1.25,-3.796875 1.26563,-1.34375 3.26563,-1.34375 1.9375,0 3.15625,1.328125 1.23437,1.3125 1.23437,3.70313 0,0.15625 0,0.4375 h -7.21875 q 0.0937,1.59375 0.90625,2.45312 0.8125,0.84375 2.01563,0.84375 0.90625,0 1.54687,-0.46875 0.64063,-0.48437 1.01563,-1.51562 z m -5.39063,-2.65625 h 5.40625 q -0.10937,-1.21875 -0.625,-1.82813 -0.78125,-0.953125 -2.03125,-0.953125 -1.125,0 -1.90625,0.765625 -0.76562,0.75 -0.84375,2.01563 z M 391.3578,107.92 v -1.21875 q -0.90625,1.4375 -2.70312,1.4375 -1.15625,0 -2.125,-0.64062 -0.96875,-0.64063 -1.5,-1.78125 -0.53125,-1.14063 -0.53125,-2.625 0,-1.45313 0.48437,-2.625 0.48438,-1.187505 1.4375,-1.812505 0.96875,-0.625 2.17188,-0.625 0.875,0 1.54687,0.375 0.6875,0.359375 1.10938,0.953125 v -4.796875 h 1.64062 V 107.92 Z m -5.17187,-4.82812 q 0,1.85937 0.78125,2.78125 0.78125,0.92187 1.84375,0.92187 1.07812,0 1.82812,-0.875 0.75,-0.89062 0.75,-2.6875 0,-1.98437 -0.76562,-2.90625 -0.76563,-0.9375 -1.89063,-0.9375 -1.07812,0 -1.8125,0.89063 -0.73437,0.89062 -0.73437,2.8125 z"
       id="path19"
       inkscape:connector-curvature="0"
       style="fill:#000000;fill-rule:nonzero" />
    <path
       d="m 339.03156,129.92 v -1.42188 q -1.125,1.64063 -3.0625,1.64063 -0.85937,0 -1.60937,-0.32813 -0.73438,-0.32812 -1.09375,-0.82812 -0.35938,-0.5 -0.5,-1.21875 -0.10938,-0.46875 -0.10938,-1.53125 v -5.98438 h 1.64063 v 5.35938 q 0,1.28125 0.10937,1.73437 0.15625,0.64063 0.65625,1.01563 0.5,0.375 1.23438,0.375 0.73437,0 1.375,-0.375 0.65625,-0.39063 0.92187,-1.03125 0.26563,-0.65625 0.26563,-1.89063 v -5.1875 h 1.64062 V 129.92 Z m 4.04761,3.70312 v -13.375 h 1.48437 v 1.25 q 0.53125,-0.73437 1.1875,-1.09375 0.67188,-0.375 1.625,-0.375 1.23438,0 2.17188,0.64063 0.95312,0.625 1.4375,1.79687 0.48437,1.15625 0.48437,2.54688 0,1.48437 -0.53125,2.67187 -0.53125,1.1875 -1.54687,1.82813 -1.01563,0.625 -2.14063,0.625 -0.8125,0 -1.46875,-0.34375 -0.65625,-0.34375 -1.0625,-0.875 v 4.70312 z m 1.48437,-8.48437 q 0,1.85937 0.75,2.76562 0.76563,0.89063 1.82813,0.89063 1.09375,0 1.875,-0.92188 0.78125,-0.9375 0.78125,-2.875 0,-1.84375 -0.76563,-2.76562 -0.75,-0.92188 -1.8125,-0.92188 -1.04687,0 -1.85937,0.98438 -0.79688,0.96875 -0.79688,2.84375 z m 15.15695,4.78125 v -1.21875 q -0.90625,1.4375 -2.70312,1.4375 -1.15625,0 -2.125,-0.64063 -0.96875,-0.64062 -1.5,-1.78125 -0.53125,-1.14062 -0.53125,-2.625 0,-1.45312 0.48437,-2.625 0.48438,-1.1875 1.4375,-1.8125 0.96875,-0.625 2.17188,-0.625 0.875,0 1.54687,0.375 0.6875,0.35938 1.10938,0.95313 v -4.79688 h 1.64062 V 129.92 Z m -5.17187,-4.82813 q 0,1.85938 0.78125,2.78125 0.78125,0.92188 1.84375,0.92188 1.07812,0 1.82812,-0.875 0.75,-0.89063 0.75,-2.6875 0,-1.98438 -0.76562,-2.90625 -0.76563,-0.9375 -1.89063,-0.9375 -1.07812,0 -1.8125,0.89062 -0.73437,0.89063 -0.73437,2.8125 z m 15.59448,3.64063 q -0.92187,0.76562 -1.76562,1.09375 -0.82813,0.3125 -1.79688,0.3125 -1.59375,0 -2.45312,-0.78125 -0.85938,-0.78125 -0.85938,-1.98438 0,-0.71875 0.32813,-1.29687 0.32812,-0.59375 0.84375,-0.9375 0.53125,-0.35938 1.1875,-0.54688 0.46875,-0.125 1.45312,-0.25 1.98438,-0.23437 2.92188,-0.5625 0.0156,-0.34375 0.0156,-0.42187 0,-1 -0.46875,-1.42188 -0.625,-0.54687 -1.875,-0.54687 -1.15625,0 -1.70312,0.40625 -0.54688,0.40625 -0.8125,1.42187 l -1.60938,-0.21875 q 0.21875,-1.01562 0.71875,-1.64062 0.5,-0.64063 1.45313,-0.98438 0.95312,-0.34375 2.1875,-0.34375 1.25,0 2.01562,0.29688 0.78125,0.28125 1.14063,0.73437 0.375,0.4375 0.51562,1.10938 0.0781,0.42187 0.0781,1.51562 v 2.1875 q 0,2.28125 0.10937,2.89063 0.10938,0.59375 0.40625,1.15625 h -1.70312 q -0.26563,-0.51563 -0.32813,-1.1875 z m -0.14062,-3.67188 q -0.89063,0.375 -2.67188,0.625 -1.01562,0.14063 -1.4375,0.32813 -0.42187,0.1875 -0.65625,0.53125 -0.21875,0.34375 -0.21875,0.78125 0,0.65625 0.5,1.09375 0.5,0.4375 1.45313,0.4375 0.9375,0 1.67187,-0.40625 0.75,-0.42188 1.09375,-1.14063 0.26563,-0.5625 0.26563,-1.64062 z m 7.78195,3.39063 0.23437,1.45312 q -0.6875,0.14063 -1.23437,0.14063 -0.89063,0 -1.39063,-0.28125 -0.48437,-0.28125 -0.6875,-0.73438 -0.20312,-0.46875 -0.20312,-1.9375 v -5.57812 h -1.20313 v -1.26563 h 1.20313 v -2.39062 l 1.625,-0.98438 v 3.375 h 1.65625 v 1.26563 h -1.65625 v 5.67187 q 0,0.6875 0.0781,0.89063 0.0937,0.20312 0.28125,0.32812 0.20313,0.10938 0.57813,0.10938 0.26562,0 0.71875,-0.0625 z m 8.23019,-1.64063 1.6875,0.20313 q -0.40625,1.48437 -1.48437,2.3125 -1.07813,0.8125 -2.76563,0.8125 -2.125,0 -3.375,-1.29688 -1.23437,-1.3125 -1.23437,-3.67187 0,-2.45313 1.25,-3.79688 1.26562,-1.34375 3.26562,-1.34375 1.9375,0 3.15625,1.32813 1.23438,1.3125 1.23438,3.70312 0,0.15625 0,0.4375 h -7.21875 q 0.0937,1.59375 0.90625,2.45313 0.8125,0.84375 2.01562,0.84375 0.90625,0 1.54688,-0.46875 0.64062,-0.48438 1.01562,-1.51563 z m -5.39062,-2.65625 h 5.40625 q -0.10938,-1.21875 -0.625,-1.82812 -0.78125,-0.95313 -2.03125,-0.95313 -1.125,0 -1.90625,0.76563 -0.76563,0.75 -0.84375,2.01562 z"
       id="path21"
       inkscape:connector-curvature="0"
       style="fill:#000000;fill-rule:nonzero" />
    <path
       d="m 480,90.66688 v 0 c 0,-5.891151 4.77573,-10.666878 10.66687,-10.666878 h 122.66626 c 2.82904,0 5.54218,1.123825 7.5426,3.12426 C 622.87616,85.124689 624,87.837847 624,90.66688 v 42.66624 C 624,139.22428 619.2243,144 613.33313,144 H 490.66687 C 484.77573,144 480,139.22428 480,133.33312 Z"
       id="path23"
       inkscape:connector-curvature="0"
       style="fill:#f3f3f3;fill-rule:evenodd" />
    <path
       d="M 521.8184,107.92 V 94.560625 h 5.04687 q 1.32813,0 2.03125,0.125 0.96875,0.171875 1.64063,0.640625 0.67187,0.453125 1.07812,1.28125 0.40625,0.828125 0.40625,1.828125 0,1.703125 -1.09375,2.890625 -1.07812,1.17188 -3.92187,1.17188 h -3.42188 V 107.92 Z m 1.76562,-7 h 3.45313 q 1.71875,0 2.4375,-0.64062 0.71875,-0.64063 0.71875,-1.79688 0,-0.84375 -0.42188,-1.4375 -0.42187,-0.59375 -1.125,-0.78125 -0.4375,-0.125 -1.64062,-0.125 h -3.42188 z m 17.09986,3.89063 1.6875,0.20312 q -0.40625,1.48438 -1.48438,2.3125 -1.07812,0.8125 -2.76562,0.8125 -2.125,0 -3.375,-1.29687 -1.23438,-1.3125 -1.23438,-3.67188 0,-2.45312 1.25,-3.796875 1.26563,-1.34375 3.26563,-1.34375 1.9375,0 3.15625,1.328125 1.23437,1.3125 1.23437,3.70313 0,0.15625 0,0.4375 h -7.21875 q 0.0937,1.59375 0.90625,2.45312 0.8125,0.84375 2.01563,0.84375 0.90625,0 1.54687,-0.46875 0.64063,-0.48437 1.01563,-1.51562 z m -5.39063,-2.65625 h 5.40625 q -0.10937,-1.21875 -0.625,-1.82813 -0.78125,-0.953125 -2.03125,-0.953125 -1.125,0 -1.90625,0.765625 -0.76562,0.75 -0.84375,2.01563 z m 9.12574,5.76562 v -9.671875 h 1.46875 v 1.46875 q 0.5625,-1.03125 1.03125,-1.359375 0.48437,-0.328125 1.0625,-0.328125 0.82812,0 1.6875,0.53125 l -0.5625,1.515625 q -0.60938,-0.359375 -1.20313,-0.359375 -0.54687,0 -0.96875,0.328125 -0.42187,0.32813 -0.60937,0.89063 -0.28125,0.875 -0.28125,1.92187 v 5.0625 z m 5.58764,-4.01562 v -1.64063 h 5.03125 v 1.64063 z m 13.16583,0.46875 1.60938,0.21875 q -0.26563,1.65625 -1.35938,2.60937 -1.07812,0.9375 -2.67187,0.9375 -1.98438,0 -3.1875,-1.29687 -1.20313,-1.29688 -1.20313,-3.71875 0,-1.57813 0.51563,-2.75 0.51562,-1.17188 1.57812,-1.750005 1.0625,-0.59375 2.3125,-0.59375 1.57813,0 2.57813,0.796875 1,0.796875 1.28125,2.26563 l -1.59375,0.23437 q -0.23438,-0.96875 -0.8125,-1.453125 -0.57813,-0.5 -1.39063,-0.5 -1.23437,0 -2.01562,0.890625 -0.78125,0.89063 -0.78125,2.8125 0,1.95313 0.75,2.84375 0.75,0.875 1.95312,0.875 0.96875,0 1.60938,-0.59375 0.65625,-0.59375 0.82812,-1.82812 z m 9.64063,0.4375 1.6875,0.20312 q -0.40625,1.48438 -1.48438,2.3125 -1.07812,0.8125 -2.76562,0.8125 -2.125,0 -3.375,-1.29687 -1.23438,-1.3125 -1.23438,-3.67188 0,-2.45312 1.25,-3.796875 1.26563,-1.34375 3.26563,-1.34375 1.9375,0 3.15625,1.328125 1.23437,1.3125 1.23437,3.70313 0,0.15625 0,0.4375 h -7.21875 q 0.0937,1.59375 0.90625,2.45312 0.8125,0.84375 2.01563,0.84375 0.90625,0 1.54687,-0.46875 0.64063,-0.48437 1.01563,-1.51562 z m -5.39063,-2.65625 h 5.40625 q -0.10937,-1.21875 -0.625,-1.82813 -0.78125,-0.953125 -2.03125,-0.953125 -1.125,0 -1.90625,0.765625 -0.76562,0.75 -0.84375,2.01563 z m 9.09443,5.76562 V 94.560625 h 1.64062 V 107.92 Z m 4.14483,0 V 94.560625 h 1.64063 V 107.92 Z"
       id="path25"
       inkscape:connector-curvature="0"
       style="fill:#000000;fill-rule:nonzero" />
    <path
       d="m 527.86273,129.92 v -1.21875 q -0.90625,1.4375 -2.70312,1.4375 -1.15625,0 -2.125,-0.64063 -0.96875,-0.64062 -1.5,-1.78125 -0.53125,-1.14062 -0.53125,-2.625 0,-1.45312 0.48437,-2.625 0.48438,-1.1875 1.4375,-1.8125 0.96875,-0.625 2.17188,-0.625 0.875,0 1.54687,0.375 0.6875,0.35938 1.10938,0.95313 v -4.79688 h 1.64062 V 129.92 Z m -5.17187,-4.82813 q 0,1.85938 0.78125,2.78125 0.78125,0.92188 1.84375,0.92188 1.07812,0 1.82812,-0.875 0.75,-0.89063 0.75,-2.6875 0,-1.98438 -0.76562,-2.90625 -0.76563,-0.9375 -1.89063,-0.9375 -1.07812,0 -1.8125,0.89062 -0.73437,0.89063 -0.73437,2.8125 z m 9.26635,4.82813 v -9.67188 h 1.46875 v 1.46875 q 0.5625,-1.03125 1.03125,-1.35937 0.48438,-0.32813 1.0625,-0.32813 0.82813,0 1.6875,0.53125 l -0.5625,1.51563 q -0.60937,-0.35938 -1.20312,-0.35938 -0.54688,0 -0.96875,0.32813 -0.42188,0.32812 -0.60938,0.89062 -0.28125,0.875 -0.28125,1.92188 v 5.0625 z m 5.6189,-4.84375 q 0,-2.6875 1.48437,-3.96875 1.25,-1.07813 3.04688,-1.07813 2,0 3.26562,1.3125 1.26563,1.29688 1.26563,3.60938 0,1.85937 -0.5625,2.9375 -0.5625,1.0625 -1.64063,1.65625 -1.0625,0.59375 -2.32812,0.59375 -2.03125,0 -3.28125,-1.29688 -1.25,-1.3125 -1.25,-3.76562 z m 1.6875,0 q 0,1.85937 0.79687,2.79687 0.8125,0.92188 2.04688,0.92188 1.21875,0 2.03125,-0.92188 0.8125,-0.9375 0.8125,-2.84375 0,-1.79687 -0.8125,-2.71875 -0.8125,-0.92187 -2.03125,-0.92187 -1.23438,0 -2.04688,0.92187 -0.79687,0.90625 -0.79687,2.76563 z m 9.29761,8.54687 v -13.375 h 1.48437 v 1.25 q 0.53125,-0.73437 1.1875,-1.09375 0.67188,-0.375 1.625,-0.375 1.23438,0 2.17188,0.64063 0.95312,0.625 1.4375,1.79687 0.48437,1.15625 0.48437,2.54688 0,1.48437 -0.53125,2.67187 -0.53125,1.1875 -1.54687,1.82813 -1.01563,0.625 -2.14063,0.625 -0.8125,0 -1.46875,-0.34375 -0.65625,-0.34375 -1.0625,-0.875 v 4.70312 z m 1.48437,-8.48437 q 0,1.85937 0.75,2.76562 0.76563,0.89063 1.82813,0.89063 1.09375,0 1.875,-0.92188 0.78125,-0.9375 0.78125,-2.875 0,-1.84375 -0.76563,-2.76562 -0.75,-0.92188 -1.8125,-0.92188 -1.04687,0 -1.85937,0.98438 -0.79688,0.96875 -0.79688,2.84375 z m 8.28198,-0.0625 q 0,-2.6875 1.48438,-3.96875 1.25,-1.07813 3.04687,-1.07813 2,0 3.26563,1.3125 1.26562,1.29688 1.26562,3.60938 0,1.85937 -0.5625,2.9375 -0.5625,1.0625 -1.64062,1.65625 -1.0625,0.59375 -2.32813,0.59375 -2.03125,0 -3.28125,-1.29688 -1.25,-1.3125 -1.25,-3.76562 z m 1.6875,0 q 0,1.85937 0.79688,2.79687 0.8125,0.92188 2.04687,0.92188 1.21875,0 2.03125,-0.92188 0.8125,-0.9375 0.8125,-2.84375 0,-1.79687 -0.8125,-2.71875 -0.8125,-0.92187 -2.03125,-0.92187 -1.23437,0 -2.04687,0.92187 -0.79688,0.90625 -0.79688,2.76563 z m 15.62567,4.84375 v -1.42188 q -1.125,1.64063 -3.0625,1.64063 -0.85937,0 -1.60937,-0.32813 -0.73438,-0.32812 -1.09375,-0.82812 -0.35938,-0.5 -0.5,-1.21875 -0.10938,-0.46875 -0.10938,-1.53125 v -5.98438 h 1.64063 v 5.35938 q 0,1.28125 0.10937,1.73437 0.15625,0.64063 0.65625,1.01563 0.5,0.375 1.23438,0.375 0.73437,0 1.375,-0.375 0.65625,-0.39063 0.92187,-1.03125 0.26563,-0.65625 0.26563,-1.89063 v -5.1875 h 1.64062 V 129.92 Z m 7.62574,-1.46875 0.23437,1.45312 q -0.6875,0.14063 -1.23437,0.14063 -0.89063,0 -1.39063,-0.28125 -0.48437,-0.28125 -0.6875,-0.73438 -0.20312,-0.46875 -0.20312,-1.9375 v -5.57812 h -1.20313 v -1.26563 h 1.20313 v -2.39062 l 1.625,-0.98438 v 3.375 h 1.65625 v 1.26563 h -1.65625 v 5.67187 q 0,0.6875 0.0781,0.89063 0.0937,0.20312 0.28125,0.32812 0.20313,0.10938 0.57813,0.10938 0.26562,0 0.71875,-0.0625 z"
       id="path27"
       inkscape:connector-curvature="0"
       style="fill:#000000;fill-rule:nonzero" />
    <path
       d="m 240,112 h 48"
       id="path29"
       inkscape:connector-curvature="0"
       style="fill:#000000;fill-opacity:0;fill-rule:evenodd" />
    <path
       d="m 240,112 h 42"
       id="path31"
       inkscape:connector-curvature="0"
       style="fill-rule:evenodd;stroke:#000000;stroke-width:1;stroke-linecap:butt;stroke-linejoin:round" />
    <path
       d="M 282,113.65173 286.53809,112 282,110.34826 Z"
       id="path33"
       inkscape:connector-curvature="0"
       style="fill:#000000;fill-rule:evenodd;stroke:#000000;stroke-width:1;stroke-linecap:butt" />
    <path
       d="m 432,112 h 48"
       id="path35"
       inkscape:connector-curvature="0"
       style="fill:#000000;fill-opacity:0;fill-rule:evenodd" />
    <path
       d="m 432,112 h 42"
       id="path37"
       inkscape:connector-curvature="0"
       style="fill-rule:evenodd;stroke:#000000;stroke-width:1;stroke-linecap:butt;stroke-linejoin:round" />
    <path
       d="M 474,113.65173 478.53809,112 474,110.34826 Z"
       id="path39"
       inkscape:connector-curvature="0"
       style="fill:#000000;fill-rule:evenodd;stroke:#000000;stroke-width:1;stroke-linecap:butt" />
    <path
       d="m 528,198.01575 v 0 c 0,-13.25484 10.74518,-24 24,-24 v 0 c 6.36517,0 12.46967,2.52856 16.97058,7.02943 4.50086,4.50087 7.02942,10.60538 7.02942,16.97057 v 0 c 0,13.25484 -10.74518,24 -24,24 v 0 c -13.25482,0 -24,-10.74516 -24,-24 z"
       id="path41"
       inkscape:connector-curvature="0"
       style="fill:#f3f3f3;fill-rule:evenodd" />
    <path
       d="m 551.0078,203.77449 v -4.70313 h -4.67188 v -1.96875 h 4.67188 v -4.6875 h 1.98437 v 4.6875 h 4.6875 v 1.96875 h -4.6875 v 4.70313 z"
       id="path43"
       inkscape:connector-curvature="0"
       style="fill:#000000;fill-rule:nonzero" />
    <path
       d="M 59.496063,198.01575 H 528"
       id="path45"
       inkscape:connector-curvature="0"
       style="fill:#000000;fill-opacity:0;fill-rule:evenodd" />
    <path
       d="M 59.496063,198.01575 H 522"
       id="path47"
       inkscape:connector-curvature="0"
       style="fill-rule:evenodd;stroke:#000000;stroke-width:1;stroke-linecap:butt;stroke-linejoin:round" />
    <path
       d="m 522,199.66748 4.53809,-1.65173 L 522,196.36401 Z"
       id="path49"
       inkscape:connector-curvature="0"
       style="fill:#000000;fill-rule:evenodd;stroke:#000000;stroke-width:1;stroke-linecap:butt" />
    <path
       d="m 552,144 v 30.01575"
       id="path51"
       inkscape:connector-curvature="0"
       style="fill:#000000;fill-opacity:0;fill-rule:evenodd" />
    <path
       d="m 552,144 v 24.01575"
       id="path53"
       inkscape:connector-curvature="0"
       style="fill-rule:evenodd;stroke:#000000;stroke-width:1;stroke-linecap:butt;stroke-linejoin:round" />
    <path
       d="m 550.34827,168.01575 1.65173,4.5381 1.65174,-4.5381 z"
       id="path55"
       inkscape:connector-curvature="0"
       style="fill:#000000;fill-rule:evenodd;stroke:#000000;stroke-width:1;stroke-linecap:butt" />
    <path
       d="m 632,176.68263 v 0 c 0,-5.89116 4.7757,-10.66689 10.66687,-10.66689 h 122.66626 c 2.82904,0 5.54218,1.12383 7.5426,3.12426 2.00043,2.00042 3.12427,4.71359 3.12427,7.54263 v 42.66623 c 0,5.89116 -4.7757,10.66689 -10.66687,10.66689 H 642.66687 C 636.7757,230.01575 632,225.24002 632,219.34886 Z"
       id="path57"
       inkscape:connector-curvature="0"
       style="fill:#f3f3f3;fill-rule:evenodd" />
    <path
       d="m 646.4241,204.93575 5.125,-13.35937 h 1.90625 l 5.46875,13.35937 h -2.01563 l -1.54687,-4.04687 h -5.59375 l -1.46875,4.04687 z m 3.85937,-5.48437 h 4.53125 l -1.40625,-3.70313 q -0.625,-1.6875 -0.9375,-2.76562 -0.26562,1.28125 -0.71875,2.54687 z m 9.80292,5.48437 v -13.35937 h 1.64063 v 13.35937 z M 664.2781,193.467 v -1.89062 h 1.64063 v 1.89062 z m 0,11.46875 v -9.67187 h 1.64063 v 9.67187 z m 6.83234,0 -3.6875,-9.67187 h 1.73438 l 2.07812,5.79687 q 0.32813,0.9375 0.625,1.9375 0.20313,-0.76562 0.60938,-1.82812 l 2.14062,-5.90625 h 1.6875 l -3.65625,9.67187 z m 13.26563,-3.10937 1.6875,0.20312 q -0.40625,1.48438 -1.48438,2.3125 -1.07812,0.8125 -2.76562,0.8125 -2.125,0 -3.375,-1.29687 -1.23438,-1.3125 -1.23438,-3.67188 0,-2.45312 1.25,-3.79687 1.26563,-1.34375 3.26563,-1.34375 1.9375,0 3.15625,1.32812 1.23437,1.3125 1.23437,3.70313 0,0.15625 0,0.4375 h -7.21875 q 0.0937,1.59375 0.90625,2.45312 0.8125,0.84375 2.01563,0.84375 0.90625,0 1.54687,-0.46875 0.64063,-0.48437 1.01563,-1.51562 z m -5.39063,-2.65625 h 5.40625 q -0.10937,-1.21875 -0.625,-1.82813 -0.78125,-0.95312 -2.03125,-0.95312 -1.125,0 -1.90625,0.76562 -0.76562,0.75 -0.84375,2.01563 z m 14.32465,5.76562 v -9.67187 h 1.46875 v 1.35937 q 0.45312,-0.71875 1.20312,-1.14062 0.76563,-0.4375 1.71875,-0.4375 1.07813,0 1.76563,0.45312 0.6875,0.4375 0.96875,1.23438 1.15625,-1.6875 2.98437,-1.6875 1.45313,0 2.21875,0.79687 0.78125,0.79688 0.78125,2.45313 v 6.64062 h -1.64062 V 198.842 q 0,-0.98437 -0.15625,-1.40625 -0.15625,-0.4375 -0.57813,-0.70312 -0.42187,-0.26563 -0.98437,-0.26563 -1.01563,0 -1.6875,0.6875 -0.67188,0.67188 -0.67188,2.15625 v 5.625 h -1.64062 v -6.28125 q 0,-1.09375 -0.40625,-1.64062 -0.40625,-0.54688 -1.3125,-0.54688 -0.6875,0 -1.28125,0.35938 -0.59375,0.35937 -0.85938,1.0625 -0.25,0.70312 -0.25,2.03125 v 5.01562 z m 21.85327,-1.1875 q -0.92188,0.76563 -1.76563,1.09375 -0.82812,0.3125 -1.79687,0.3125 -1.59375,0 -2.45313,-0.78125 -0.85937,-0.78125 -0.85937,-1.98437 0,-0.71875 0.32812,-1.29688 0.32813,-0.59375 0.84375,-0.9375 0.53125,-0.35937 1.1875,-0.54687 0.46875,-0.125 1.45313,-0.25 1.98437,-0.23438 2.92187,-0.5625 0.0156,-0.34375 0.0156,-0.42188 0,-1 -0.46875,-1.42187 -0.625,-0.54688 -1.875,-0.54688 -1.15625,0 -1.70313,0.40625 -0.54687,0.40625 -0.8125,1.42188 l -1.60937,-0.21875 q 0.21875,-1.01563 0.71875,-1.64063 0.5,-0.64062 1.45312,-0.98437 0.95313,-0.34375 2.1875,-0.34375 1.25,0 2.01563,0.29687 0.78125,0.28125 1.14062,0.73438 0.375,0.4375 0.51563,1.10937 0.0781,0.42188 0.0781,1.51563 v 2.1875 q 0,2.28125 0.10938,2.89062 0.10937,0.59375 0.40625,1.15625 h -1.70313 q -0.26562,-0.51562 -0.32812,-1.1875 z m -0.14063,-3.67187 q -0.89062,0.375 -2.67187,0.625 -1.01563,0.14062 -1.4375,0.32812 -0.42188,0.1875 -0.65625,0.53125 -0.21875,0.34375 -0.21875,0.78125 0,0.65625 0.5,1.09375 0.5,0.4375 1.45312,0.4375 0.9375,0 1.67188,-0.40625 0.75,-0.42187 1.09375,-1.14062 0.26562,-0.5625 0.26562,-1.64063 z m 3.54761,1.96875 1.625,-0.25 q 0.125,0.96875 0.75,1.5 0.625,0.51562 1.75,0.51562 1.125,0 1.67187,-0.45312 0.54688,-0.46875 0.54688,-1.09375 0,-0.54688 -0.48438,-0.875 -0.32812,-0.21875 -1.67187,-0.54688 -1.8125,-0.46875 -2.51563,-0.79687 -0.6875,-0.32813 -1.04687,-0.90625 -0.35938,-0.59375 -0.35938,-1.3125 0,-0.64063 0.29688,-1.1875 0.29687,-0.5625 0.8125,-0.92188 0.375,-0.28125 1.03125,-0.46875 0.67187,-0.20312 1.42187,-0.20312 1.14063,0 2,0.32812 0.85938,0.32813 1.26563,0.89063 0.42187,0.5625 0.57812,1.5 l -1.60937,0.21875 q -0.10938,-0.75 -0.64063,-1.17188 -0.51562,-0.42187 -1.46875,-0.42187 -1.14062,0 -1.625,0.375 -0.46875,0.375 -0.46875,0.875 0,0.3125 0.1875,0.57812 0.20313,0.26563 0.64063,0.4375 0.23437,0.0937 1.4375,0.42188 1.75,0.45312 2.4375,0.75 0.6875,0.29687 1.07812,0.85937 0.39063,0.5625 0.39063,1.40625 0,0.82813 -0.48438,1.54688 -0.46875,0.71875 -1.375,1.125 -0.90625,0.39062 -2.04687,0.39062 -1.875,0 -2.875,-0.78125 -0.98438,-0.78125 -1.25,-2.32812 z m 9.98437,2.89062 v -13.35937 h 1.64063 v 7.625 l 3.89062,-3.9375 h 2.10938 l -3.6875,3.59375 4.0625,6.07812 h -2.01563 l -3.20312,-4.95312 -1.15625,1.125 v 3.82812 z m 9.32813,-11.46875 v -1.89062 h 1.64062 v 1.89062 z m 0,11.46875 v -9.67187 h 1.64062 v 9.67187 z m 4.14484,0 v -9.67187 h 1.46875 v 1.375 q 1.0625,-1.59375 3.07812,-1.59375 0.875,0 1.60938,0.3125 0.73437,0.3125 1.09375,0.82812 0.375,0.5 0.51562,1.20313 0.0937,0.45312 0.0937,1.59375 v 5.95312 h -1.64062 v -5.89062 q 0,-1 -0.20313,-1.48438 -0.1875,-0.5 -0.67187,-0.79687 -0.48438,-0.29688 -1.14063,-0.29688 -1.04687,0 -1.8125,0.67188 -0.75,0.65625 -0.75,2.51562 v 5.28125 z m 10.06323,0.79688 1.59375,0.23437 q 0.10937,0.75 0.5625,1.07813 0.60937,0.45312 1.67187,0.45312 1.14063,0 1.75,-0.45312 0.625,-0.45313 0.84375,-1.26563 0.125,-0.5 0.10938,-2.10937 -1.0625,1.26562 -2.67188,1.26562 -2,0 -3.09375,-1.4375 -1.09375,-1.4375 -1.09375,-3.45312 0,-1.39063 0.5,-2.5625 0.51563,-1.17188 1.45313,-1.79688 0.95312,-0.64062 2.25,-0.64062 1.70312,0 2.8125,1.375 v -1.15625 h 1.51562 v 8.35937 q 0,2.26563 -0.46875,3.20313 -0.45312,0.9375 -1.45312,1.48437 -0.98438,0.54688 -2.45313,0.54688 -1.71875,0 -2.79687,-0.78125 -1.0625,-0.76563 -1.03125,-2.34375 z m 1.35937,-5.8125 q 0,1.90625 0.75,2.78125 0.76563,0.875 1.90625,0.875 1.125,0 1.89063,-0.85938 0.76562,-0.875 0.76562,-2.73437 0,-1.78125 -0.79687,-2.67188 -0.78125,-0.90625 -1.89063,-0.90625 -1.09375,0 -1.85937,0.89063 -0.76563,0.875 -0.76563,2.625 z"
       id="path59"
       inkscape:connector-curvature="0"
       style="fill:#000000;fill-rule:nonzero" />
    <path
       d="m 576,198.01575 h 56"
       id="path61"
       inkscape:connector-curvature="0"
       style="fill:#000000;fill-opacity:0;fill-rule:evenodd" />
    <path
       d="m 576,198.01575 h 50"
       id="path63"
       inkscape:connector-curvature="0"
       style="fill-rule:evenodd;stroke:#000000;stroke-width:1;stroke-linecap:butt;stroke-linejoin:round" />
    <path
       d="m 626,199.66748 4.53809,-1.65173 L 626,196.36401 Z"
       id="path65"
       inkscape:connector-curvature="0"
       style="fill:#000000;fill-rule:evenodd;stroke:#000000;stroke-width:1;stroke-linecap:butt" />
    <path
       d="m 776,198.01575 h 56"
       id="path67"
       inkscape:connector-curvature="0"
       style="fill:#000000;fill-opacity:0;fill-rule:evenodd" />
    <path
       d="m 776,198.01575 h 50"
       id="path69"
       inkscape:connector-curvature="0"
       style="fill-rule:evenodd;stroke:#000000;stroke-width:1;stroke-linecap:butt;stroke-linejoin:round" />
    <path
       d="m 826,199.66748 4.53809,-1.65173 L 826,196.36401 Z"
       id="path71"
       inkscape:connector-curvature="0"
       style="fill:#000000;fill-rule:evenodd;stroke:#000000;stroke-width:1;stroke-linecap:butt" />
    <path
       d="m 480.50394,197.98425 h -0.002 v 57.03143 H 704 v -24.99994"
       id="path73"
       inkscape:connector-curvature="0"
       style="fill:#000000;fill-opacity:0;fill-rule:evenodd" />
    <path
       d="m 480.50394,197.98425 h -0.002 v 57.03143 H 704 v -18.99994"
       id="path75"
       inkscape:connector-curvature="0"
       style="fill-rule:evenodd;stroke:#000000;stroke-width:1;stroke-linecap:butt;stroke-linejoin:round" />
    <path
       d="M 705.65173,236.01575 704,231.47765 l -1.65174,4.5381 z"
       id="path77"
       inkscape:connector-curvature="0"
       style="fill:#000000;fill-rule:evenodd;stroke:#000000;stroke-width:1;stroke-linecap:butt" />
  </g>
</svg>
