<?xml version="1.0" encoding="utf-8" standalone="no"?>
<!DOCTYPE svg PUBLIC "-//W3C//DTD SVG 1.1//EN"
  "http://www.w3.org/Graphics/SVG/1.1/DTD/svg11.dtd">
<!-- Created with matplotlib (https://matplotlib.org/) -->
<svg height="288pt" version="1.1" viewBox="0 0 720 288" width="720pt" xmlns="http://www.w3.org/2000/svg" xmlns:xlink="http://www.w3.org/1999/xlink">
 <defs>
  <style type="text/css">
*{stroke-linecap:butt;stroke-linejoin:round;}
  </style>
 </defs>
 <g id="figure_1">
  <g id="patch_1">
   <path d="M 0 288 
L 720 288 
L 720 0 
L 0 0 
z
" style="fill:#ffffff;"/>
  </g>
  <g id="axes_1">
   <g id="patch_2">
    <path d="M 52.671113 246.7 
L 331.490102 246.7 
L 331.490102 44 
L 52.671113 44 
z
" style="fill:#eeeeee;"/>
   </g>
   <g id="matplotlib.axis_1">
    <g id="xtick_1">
     <g id="line2d_1">
      <path clip-path="url(#p031cd8bac3)" d="M 65.344704 246.7 
L 65.344704 44 
" style="fill:none;stroke:#b2b2b2;stroke-dasharray:1.85,0.8;stroke-dashoffset:0;stroke-width:0.5;"/>
     </g>
     <g id="line2d_2">
      <defs>
       <path d="M 0 0 
L 0 -3.5 
" id="m891ad0e156" style="stroke:#000000;stroke-width:0.8;"/>
      </defs>
      <g>
       <use style="stroke:#000000;stroke-width:0.8;" x="65.344704" xlink:href="#m891ad0e156" y="246.7"/>
      </g>
     </g>
     <g id="text_1">
      <!-- 0 -->
      <defs>
       <path d="M 31.78125 66.40625 
Q 24.171875 66.40625 20.328125 58.90625 
Q 16.5 51.421875 16.5 36.375 
Q 16.5 21.390625 20.328125 13.890625 
Q 24.171875 6.390625 31.78125 6.390625 
Q 39.453125 6.390625 43.28125 13.890625 
Q 47.125 21.390625 47.125 36.375 
Q 47.125 51.421875 43.28125 58.90625 
Q 39.453125 66.40625 31.78125 66.40625 
z
M 31.78125 74.21875 
Q 44.046875 74.21875 50.515625 64.515625 
Q 56.984375 54.828125 56.984375 36.375 
Q 56.984375 17.96875 50.515625 8.265625 
Q 44.046875 -1.421875 31.78125 -1.421875 
Q 19.53125 -1.421875 13.0625 8.265625 
Q 6.59375 17.96875 6.59375 36.375 
Q 6.59375 54.828125 13.0625 64.515625 
Q 19.53125 74.21875 31.78125 74.21875 
z
" id="DejaVuSans-48"/>
      </defs>
      <g transform="translate(62.163454 257.798437)scale(0.1 -0.1)">
       <use xlink:href="#DejaVuSans-48"/>
      </g>
     </g>
    </g>
    <g id="xtick_2">
     <g id="line2d_3">
      <path clip-path="url(#p031cd8bac3)" d="M 107.604091 246.7 
L 107.604091 44 
" style="fill:none;stroke:#b2b2b2;stroke-dasharray:1.85,0.8;stroke-dashoffset:0;stroke-width:0.5;"/>
     </g>
     <g id="line2d_4">
      <g>
       <use style="stroke:#000000;stroke-width:0.8;" x="107.604091" xlink:href="#m891ad0e156" y="246.7"/>
      </g>
     </g>
     <g id="text_2">
      <!-- 50 -->
      <defs>
       <path d="M 10.796875 72.90625 
L 49.515625 72.90625 
L 49.515625 64.59375 
L 19.828125 64.59375 
L 19.828125 46.734375 
Q 21.96875 47.46875 24.109375 47.828125 
Q 26.265625 48.1875 28.421875 48.1875 
Q 40.625 48.1875 47.75 41.5 
Q 54.890625 34.8125 54.890625 23.390625 
Q 54.890625 11.625 47.5625 5.09375 
Q 40.234375 -1.421875 26.90625 -1.421875 
Q 22.3125 -1.421875 17.546875 -0.640625 
Q 12.796875 0.140625 7.71875 1.703125 
L 7.71875 11.625 
Q 12.109375 9.234375 16.796875 8.0625 
Q 21.484375 6.890625 26.703125 6.890625 
Q 35.15625 6.890625 40.078125 11.328125 
Q 45.015625 15.765625 45.015625 23.390625 
Q 45.015625 31 40.078125 35.4375 
Q 35.15625 39.890625 26.703125 39.890625 
Q 22.75 39.890625 18.8125 39.015625 
Q 14.890625 38.140625 10.796875 36.28125 
z
" id="DejaVuSans-53"/>
      </defs>
      <g transform="translate(101.241591 257.798437)scale(0.1 -0.1)">
       <use xlink:href="#DejaVuSans-53"/>
       <use x="63.623047" xlink:href="#DejaVuSans-48"/>
      </g>
     </g>
    </g>
    <g id="xtick_3">
     <g id="line2d_5">
      <path clip-path="url(#p031cd8bac3)" d="M 149.863479 246.7 
L 149.863479 44 
" style="fill:none;stroke:#b2b2b2;stroke-dasharray:1.85,0.8;stroke-dashoffset:0;stroke-width:0.5;"/>
     </g>
     <g id="line2d_6">
      <g>
       <use style="stroke:#000000;stroke-width:0.8;" x="149.863479" xlink:href="#m891ad0e156" y="246.7"/>
      </g>
     </g>
     <g id="text_3">
      <!-- 100 -->
      <defs>
       <path d="M 12.40625 8.296875 
L 28.515625 8.296875 
L 28.515625 63.921875 
L 10.984375 60.40625 
L 10.984375 69.390625 
L 28.421875 72.90625 
L 38.28125 72.90625 
L 38.28125 8.296875 
L 54.390625 8.296875 
L 54.390625 0 
L 12.40625 0 
z
" id="DejaVuSans-49"/>
      </defs>
      <g transform="translate(140.319729 257.798437)scale(0.1 -0.1)">
       <use xlink:href="#DejaVuSans-49"/>
       <use x="63.623047" xlink:href="#DejaVuSans-48"/>
       <use x="127.246094" xlink:href="#DejaVuSans-48"/>
      </g>
     </g>
    </g>
    <g id="xtick_4">
     <g id="line2d_7">
      <path clip-path="url(#p031cd8bac3)" d="M 192.122867 246.7 
L 192.122867 44 
" style="fill:none;stroke:#b2b2b2;stroke-dasharray:1.85,0.8;stroke-dashoffset:0;stroke-width:0.5;"/>
     </g>
     <g id="line2d_8">
      <g>
       <use style="stroke:#000000;stroke-width:0.8;" x="192.122867" xlink:href="#m891ad0e156" y="246.7"/>
      </g>
     </g>
     <g id="text_4">
      <!-- 150 -->
      <g transform="translate(182.579117 257.798437)scale(0.1 -0.1)">
       <use xlink:href="#DejaVuSans-49"/>
       <use x="63.623047" xlink:href="#DejaVuSans-53"/>
       <use x="127.246094" xlink:href="#DejaVuSans-48"/>
      </g>
     </g>
    </g>
    <g id="xtick_5">
     <g id="line2d_9">
      <path clip-path="url(#p031cd8bac3)" d="M 234.382255 246.7 
L 234.382255 44 
" style="fill:none;stroke:#b2b2b2;stroke-dasharray:1.85,0.8;stroke-dashoffset:0;stroke-width:0.5;"/>
     </g>
     <g id="line2d_10">
      <g>
       <use style="stroke:#000000;stroke-width:0.8;" x="234.382255" xlink:href="#m891ad0e156" y="246.7"/>
      </g>
     </g>
     <g id="text_5">
      <!-- 200 -->
      <defs>
       <path d="M 19.1875 8.296875 
L 53.609375 8.296875 
L 53.609375 0 
L 7.328125 0 
L 7.328125 8.296875 
Q 12.9375 14.109375 22.625 23.890625 
Q 32.328125 33.6875 34.8125 36.53125 
Q 39.546875 41.84375 41.421875 45.53125 
Q 43.3125 49.21875 43.3125 52.78125 
Q 43.3125 58.59375 39.234375 62.25 
Q 35.15625 65.921875 28.609375 65.921875 
Q 23.96875 65.921875 18.8125 64.3125 
Q 13.671875 62.703125 7.8125 59.421875 
L 7.8125 69.390625 
Q 13.765625 71.78125 18.9375 73 
Q 24.125 74.21875 28.421875 74.21875 
Q 39.75 74.21875 46.484375 68.546875 
Q 53.21875 62.890625 53.21875 53.421875 
Q 53.21875 48.921875 51.53125 44.890625 
Q 49.859375 40.875 45.40625 35.40625 
Q 44.1875 33.984375 37.640625 27.21875 
Q 31.109375 20.453125 19.1875 8.296875 
z
" id="DejaVuSans-50"/>
      </defs>
      <g transform="translate(224.838505 257.798437)scale(0.1 -0.1)">
       <use xlink:href="#DejaVuSans-50"/>
       <use x="63.623047" xlink:href="#DejaVuSans-48"/>
       <use x="127.246094" xlink:href="#DejaVuSans-48"/>
      </g>
     </g>
    </g>
    <g id="xtick_6">
     <g id="line2d_11">
      <path clip-path="url(#p031cd8bac3)" d="M 276.641643 246.7 
L 276.641643 44 
" style="fill:none;stroke:#b2b2b2;stroke-dasharray:1.85,0.8;stroke-dashoffset:0;stroke-width:0.5;"/>
     </g>
     <g id="line2d_12">
      <g>
       <use style="stroke:#000000;stroke-width:0.8;" x="276.641643" xlink:href="#m891ad0e156" y="246.7"/>
      </g>
     </g>
     <g id="text_6">
      <!-- 250 -->
      <g transform="translate(267.097893 257.798437)scale(0.1 -0.1)">
       <use xlink:href="#DejaVuSans-50"/>
       <use x="63.623047" xlink:href="#DejaVuSans-53"/>
       <use x="127.246094" xlink:href="#DejaVuSans-48"/>
      </g>
     </g>
    </g>
    <g id="xtick_7">
     <g id="line2d_13">
      <path clip-path="url(#p031cd8bac3)" d="M 318.90103 246.7 
L 318.90103 44 
" style="fill:none;stroke:#b2b2b2;stroke-dasharray:1.85,0.8;stroke-dashoffset:0;stroke-width:0.5;"/>
     </g>
     <g id="line2d_14">
      <g>
       <use style="stroke:#000000;stroke-width:0.8;" x="318.90103" xlink:href="#m891ad0e156" y="246.7"/>
      </g>
     </g>
     <g id="text_7">
      <!-- 300 -->
      <defs>
       <path d="M 40.578125 39.3125 
Q 47.65625 37.796875 51.625 33 
Q 55.609375 28.21875 55.609375 21.1875 
Q 55.609375 10.40625 48.1875 4.484375 
Q 40.765625 -1.421875 27.09375 -1.421875 
Q 22.515625 -1.421875 17.65625 -0.515625 
Q 12.796875 0.390625 7.625 2.203125 
L 7.625 11.71875 
Q 11.71875 9.328125 16.59375 8.109375 
Q 21.484375 6.890625 26.8125 6.890625 
Q 36.078125 6.890625 40.9375 10.546875 
Q 45.796875 14.203125 45.796875 21.1875 
Q 45.796875 27.640625 41.28125 31.265625 
Q 36.765625 34.90625 28.71875 34.90625 
L 20.21875 34.90625 
L 20.21875 43.015625 
L 29.109375 43.015625 
Q 36.375 43.015625 40.234375 45.921875 
Q 44.09375 48.828125 44.09375 54.296875 
Q 44.09375 59.90625 40.109375 62.90625 
Q 36.140625 65.921875 28.71875 65.921875 
Q 24.65625 65.921875 20.015625 65.03125 
Q 15.375 64.15625 9.8125 62.3125 
L 9.8125 71.09375 
Q 15.4375 72.65625 20.34375 73.4375 
Q 25.25 74.21875 29.59375 74.21875 
Q 40.828125 74.21875 47.359375 69.109375 
Q 53.90625 64.015625 53.90625 55.328125 
Q 53.90625 49.265625 50.4375 45.09375 
Q 46.96875 40.921875 40.578125 39.3125 
z
" id="DejaVuSans-51"/>
      </defs>
      <g transform="translate(309.35728 257.798437)scale(0.1 -0.1)">
       <use xlink:href="#DejaVuSans-51"/>
       <use x="63.623047" xlink:href="#DejaVuSans-48"/>
       <use x="127.246094" xlink:href="#DejaVuSans-48"/>
      </g>
     </g>
    </g>
    <g id="text_8">
     <!-- time -->
     <defs>
      <path d="M 18.3125 70.21875 
L 18.3125 54.6875 
L 36.8125 54.6875 
L 36.8125 47.703125 
L 18.3125 47.703125 
L 18.3125 18.015625 
Q 18.3125 11.328125 20.140625 9.421875 
Q 21.96875 7.515625 27.59375 7.515625 
L 36.8125 7.515625 
L 36.8125 0 
L 27.59375 0 
Q 17.1875 0 13.234375 3.875 
Q 9.28125 7.765625 9.28125 18.015625 
L 9.28125 47.703125 
L 2.6875 47.703125 
L 2.6875 54.6875 
L 9.28125 54.6875 
L 9.28125 70.21875 
z
" id="DejaVuSans-116"/>
      <path d="M 9.421875 54.6875 
L 18.40625 54.6875 
L 18.40625 0 
L 9.421875 0 
z
M 9.421875 75.984375 
L 18.40625 75.984375 
L 18.40625 64.59375 
L 9.421875 64.59375 
z
" id="DejaVuSans-105"/>
      <path d="M 52 44.1875 
Q 55.375 50.25 60.0625 53.125 
Q 64.75 56 71.09375 56 
Q 79.640625 56 84.28125 50.015625 
Q 88.921875 44.046875 88.921875 33.015625 
L 88.921875 0 
L 79.890625 0 
L 79.890625 32.71875 
Q 79.890625 40.578125 77.09375 44.375 
Q 74.3125 48.1875 68.609375 48.1875 
Q 61.625 48.1875 57.5625 43.546875 
Q 53.515625 38.921875 53.515625 30.90625 
L 53.515625 0 
L 44.484375 0 
L 44.484375 32.71875 
Q 44.484375 40.625 41.703125 44.40625 
Q 38.921875 48.1875 33.109375 48.1875 
Q 26.21875 48.1875 22.15625 43.53125 
Q 18.109375 38.875 18.109375 30.90625 
L 18.109375 0 
L 9.078125 0 
L 9.078125 54.6875 
L 18.109375 54.6875 
L 18.109375 46.1875 
Q 21.1875 51.21875 25.484375 53.609375 
Q 29.78125 56 35.6875 56 
Q 41.65625 56 45.828125 52.96875 
Q 50 49.953125 52 44.1875 
z
" id="DejaVuSans-109"/>
      <path d="M 56.203125 29.59375 
L 56.203125 25.203125 
L 14.890625 25.203125 
Q 15.484375 15.921875 20.484375 11.0625 
Q 25.484375 6.203125 34.421875 6.203125 
Q 39.59375 6.203125 44.453125 7.46875 
Q 49.3125 8.734375 54.109375 11.28125 
L 54.109375 2.78125 
Q 49.265625 0.734375 44.1875 -0.34375 
Q 39.109375 -1.421875 33.890625 -1.421875 
Q 20.796875 -1.421875 13.15625 6.1875 
Q 5.515625 13.8125 5.515625 26.8125 
Q 5.515625 40.234375 12.765625 48.109375 
Q 20.015625 56 32.328125 56 
Q 43.359375 56 49.78125 48.890625 
Q 56.203125 41.796875 56.203125 29.59375 
z
M 47.21875 32.234375 
Q 47.125 39.59375 43.09375 43.984375 
Q 39.0625 48.390625 32.421875 48.390625 
Q 24.90625 48.390625 20.390625 44.140625 
Q 15.875 39.890625 15.1875 32.171875 
z
" id="DejaVuSans-101"/>
     </defs>
     <g transform="translate(178.525295 272.99625)scale(0.12 -0.12)">
      <use xlink:href="#DejaVuSans-116"/>
      <use x="39.208984" xlink:href="#DejaVuSans-105"/>
      <use x="66.992188" xlink:href="#DejaVuSans-109"/>
      <use x="164.404297" xlink:href="#DejaVuSans-101"/>
     </g>
    </g>
   </g>
   <g id="matplotlib.axis_2">
    <g id="ytick_1">
     <g id="line2d_15">
      <path clip-path="url(#p031cd8bac3)" d="M 52.671113 246.259851 
L 331.490102 246.259851 
" style="fill:none;stroke:#b2b2b2;stroke-dasharray:1.85,0.8;stroke-dashoffset:0;stroke-width:0.5;"/>
     </g>
     <g id="line2d_16">
      <defs>
       <path d="M 0 0 
L 3.5 0 
" id="m833dcef029" style="stroke:#000000;stroke-width:0.8;"/>
      </defs>
      <g>
       <use style="stroke:#000000;stroke-width:0.8;" x="52.671113" xlink:href="#m833dcef029" y="246.259851"/>
      </g>
     </g>
     <g id="text_9">
      <!-- $\mathdefault{10^{-4}}$ -->
      <defs>
       <path d="M 4.890625 31.390625 
L 31.203125 31.390625 
L 31.203125 23.390625 
L 4.890625 23.390625 
z
" id="DejaVuSans-45"/>
       <path d="M 37.796875 64.3125 
L 12.890625 25.390625 
L 37.796875 25.390625 
z
M 35.203125 72.90625 
L 47.609375 72.90625 
L 47.609375 25.390625 
L 58.015625 25.390625 
L 58.015625 17.1875 
L 47.609375 17.1875 
L 47.609375 0 
L 37.796875 0 
L 37.796875 17.1875 
L 4.890625 17.1875 
L 4.890625 26.703125 
z
" id="DejaVuSans-52"/>
      </defs>
      <g transform="translate(29.071113 250.059069)scale(0.1 -0.1)">
       <use transform="translate(0 0.684375)" xlink:href="#DejaVuSans-49"/>
       <use transform="translate(63.623047 0.684375)" xlink:href="#DejaVuSans-48"/>
       <use transform="translate(128.203125 38.965625)scale(0.7)" xlink:href="#DejaVuSans-45"/>
       <use transform="translate(153.461914 38.965625)scale(0.7)" xlink:href="#DejaVuSans-52"/>
      </g>
     </g>
    </g>
    <g id="ytick_2">
     <g id="line2d_17">
      <path clip-path="url(#p031cd8bac3)" d="M 52.671113 188.641914 
L 331.490102 188.641914 
" style="fill:none;stroke:#b2b2b2;stroke-dasharray:1.85,0.8;stroke-dashoffset:0;stroke-width:0.5;"/>
     </g>
     <g id="line2d_18">
      <g>
       <use style="stroke:#000000;stroke-width:0.8;" x="52.671113" xlink:href="#m833dcef029" y="188.641914"/>
      </g>
     </g>
     <g id="text_10">
      <!-- $\mathdefault{10^{-3}}$ -->
      <g transform="translate(29.071113 192.441133)scale(0.1 -0.1)">
       <use transform="translate(0 0.765625)" xlink:href="#DejaVuSans-49"/>
       <use transform="translate(63.623047 0.765625)" xlink:href="#DejaVuSans-48"/>
       <use transform="translate(128.203125 39.046875)scale(0.7)" xlink:href="#DejaVuSans-45"/>
       <use transform="translate(153.461914 39.046875)scale(0.7)" xlink:href="#DejaVuSans-51"/>
      </g>
     </g>
    </g>
    <g id="ytick_3">
     <g id="line2d_19">
      <path clip-path="url(#p031cd8bac3)" d="M 52.671113 131.023978 
L 331.490102 131.023978 
" style="fill:none;stroke:#b2b2b2;stroke-dasharray:1.85,0.8;stroke-dashoffset:0;stroke-width:0.5;"/>
     </g>
     <g id="line2d_20">
      <g>
       <use style="stroke:#000000;stroke-width:0.8;" x="52.671113" xlink:href="#m833dcef029" y="131.023978"/>
      </g>
     </g>
     <g id="text_11">
      <!-- $\mathdefault{10^{-2}}$ -->
      <g transform="translate(29.071113 134.823196)scale(0.1 -0.1)">
       <use transform="translate(0 0.765625)" xlink:href="#DejaVuSans-49"/>
       <use transform="translate(63.623047 0.765625)" xlink:href="#DejaVuSans-48"/>
       <use transform="translate(128.203125 39.046875)scale(0.7)" xlink:href="#DejaVuSans-45"/>
       <use transform="translate(153.461914 39.046875)scale(0.7)" xlink:href="#DejaVuSans-50"/>
      </g>
     </g>
    </g>
    <g id="ytick_4">
     <g id="line2d_21">
      <path clip-path="url(#p031cd8bac3)" d="M 52.671113 73.406041 
L 331.490102 73.406041 
" style="fill:none;stroke:#b2b2b2;stroke-dasharray:1.85,0.8;stroke-dashoffset:0;stroke-width:0.5;"/>
     </g>
     <g id="line2d_22">
      <g>
       <use style="stroke:#000000;stroke-width:0.8;" x="52.671113" xlink:href="#m833dcef029" y="73.406041"/>
      </g>
     </g>
     <g id="text_12">
      <!-- $\mathdefault{10^{-1}}$ -->
      <g transform="translate(29.071113 77.20526)scale(0.1 -0.1)">
       <use transform="translate(0 0.684375)" xlink:href="#DejaVuSans-49"/>
       <use transform="translate(63.623047 0.684375)" xlink:href="#DejaVuSans-48"/>
       <use transform="translate(128.203125 38.965625)scale(0.7)" xlink:href="#DejaVuSans-45"/>
       <use transform="translate(153.461914 38.965625)scale(0.7)" xlink:href="#DejaVuSans-49"/>
      </g>
     </g>
    </g>
    <g id="ytick_5">
     <g id="line2d_23">
      <defs>
       <path d="M 0 0 
L 2 0 
" id="m71e4b4fc50" style="stroke:#000000;stroke-width:0.6;"/>
      </defs>
      <g>
       <use style="stroke:#000000;stroke-width:0.6;" x="52.671113" xlink:href="#m71e4b4fc50" y="228.915123"/>
      </g>
     </g>
    </g>
    <g id="ytick_6">
     <g id="line2d_24">
      <g>
       <use style="stroke:#000000;stroke-width:0.6;" x="52.671113" xlink:href="#m71e4b4fc50" y="218.769108"/>
      </g>
     </g>
    </g>
    <g id="ytick_7">
     <g id="line2d_25">
      <g>
       <use style="stroke:#000000;stroke-width:0.6;" x="52.671113" xlink:href="#m71e4b4fc50" y="211.570396"/>
      </g>
     </g>
    </g>
    <g id="ytick_8">
     <g id="line2d_26">
      <g>
       <use style="stroke:#000000;stroke-width:0.6;" x="52.671113" xlink:href="#m71e4b4fc50" y="205.986641"/>
      </g>
     </g>
    </g>
    <g id="ytick_9">
     <g id="line2d_27">
      <g>
       <use style="stroke:#000000;stroke-width:0.6;" x="52.671113" xlink:href="#m71e4b4fc50" y="201.424381"/>
      </g>
     </g>
    </g>
    <g id="ytick_10">
     <g id="line2d_28">
      <g>
       <use style="stroke:#000000;stroke-width:0.6;" x="52.671113" xlink:href="#m71e4b4fc50" y="197.567045"/>
      </g>
     </g>
    </g>
    <g id="ytick_11">
     <g id="line2d_29">
      <g>
       <use style="stroke:#000000;stroke-width:0.6;" x="52.671113" xlink:href="#m71e4b4fc50" y="194.225669"/>
      </g>
     </g>
    </g>
    <g id="ytick_12">
     <g id="line2d_30">
      <g>
       <use style="stroke:#000000;stroke-width:0.6;" x="52.671113" xlink:href="#m71e4b4fc50" y="191.278366"/>
      </g>
     </g>
    </g>
    <g id="ytick_13">
     <g id="line2d_31">
      <g>
       <use style="stroke:#000000;stroke-width:0.6;" x="52.671113" xlink:href="#m71e4b4fc50" y="171.297187"/>
      </g>
     </g>
    </g>
    <g id="ytick_14">
     <g id="line2d_32">
      <g>
       <use style="stroke:#000000;stroke-width:0.6;" x="52.671113" xlink:href="#m71e4b4fc50" y="161.151172"/>
      </g>
     </g>
    </g>
    <g id="ytick_15">
     <g id="line2d_33">
      <g>
       <use style="stroke:#000000;stroke-width:0.6;" x="52.671113" xlink:href="#m71e4b4fc50" y="153.95246"/>
      </g>
     </g>
    </g>
    <g id="ytick_16">
     <g id="line2d_34">
      <g>
       <use style="stroke:#000000;stroke-width:0.6;" x="52.671113" xlink:href="#m71e4b4fc50" y="148.368705"/>
      </g>
     </g>
    </g>
    <g id="ytick_17">
     <g id="line2d_35">
      <g>
       <use style="stroke:#000000;stroke-width:0.6;" x="52.671113" xlink:href="#m71e4b4fc50" y="143.806445"/>
      </g>
     </g>
    </g>
    <g id="ytick_18">
     <g id="line2d_36">
      <g>
       <use style="stroke:#000000;stroke-width:0.6;" x="52.671113" xlink:href="#m71e4b4fc50" y="139.949109"/>
      </g>
     </g>
    </g>
    <g id="ytick_19">
     <g id="line2d_37">
      <g>
       <use style="stroke:#000000;stroke-width:0.6;" x="52.671113" xlink:href="#m71e4b4fc50" y="136.607733"/>
      </g>
     </g>
    </g>
    <g id="ytick_20">
     <g id="line2d_38">
      <g>
       <use style="stroke:#000000;stroke-width:0.6;" x="52.671113" xlink:href="#m71e4b4fc50" y="133.66043"/>
      </g>
     </g>
    </g>
    <g id="ytick_21">
     <g id="line2d_39">
      <g>
       <use style="stroke:#000000;stroke-width:0.6;" x="52.671113" xlink:href="#m71e4b4fc50" y="113.67925"/>
      </g>
     </g>
    </g>
    <g id="ytick_22">
     <g id="line2d_40">
      <g>
       <use style="stroke:#000000;stroke-width:0.6;" x="52.671113" xlink:href="#m71e4b4fc50" y="103.533235"/>
      </g>
     </g>
    </g>
    <g id="ytick_23">
     <g id="line2d_41">
      <g>
       <use style="stroke:#000000;stroke-width:0.6;" x="52.671113" xlink:href="#m71e4b4fc50" y="96.334523"/>
      </g>
     </g>
    </g>
    <g id="ytick_24">
     <g id="line2d_42">
      <g>
       <use style="stroke:#000000;stroke-width:0.6;" x="52.671113" xlink:href="#m71e4b4fc50" y="90.750768"/>
      </g>
     </g>
    </g>
    <g id="ytick_25">
     <g id="line2d_43">
      <g>
       <use style="stroke:#000000;stroke-width:0.6;" x="52.671113" xlink:href="#m71e4b4fc50" y="86.188508"/>
      </g>
     </g>
    </g>
    <g id="ytick_26">
     <g id="line2d_44">
      <g>
       <use style="stroke:#000000;stroke-width:0.6;" x="52.671113" xlink:href="#m71e4b4fc50" y="82.331172"/>
      </g>
     </g>
    </g>
    <g id="ytick_27">
     <g id="line2d_45">
      <g>
       <use style="stroke:#000000;stroke-width:0.6;" x="52.671113" xlink:href="#m71e4b4fc50" y="78.989796"/>
      </g>
     </g>
    </g>
    <g id="ytick_28">
     <g id="line2d_46">
      <g>
       <use style="stroke:#000000;stroke-width:0.6;" x="52.671113" xlink:href="#m71e4b4fc50" y="76.042493"/>
      </g>
     </g>
    </g>
    <g id="ytick_29">
     <g id="line2d_47">
      <g>
       <use style="stroke:#000000;stroke-width:0.6;" x="52.671113" xlink:href="#m71e4b4fc50" y="56.061314"/>
      </g>
     </g>
    </g>
    <g id="ytick_30">
     <g id="line2d_48">
      <g>
       <use style="stroke:#000000;stroke-width:0.6;" x="52.671113" xlink:href="#m71e4b4fc50" y="45.915299"/>
      </g>
     </g>
    </g>
    <g id="text_13">
     <!-- loss -->
     <defs>
      <path d="M 9.421875 75.984375 
L 18.40625 75.984375 
L 18.40625 0 
L 9.421875 0 
z
" id="DejaVuSans-108"/>
      <path d="M 30.609375 48.390625 
Q 23.390625 48.390625 19.1875 42.75 
Q 14.984375 37.109375 14.984375 27.296875 
Q 14.984375 17.484375 19.15625 11.84375 
Q 23.34375 6.203125 30.609375 6.203125 
Q 37.796875 6.203125 41.984375 11.859375 
Q 46.1875 17.53125 46.1875 27.296875 
Q 46.1875 37.015625 41.984375 42.703125 
Q 37.796875 48.390625 30.609375 48.390625 
z
M 30.609375 56 
Q 42.328125 56 49.015625 48.375 
Q 55.71875 40.765625 55.71875 27.296875 
Q 55.71875 13.875 49.015625 6.21875 
Q 42.328125 -1.421875 30.609375 -1.421875 
Q 18.84375 -1.421875 12.171875 6.21875 
Q 5.515625 13.875 5.515625 27.296875 
Q 5.515625 40.765625 12.171875 48.375 
Q 18.84375 56 30.609375 56 
z
" id="DejaVuSans-111"/>
      <path d="M 44.28125 53.078125 
L 44.28125 44.578125 
Q 40.484375 46.53125 36.375 47.5 
Q 32.28125 48.484375 27.875 48.484375 
Q 21.1875 48.484375 17.84375 46.4375 
Q 14.5 44.390625 14.5 40.28125 
Q 14.5 37.15625 16.890625 35.375 
Q 19.28125 33.59375 26.515625 31.984375 
L 29.59375 31.296875 
Q 39.15625 29.25 43.1875 25.515625 
Q 47.21875 21.78125 47.21875 15.09375 
Q 47.21875 7.46875 41.1875 3.015625 
Q 35.15625 -1.421875 24.609375 -1.421875 
Q 20.21875 -1.421875 15.453125 -0.5625 
Q 10.6875 0.296875 5.421875 2 
L 5.421875 11.28125 
Q 10.40625 8.6875 15.234375 7.390625 
Q 20.0625 6.109375 24.8125 6.109375 
Q 31.15625 6.109375 34.5625 8.28125 
Q 37.984375 10.453125 37.984375 14.40625 
Q 37.984375 18.0625 35.515625 20.015625 
Q 33.0625 21.96875 24.703125 23.78125 
L 21.578125 24.515625 
Q 13.234375 26.265625 9.515625 29.90625 
Q 5.8125 33.546875 5.8125 39.890625 
Q 5.8125 47.609375 11.28125 51.796875 
Q 16.75 56 26.8125 56 
Q 31.78125 56 36.171875 55.265625 
Q 40.578125 54.546875 44.28125 53.078125 
z
" id="DejaVuSans-115"/>
     </defs>
     <g transform="translate(22.575488 156.939375)rotate(-90)scale(0.12 -0.12)">
      <use xlink:href="#DejaVuSans-108"/>
      <use x="27.783203" xlink:href="#DejaVuSans-111"/>
      <use x="88.964844" xlink:href="#DejaVuSans-115"/>
      <use x="141.064453" xlink:href="#DejaVuSans-115"/>
     </g>
    </g>
   </g>
   <g id="line2d_49">
    <path clip-path="url(#p031cd8bac3)" d="M 65.344704 82.859635 
L 67.035079 83.189608 
L 67.880267 83.738117 
L 68.809973 84.58044 
L 69.993236 86.004227 
L 72.021687 88.890153 
L 73.8811 91.882702 
L 75.402438 94.824941 
L 76.923776 98.302696 
L 78.952227 103.661683 
L 80.727121 109.013149 
L 82.417496 114.827099 
L 84.276909 122.150116 
L 86.727954 132.89673 
L 90.44678 149.224111 
L 92.221674 155.922691 
L 93.827531 161.182155 
L 95.517907 165.953419 
L 97.630876 171.225539 
L 99.912883 176.348407 
L 102.279409 180.97493 
L 104.730453 185.282228 
L 106.674385 188.279621 
L 109.125429 191.603134 
L 114.365594 198.069165 
L 118.845089 203.377866 
L 122.648434 207.908248 
L 124.338809 209.8975 
L 127.04341 213.019831 
L 130.846755 216.956872 
L 134.396543 220.422788 
L 137.185663 222.693936 
L 141.158045 225.851739 
L 142.510346 226.619302 
L 144.200721 227.323632 
L 145.975616 227.87196 
L 149.863479 228.753773 
L 153.328749 229.43904 
L 154.173937 229.549628 
L 155.695275 230.083874 
L 158.146319 230.854345 
L 167.274347 233.08304 
L 169.049241 233.249507 
L 169.725392 233.305081 
L 176.994006 234.617643 
L 180.966389 234.930477 
L 183.755508 234.861738 
L 184.431658 234.835901 
L 190.347973 235.575948 
L 195.588137 235.839427 
L 199.645038 235.802051 
L 202.518676 236.182281 
L 205.05424 236.362515 
L 210.463441 236.593031 
L 214.097749 236.57992 
L 216.633312 236.910135 
L 222.465108 237.14866 
L 225.845859 237.066666 
L 227.029121 236.897177 
L 227.705272 236.854285 
L 229.564685 237.085667 
L 231.846692 237.232906 
L 237.847525 237.307176 
L 241.228276 237.095918 
L 242.157982 236.922533 
L 243.256726 237.028251 
L 245.707771 237.257603 
L 250.271785 237.337111 
L 254.497723 237.251586 
L 257.793956 237.071629 
L 259.653369 237.280023 
L 264.132864 237.396263 
L 267.513615 237.424964 
L 269.373028 237.317579 
L 270.894366 237.128635 
L 271.570516 237.05343 
L 273.937042 237.323677 
L 275.711936 237.421941 
L 283.487663 237.404597 
L 285.516114 237.208648 
L 286.276783 237.080681 
L 287.460046 237.193629 
L 290.080128 237.407981 
L 293.460879 237.447824 
L 298.532006 237.354273 
L 300.3069 237.175999 
L 300.98305 237.051313 
L 302.081794 237.14147 
L 304.955432 237.388231 
L 312.224047 237.428866 
L 314.844129 237.257733 
L 315.942873 237.056162 
L 318.22488 237.313147 
L 318.816512 237.361322 
L 318.816512 237.361322 
" style="fill:none;stroke:#348abd;stroke-linecap:square;stroke-width:2;"/>
   </g>
   <g id="line2d_50">
    <path clip-path="url(#p031cd8bac3)" d="M 65.344704 82.859635 
L 67.035079 83.144236 
L 67.880267 83.66219 
L 68.894492 84.546618 
L 70.077755 85.94403 
L 71.768131 88.307617 
L 73.965619 91.797822 
L 75.486957 94.73504 
L 77.008295 98.23656 
L 78.867708 103.19001 
L 80.558083 108.31311 
L 82.417496 114.800151 
L 84.107872 121.5844 
L 86.30536 131.437733 
L 90.869374 152.263522 
L 92.559749 158.719656 
L 94.250125 164.2584 
L 96.109538 169.499448 
L 98.645101 175.92 
L 100.166439 179.330891 
L 102.702002 184.491801 
L 104.561416 187.879767 
L 106.758904 191.465366 
L 109.125429 194.836565 
L 112.168105 198.775215 
L 121.465171 210.359542 
L 123.831696 213.527768 
L 126.36726 216.476474 
L 129.748011 220.106387 
L 132.114536 222.163891 
L 133.466837 223.141707 
L 136.509513 225.677327 
L 138.030851 226.547794 
L 139.721226 227.253649 
L 142.087752 227.941715 
L 148.004066 229.328969 
L 149.356367 229.524729 
L 150.201554 229.674881 
L 155.779794 231.185449 
L 159.329582 232.056563 
L 161.865145 232.650143 
L 164.400709 233.018447 
L 165.753009 233.061706 
L 169.640873 233.893567 
L 175.219112 234.345989 
L 176.909487 234.406448 
L 181.304464 234.416577 
L 183.163877 234.704103 
L 187.051741 234.992779 
L 193.644205 235.171471 
L 194.489393 235.044505 
L 195.672656 235.207577 
L 197.532069 235.494962 
L 200.743782 235.74005 
L 206.322021 235.986421 
L 209.702772 235.98494 
L 212.407373 236.433839 
L 217.985612 236.781549 
L 220.859251 236.783938 
L 224.240002 236.643111 
L 226.775565 236.97235 
L 230.325354 237.086669 
L 236.917818 236.952599 
L 238.101081 236.730239 
L 239.453381 236.903141 
L 241.481832 237.095059 
L 248.750447 237.164523 
L 251.455048 237.004113 
L 252.63831 236.780898 
L 254.159648 236.97937 
L 256.188099 237.154105 
L 258.554625 237.214097 
L 266.330352 237.032451 
L 267.17554 236.849614 
L 268.358803 236.975875 
L 271.232441 237.247591 
L 275.627417 237.302402 
L 280.867581 237.122356 
L 282.219882 236.906549 
L 284.079295 237.151987 
L 286.276783 237.27983 
L 294.559623 237.158643 
L 296.080961 236.949604 
L 296.757111 236.870418 
L 298.109412 237.038249 
L 300.137862 237.222659 
L 307.575515 237.266092 
L 310.280115 237.095658 
L 311.463378 236.868276 
L 312.984716 237.064129 
L 315.013167 237.237859 
L 318.731993 237.296077 
L 318.731993 237.296077 
" style="fill:none;stroke:#a60628;stroke-linecap:square;stroke-width:2;"/>
   </g>
   <g id="line2d_51">
    <path clip-path="url(#p031cd8bac3)" d="M 65.344704 82.859635 
L 67.035079 83.020508 
L 67.880267 83.436074 
L 69.148049 84.440593 
L 70.41583 85.872745 
L 72.106206 88.216371 
L 74.219175 91.544433 
L 75.486957 93.852296 
L 76.754738 96.625647 
L 78.445114 101.039626 
L 80.135489 106.203121 
L 81.825865 112.264696 
L 83.51624 119.279294 
L 85.206616 127.174249 
L 87.742179 140.150894 
L 91.545524 159.78278 
L 92.813306 165.163661 
L 94.503681 171.159908 
L 97.461838 180.311395 
L 99.574808 186.046192 
L 101.265183 189.948847 
L 102.955559 193.346833 
L 104.22334 195.501201 
L 106.758904 199.320705 
L 109.294467 202.868349 
L 114.365594 209.554624 
L 116.478563 211.773266 
L 117.323751 212.595187 
L 119.014126 214.857385 
L 121.549689 218.250469 
L 122.817471 219.505032 
L 124.085253 220.411478 
L 127.04341 222.963509 
L 128.733785 224.0328 
L 129.578973 224.348692 
L 131.691943 225.785267 
L 133.382318 226.730303 
L 135.072694 227.410302 
L 139.298632 228.695985 
L 143.101977 229.481706 
L 144.369759 229.594686 
L 144.792353 229.598946 
L 146.060134 230.050347 
L 148.173104 230.756447 
L 150.286073 231.18759 
L 157.470169 232.311498 
L 159.160545 232.41699 
L 160.005732 232.261224 
L 160.85092 232.427633 
L 162.963889 232.941775 
L 165.076859 233.207917 
L 173.106143 233.681189 
L 173.528736 233.692857 
L 174.373924 233.500263 
L 175.641706 233.729112 
L 177.332081 234.079232 
L 179.445051 234.331013 
L 185.361365 234.753558 
L 187.896928 234.601312 
L 188.319522 234.508576 
L 189.16471 234.613095 
L 191.700273 235.129388 
L 192.968055 235.208013 
L 193.813243 235.201919 
L 194.65843 234.925203 
L 195.503618 235.019443 
L 198.461775 235.550757 
L 201.842526 235.764958 
L 206.068465 235.889872 
L 208.181434 235.704295 
L 208.604028 235.608765 
L 209.449216 235.720214 
L 212.407373 236.221446 
L 215.788124 236.416462 
L 220.014063 236.558415 
L 222.549626 236.313311 
L 222.97222 236.202349 
L 223.817408 236.290352 
L 225.930377 236.674513 
L 228.043347 236.82342 
L 233.959661 236.951128 
L 236.495224 236.795635 
L 237.340412 236.514914 
L 238.1856 236.608846 
L 240.298569 236.967278 
L 243.67932 237.118469 
L 250.863416 236.967399 
L 251.708604 236.692312 
L 252.553792 236.760082 
L 254.666761 237.103372 
L 256.77973 237.210776 
L 263.118639 237.208324 
L 265.231608 237.026171 
L 266.076796 236.727724 
L 266.921983 236.807839 
L 269.034953 237.135011 
L 272.415704 237.239908 
L 279.5998 237.019384 
L 280.444988 236.738182 
L 281.290175 236.801144 
L 283.403145 237.134452 
L 285.516114 237.233627 
L 291.855022 237.228941 
L 293.967992 237.051409 
L 294.813179 236.754612 
L 295.658367 236.83704 
L 297.771337 237.170633 
L 301.152088 237.284533 
L 308.336184 237.074013 
L 309.181371 236.791783 
L 310.026559 236.854212 
L 312.139528 237.184752 
L 314.252498 237.278065 
L 318.478437 237.280918 
L 318.478437 237.280918 
" style="fill:none;stroke:#7a68a6;stroke-linecap:square;stroke-width:2;"/>
   </g>
   <g id="line2d_52">
    <path clip-path="url(#p031cd8bac3)" d="M 65.344704 82.859635 
L 67.035079 82.84995 
L 67.880267 83.006459 
L 69.570642 83.72168 
L 70.41583 84.454667 
L 72.106206 86.501436 
L 75.486957 91.402417 
L 76.332145 92.646276 
L 77.177332 94.278336 
L 78.02252 96.30241 
L 79.712896 101.198994 
L 81.403271 106.631293 
L 82.248459 109.891914 
L 83.938834 118.051965 
L 84.784022 122.136135 
L 85.62921 125.243092 
L 86.474398 127.568583 
L 88.164773 131.474161 
L 89.009961 133.10152 
L 89.855149 133.954506 
L 90.700336 133.306989 
L 91.545524 131.683865 
L 92.390712 129.717546 
L 93.2359 128.248609 
L 94.081087 127.087162 
L 94.926275 125.527951 
L 95.771463 123.328399 
L 97.461838 118.299515 
L 98.307026 116.300643 
L 99.152214 114.896656 
L 100.842589 112.765108 
L 102.532965 111.180753 
L 103.378153 110.591723 
L 104.22334 110.198867 
L 105.913716 109.625805 
L 106.758904 108.874352 
L 108.449279 106.897404 
L 110.139655 105.031986 
L 111.83003 102.70845 
L 113.520406 100.897386 
L 114.365594 100.209482 
L 116.055969 99.169105 
L 119.43672 96.262837 
L 121.127096 95.570869 
L 121.972283 94.944048 
L 123.662659 93.169286 
L 127.04341 91.089816 
L 129.578973 89.248187 
L 131.269349 88.717927 
L 132.959724 88.077724 
L 138.030851 85.183686 
L 142.256789 82.256732 
L 145.63754 80.687298 
L 148.173104 79.341852 
L 149.018292 79.081819 
L 150.708667 78.10421 
L 153.24423 76.581247 
L 154.934606 75.500684 
L 160.85092 71.247885 
L 161.696108 70.772955 
L 163.386483 69.564756 
L 165.076859 68.642514 
L 170.147985 66.505439 
L 172.683549 65.245803 
L 175.219112 64.535057 
L 178.599863 63.687555 
L 180.290238 63.080621 
L 184.516177 61.449753 
L 187.051741 60.635993 
L 188.742116 59.949491 
L 192.968055 57.989595 
L 197.193994 56.8487 
L 202.26512 55.846468 
L 206.491059 55.418899 
L 209.026622 55.348858 
L 211.562185 55.159954 
L 213.252561 55.029314 
L 215.788124 54.970707 
L 221.704439 55.006226 
L 223.394814 54.92433 
L 230.156316 54.805772 
L 232.691879 55.0149 
L 235.227443 54.92069 
L 236.917818 54.715465 
L 240.298569 54.650089 
L 241.988945 54.716253 
L 247.060071 55.304057 
L 251.28601 54.987162 
L 253.821573 54.887431 
L 258.047512 55.092599 
L 260.583075 54.977942 
L 262.273451 55.004557 
L 265.654202 54.677059 
L 270.725328 54.838888 
L 278.332018 54.151162 
L 279.177206 53.979453 
L 285.09352 53.71462 
L 289.319459 53.772019 
L 291.009835 53.499624 
L 297.771337 53.276153 
L 299.461712 53.465022 
L 301.152088 53.56156 
L 304.532839 53.531075 
L 306.223214 53.509512 
L 307.91359 53.457695 
L 309.603965 53.599147 
L 312.984716 53.742007 
L 315.520279 53.675536 
L 318.055843 53.736573 
L 318.055843 53.736573 
" style="fill:none;stroke:#467821;stroke-dasharray:7.4,3.2;stroke-dashoffset:0;stroke-width:2;"/>
   </g>
   <g id="patch_3">
    <path d="M 52.671113 246.7 
L 52.671113 44 
" style="fill:none;stroke:#bcbcbc;stroke-linecap:square;stroke-linejoin:miter;stroke-width:0.8;"/>
   </g>
   <g id="patch_4">
    <path d="M 331.490102 246.7 
L 331.490102 44 
" style="fill:none;stroke:#bcbcbc;stroke-linecap:square;stroke-linejoin:miter;stroke-width:0.8;"/>
   </g>
   <g id="patch_5">
    <path d="M 52.671113 246.7 
L 331.490102 246.7 
" style="fill:none;stroke:#bcbcbc;stroke-linecap:square;stroke-linejoin:miter;stroke-width:0.8;"/>
   </g>
   <g id="patch_6">
    <path d="M 52.671113 44 
L 331.490102 44 
" style="fill:none;stroke:#bcbcbc;stroke-linecap:square;stroke-linejoin:miter;stroke-width:0.8;"/>
   </g>
   <g id="text_14">
    <!-- "asynchronous" model -->
    <defs>
     <path d="M 17.921875 72.90625 
L 17.921875 45.796875 
L 9.625 45.796875 
L 9.625 72.90625 
z
M 36.375 72.90625 
L 36.375 45.796875 
L 28.078125 45.796875 
L 28.078125 72.90625 
z
" id="DejaVuSans-34"/>
     <path d="M 34.28125 27.484375 
Q 23.390625 27.484375 19.1875 25 
Q 14.984375 22.515625 14.984375 16.5 
Q 14.984375 11.71875 18.140625 8.90625 
Q 21.296875 6.109375 26.703125 6.109375 
Q 34.1875 6.109375 38.703125 11.40625 
Q 43.21875 16.703125 43.21875 25.484375 
L 43.21875 27.484375 
z
M 52.203125 31.203125 
L 52.203125 0 
L 43.21875 0 
L 43.21875 8.296875 
Q 40.140625 3.328125 35.546875 0.953125 
Q 30.953125 -1.421875 24.3125 -1.421875 
Q 15.921875 -1.421875 10.953125 3.296875 
Q 6 8.015625 6 15.921875 
Q 6 25.140625 12.171875 29.828125 
Q 18.359375 34.515625 30.609375 34.515625 
L 43.21875 34.515625 
L 43.21875 35.40625 
Q 43.21875 41.609375 39.140625 45 
Q 35.0625 48.390625 27.6875 48.390625 
Q 23 48.390625 18.546875 47.265625 
Q 14.109375 46.140625 10.015625 43.890625 
L 10.015625 52.203125 
Q 14.9375 54.109375 19.578125 55.046875 
Q 24.21875 56 28.609375 56 
Q 40.484375 56 46.34375 49.84375 
Q 52.203125 43.703125 52.203125 31.203125 
z
" id="DejaVuSans-97"/>
     <path d="M 32.171875 -5.078125 
Q 28.375 -14.84375 24.75 -17.8125 
Q 21.140625 -20.796875 15.09375 -20.796875 
L 7.90625 -20.796875 
L 7.90625 -13.28125 
L 13.1875 -13.28125 
Q 16.890625 -13.28125 18.9375 -11.515625 
Q 21 -9.765625 23.484375 -3.21875 
L 25.09375 0.875 
L 2.984375 54.6875 
L 12.5 54.6875 
L 29.59375 11.921875 
L 46.6875 54.6875 
L 56.203125 54.6875 
z
" id="DejaVuSans-121"/>
     <path d="M 54.890625 33.015625 
L 54.890625 0 
L 45.90625 0 
L 45.90625 32.71875 
Q 45.90625 40.484375 42.875 44.328125 
Q 39.84375 48.1875 33.796875 48.1875 
Q 26.515625 48.1875 22.3125 43.546875 
Q 18.109375 38.921875 18.109375 30.90625 
L 18.109375 0 
L 9.078125 0 
L 9.078125 54.6875 
L 18.109375 54.6875 
L 18.109375 46.1875 
Q 21.34375 51.125 25.703125 53.5625 
Q 30.078125 56 35.796875 56 
Q 45.21875 56 50.046875 50.171875 
Q 54.890625 44.34375 54.890625 33.015625 
z
" id="DejaVuSans-110"/>
     <path d="M 48.78125 52.59375 
L 48.78125 44.1875 
Q 44.96875 46.296875 41.140625 47.34375 
Q 37.3125 48.390625 33.40625 48.390625 
Q 24.65625 48.390625 19.8125 42.84375 
Q 14.984375 37.3125 14.984375 27.296875 
Q 14.984375 17.28125 19.8125 11.734375 
Q 24.65625 6.203125 33.40625 6.203125 
Q 37.3125 6.203125 41.140625 7.25 
Q 44.96875 8.296875 48.78125 10.40625 
L 48.78125 2.09375 
Q 45.015625 0.34375 40.984375 -0.53125 
Q 36.96875 -1.421875 32.421875 -1.421875 
Q 20.0625 -1.421875 12.78125 6.34375 
Q 5.515625 14.109375 5.515625 27.296875 
Q 5.515625 40.671875 12.859375 48.328125 
Q 20.21875 56 33.015625 56 
Q 37.15625 56 41.109375 55.140625 
Q 45.0625 54.296875 48.78125 52.59375 
z
" id="DejaVuSans-99"/>
     <path d="M 54.890625 33.015625 
L 54.890625 0 
L 45.90625 0 
L 45.90625 32.71875 
Q 45.90625 40.484375 42.875 44.328125 
Q 39.84375 48.1875 33.796875 48.1875 
Q 26.515625 48.1875 22.3125 43.546875 
Q 18.109375 38.921875 18.109375 30.90625 
L 18.109375 0 
L 9.078125 0 
L 9.078125 75.984375 
L 18.109375 75.984375 
L 18.109375 46.1875 
Q 21.34375 51.125 25.703125 53.5625 
Q 30.078125 56 35.796875 56 
Q 45.21875 56 50.046875 50.171875 
Q 54.890625 44.34375 54.890625 33.015625 
z
" id="DejaVuSans-104"/>
     <path d="M 41.109375 46.296875 
Q 39.59375 47.171875 37.8125 47.578125 
Q 36.03125 48 33.890625 48 
Q 26.265625 48 22.1875 43.046875 
Q 18.109375 38.09375 18.109375 28.8125 
L 18.109375 0 
L 9.078125 0 
L 9.078125 54.6875 
L 18.109375 54.6875 
L 18.109375 46.1875 
Q 20.953125 51.171875 25.484375 53.578125 
Q 30.03125 56 36.53125 56 
Q 37.453125 56 38.578125 55.875 
Q 39.703125 55.765625 41.0625 55.515625 
z
" id="DejaVuSans-114"/>
     <path d="M 8.5 21.578125 
L 8.5 54.6875 
L 17.484375 54.6875 
L 17.484375 21.921875 
Q 17.484375 14.15625 20.5 10.265625 
Q 23.53125 6.390625 29.59375 6.390625 
Q 36.859375 6.390625 41.078125 11.03125 
Q 45.3125 15.671875 45.3125 23.6875 
L 45.3125 54.6875 
L 54.296875 54.6875 
L 54.296875 0 
L 45.3125 0 
L 45.3125 8.40625 
Q 42.046875 3.421875 37.71875 1 
Q 33.40625 -1.421875 27.6875 -1.421875 
Q 18.265625 -1.421875 13.375 4.4375 
Q 8.5 10.296875 8.5 21.578125 
z
M 31.109375 56 
z
" id="DejaVuSans-117"/>
     <path id="DejaVuSans-32"/>
     <path d="M 45.40625 46.390625 
L 45.40625 75.984375 
L 54.390625 75.984375 
L 54.390625 0 
L 45.40625 0 
L 45.40625 8.203125 
Q 42.578125 3.328125 38.25 0.953125 
Q 33.9375 -1.421875 27.875 -1.421875 
Q 17.96875 -1.421875 11.734375 6.484375 
Q 5.515625 14.40625 5.515625 27.296875 
Q 5.515625 40.1875 11.734375 48.09375 
Q 17.96875 56 27.875 56 
Q 33.9375 56 38.25 53.625 
Q 42.578125 51.265625 45.40625 46.390625 
z
M 14.796875 27.296875 
Q 14.796875 17.390625 18.875 11.75 
Q 22.953125 6.109375 30.078125 6.109375 
Q 37.203125 6.109375 41.296875 11.75 
Q 45.40625 17.390625 45.40625 27.296875 
Q 45.40625 37.203125 41.296875 42.84375 
Q 37.203125 48.484375 30.078125 48.484375 
Q 22.953125 48.484375 18.875 42.84375 
Q 14.796875 37.203125 14.796875 27.296875 
z
" id="DejaVuSans-100"/>
    </defs>
    <g transform="translate(110.593483 21.87515)scale(0.144 -0.144)">
     <use xlink:href="#DejaVuSans-34"/>
     <use x="45.996094" xlink:href="#DejaVuSans-97"/>
     <use x="107.275391" xlink:href="#DejaVuSans-115"/>
     <use x="159.375" xlink:href="#DejaVuSans-121"/>
     <use x="218.554688" xlink:href="#DejaVuSans-110"/>
     <use x="281.933594" xlink:href="#DejaVuSans-99"/>
     <use x="336.914062" xlink:href="#DejaVuSans-104"/>
     <use x="400.292969" xlink:href="#DejaVuSans-114"/>
     <use x="441.375" xlink:href="#DejaVuSans-111"/>
     <use x="502.556641" xlink:href="#DejaVuSans-110"/>
     <use x="565.935547" xlink:href="#DejaVuSans-111"/>
     <use x="627.117188" xlink:href="#DejaVuSans-117"/>
     <use x="690.496094" xlink:href="#DejaVuSans-115"/>
     <use x="742.595703" xlink:href="#DejaVuSans-34"/>
     <use x="788.591797" xlink:href="#DejaVuSans-32"/>
     <use x="820.378906" xlink:href="#DejaVuSans-109"/>
     <use x="917.791016" xlink:href="#DejaVuSans-111"/>
     <use x="978.972656" xlink:href="#DejaVuSans-100"/>
     <use x="1042.449219" xlink:href="#DejaVuSans-101"/>
     <use x="1103.972656" xlink:href="#DejaVuSans-108"/>
    </g>
    <!-- (train_fire_rate = 0.5) -->
    <defs>
     <path d="M 31 75.875 
Q 24.46875 64.65625 21.28125 53.65625 
Q 18.109375 42.671875 18.109375 31.390625 
Q 18.109375 20.125 21.3125 9.0625 
Q 24.515625 -2 31 -13.1875 
L 23.1875 -13.1875 
Q 15.875 -1.703125 12.234375 9.375 
Q 8.59375 20.453125 8.59375 31.390625 
Q 8.59375 42.28125 12.203125 53.3125 
Q 15.828125 64.359375 23.1875 75.875 
z
" id="DejaVuSans-40"/>
     <path d="M 50.984375 -16.609375 
L 50.984375 -23.578125 
L -0.984375 -23.578125 
L -0.984375 -16.609375 
z
" id="DejaVuSans-95"/>
     <path d="M 37.109375 75.984375 
L 37.109375 68.5 
L 28.515625 68.5 
Q 23.6875 68.5 21.796875 66.546875 
Q 19.921875 64.59375 19.921875 59.515625 
L 19.921875 54.6875 
L 34.71875 54.6875 
L 34.71875 47.703125 
L 19.921875 47.703125 
L 19.921875 0 
L 10.890625 0 
L 10.890625 47.703125 
L 2.296875 47.703125 
L 2.296875 54.6875 
L 10.890625 54.6875 
L 10.890625 58.5 
Q 10.890625 67.625 15.140625 71.796875 
Q 19.390625 75.984375 28.609375 75.984375 
z
" id="DejaVuSans-102"/>
     <path d="M 10.59375 45.40625 
L 73.1875 45.40625 
L 73.1875 37.203125 
L 10.59375 37.203125 
z
M 10.59375 25.484375 
L 73.1875 25.484375 
L 73.1875 17.1875 
L 10.59375 17.1875 
z
" id="DejaVuSans-61"/>
     <path d="M 10.6875 12.40625 
L 21 12.40625 
L 21 0 
L 10.6875 0 
z
" id="DejaVuSans-46"/>
     <path d="M 8.015625 75.875 
L 15.828125 75.875 
Q 23.140625 64.359375 26.78125 53.3125 
Q 30.421875 42.28125 30.421875 31.390625 
Q 30.421875 20.453125 26.78125 9.375 
Q 23.140625 -1.703125 15.828125 -13.1875 
L 8.015625 -13.1875 
Q 14.5 -2 17.703125 9.0625 
Q 20.90625 20.125 20.90625 31.390625 
Q 20.90625 42.671875 17.703125 53.65625 
Q 14.5 64.65625 8.015625 75.875 
z
" id="DejaVuSans-41"/>
    </defs>
    <g transform="translate(113.896483 38)scale(0.144 -0.144)">
     <use xlink:href="#DejaVuSans-40"/>
     <use x="39.013672" xlink:href="#DejaVuSans-116"/>
     <use x="78.222656" xlink:href="#DejaVuSans-114"/>
     <use x="119.335938" xlink:href="#DejaVuSans-97"/>
     <use x="180.615234" xlink:href="#DejaVuSans-105"/>
     <use x="208.398438" xlink:href="#DejaVuSans-110"/>
     <use x="271.777344" xlink:href="#DejaVuSans-95"/>
     <use x="321.777344" xlink:href="#DejaVuSans-102"/>
     <use x="356.982422" xlink:href="#DejaVuSans-105"/>
     <use x="384.765625" xlink:href="#DejaVuSans-114"/>
     <use x="425.847656" xlink:href="#DejaVuSans-101"/>
     <use x="487.371094" xlink:href="#DejaVuSans-95"/>
     <use x="537.371094" xlink:href="#DejaVuSans-114"/>
     <use x="578.484375" xlink:href="#DejaVuSans-97"/>
     <use x="639.763672" xlink:href="#DejaVuSans-116"/>
     <use x="678.972656" xlink:href="#DejaVuSans-101"/>
     <use x="740.496094" xlink:href="#DejaVuSans-32"/>
     <use x="772.283203" xlink:href="#DejaVuSans-61"/>
     <use x="856.072266" xlink:href="#DejaVuSans-32"/>
     <use x="887.859375" xlink:href="#DejaVuSans-48"/>
     <use x="951.482422" xlink:href="#DejaVuSans-46"/>
     <use x="983.269531" xlink:href="#DejaVuSans-53"/>
     <use x="1046.892578" xlink:href="#DejaVuSans-41"/>
    </g>
   </g>
  </g>
  <g id="axes_2">
   <g id="patch_7">
    <path d="M 359.290102 246.7 
L 638.109091 246.7 
L 638.109091 44 
L 359.290102 44 
z
" style="fill:#eeeeee;"/>
   </g>
   <g id="matplotlib.axis_3">
    <g id="xtick_8">
     <g id="line2d_53">
      <path clip-path="url(#p636b9c4e12)" d="M 371.963692 246.7 
L 371.963692 44 
" style="fill:none;stroke:#b2b2b2;stroke-dasharray:1.85,0.8;stroke-dashoffset:0;stroke-width:0.5;"/>
     </g>
     <g id="line2d_54">
      <g>
       <use style="stroke:#000000;stroke-width:0.8;" x="371.963692" xlink:href="#m891ad0e156" y="246.7"/>
      </g>
     </g>
     <g id="text_15">
      <!-- 0 -->
      <g transform="translate(368.782442 257.798437)scale(0.1 -0.1)">
       <use xlink:href="#DejaVuSans-48"/>
      </g>
     </g>
    </g>
    <g id="xtick_9">
     <g id="line2d_55">
      <path clip-path="url(#p636b9c4e12)" d="M 414.22308 246.7 
L 414.22308 44 
" style="fill:none;stroke:#b2b2b2;stroke-dasharray:1.85,0.8;stroke-dashoffset:0;stroke-width:0.5;"/>
     </g>
     <g id="line2d_56">
      <g>
       <use style="stroke:#000000;stroke-width:0.8;" x="414.22308" xlink:href="#m891ad0e156" y="246.7"/>
      </g>
     </g>
     <g id="text_16">
      <!-- 50 -->
      <g transform="translate(407.86058 257.798437)scale(0.1 -0.1)">
       <use xlink:href="#DejaVuSans-53"/>
       <use x="63.623047" xlink:href="#DejaVuSans-48"/>
      </g>
     </g>
    </g>
    <g id="xtick_10">
     <g id="line2d_57">
      <path clip-path="url(#p636b9c4e12)" d="M 456.482468 246.7 
L 456.482468 44 
" style="fill:none;stroke:#b2b2b2;stroke-dasharray:1.85,0.8;stroke-dashoffset:0;stroke-width:0.5;"/>
     </g>
     <g id="line2d_58">
      <g>
       <use style="stroke:#000000;stroke-width:0.8;" x="456.482468" xlink:href="#m891ad0e156" y="246.7"/>
      </g>
     </g>
     <g id="text_17">
      <!-- 100 -->
      <g transform="translate(446.938718 257.798437)scale(0.1 -0.1)">
       <use xlink:href="#DejaVuSans-49"/>
       <use x="63.623047" xlink:href="#DejaVuSans-48"/>
       <use x="127.246094" xlink:href="#DejaVuSans-48"/>
      </g>
     </g>
    </g>
    <g id="xtick_11">
     <g id="line2d_59">
      <path clip-path="url(#p636b9c4e12)" d="M 498.741856 246.7 
L 498.741856 44 
" style="fill:none;stroke:#b2b2b2;stroke-dasharray:1.85,0.8;stroke-dashoffset:0;stroke-width:0.5;"/>
     </g>
     <g id="line2d_60">
      <g>
       <use style="stroke:#000000;stroke-width:0.8;" x="498.741856" xlink:href="#m891ad0e156" y="246.7"/>
      </g>
     </g>
     <g id="text_18">
      <!-- 150 -->
      <g transform="translate(489.198106 257.798437)scale(0.1 -0.1)">
       <use xlink:href="#DejaVuSans-49"/>
       <use x="63.623047" xlink:href="#DejaVuSans-53"/>
       <use x="127.246094" xlink:href="#DejaVuSans-48"/>
      </g>
     </g>
    </g>
    <g id="xtick_12">
     <g id="line2d_61">
      <path clip-path="url(#p636b9c4e12)" d="M 541.001244 246.7 
L 541.001244 44 
" style="fill:none;stroke:#b2b2b2;stroke-dasharray:1.85,0.8;stroke-dashoffset:0;stroke-width:0.5;"/>
     </g>
     <g id="line2d_62">
      <g>
       <use style="stroke:#000000;stroke-width:0.8;" x="541.001244" xlink:href="#m891ad0e156" y="246.7"/>
      </g>
     </g>
     <g id="text_19">
      <!-- 200 -->
      <g transform="translate(531.457494 257.798437)scale(0.1 -0.1)">
       <use xlink:href="#DejaVuSans-50"/>
       <use x="63.623047" xlink:href="#DejaVuSans-48"/>
       <use x="127.246094" xlink:href="#DejaVuSans-48"/>
      </g>
     </g>
    </g>
    <g id="xtick_13">
     <g id="line2d_63">
      <path clip-path="url(#p636b9c4e12)" d="M 583.260631 246.7 
L 583.260631 44 
" style="fill:none;stroke:#b2b2b2;stroke-dasharray:1.85,0.8;stroke-dashoffset:0;stroke-width:0.5;"/>
     </g>
     <g id="line2d_64">
      <g>
       <use style="stroke:#000000;stroke-width:0.8;" x="583.260631" xlink:href="#m891ad0e156" y="246.7"/>
      </g>
     </g>
     <g id="text_20">
      <!-- 250 -->
      <g transform="translate(573.716881 257.798437)scale(0.1 -0.1)">
       <use xlink:href="#DejaVuSans-50"/>
       <use x="63.623047" xlink:href="#DejaVuSans-53"/>
       <use x="127.246094" xlink:href="#DejaVuSans-48"/>
      </g>
     </g>
    </g>
    <g id="xtick_14">
     <g id="line2d_65">
      <path clip-path="url(#p636b9c4e12)" d="M 625.520019 246.7 
L 625.520019 44 
" style="fill:none;stroke:#b2b2b2;stroke-dasharray:1.85,0.8;stroke-dashoffset:0;stroke-width:0.5;"/>
     </g>
     <g id="line2d_66">
      <g>
       <use style="stroke:#000000;stroke-width:0.8;" x="625.520019" xlink:href="#m891ad0e156" y="246.7"/>
      </g>
     </g>
     <g id="text_21">
      <!-- 300 -->
      <g transform="translate(615.976269 257.798437)scale(0.1 -0.1)">
       <use xlink:href="#DejaVuSans-51"/>
       <use x="63.623047" xlink:href="#DejaVuSans-48"/>
       <use x="127.246094" xlink:href="#DejaVuSans-48"/>
      </g>
     </g>
    </g>
    <g id="text_22">
     <!-- time -->
     <g transform="translate(485.144284 272.99625)scale(0.12 -0.12)">
      <use xlink:href="#DejaVuSans-116"/>
      <use x="39.208984" xlink:href="#DejaVuSans-105"/>
      <use x="66.992188" xlink:href="#DejaVuSans-109"/>
      <use x="164.404297" xlink:href="#DejaVuSans-101"/>
     </g>
    </g>
   </g>
   <g id="matplotlib.axis_4">
    <g id="ytick_31">
     <g id="line2d_67">
      <path clip-path="url(#p636b9c4e12)" d="M 359.290102 246.259851 
L 638.109091 246.259851 
" style="fill:none;stroke:#b2b2b2;stroke-dasharray:1.85,0.8;stroke-dashoffset:0;stroke-width:0.5;"/>
     </g>
     <g id="line2d_68">
      <g>
       <use style="stroke:#000000;stroke-width:0.8;" x="359.290102" xlink:href="#m833dcef029" y="246.259851"/>
      </g>
     </g>
    </g>
    <g id="ytick_32">
     <g id="line2d_69">
      <path clip-path="url(#p636b9c4e12)" d="M 359.290102 188.641914 
L 638.109091 188.641914 
" style="fill:none;stroke:#b2b2b2;stroke-dasharray:1.85,0.8;stroke-dashoffset:0;stroke-width:0.5;"/>
     </g>
     <g id="line2d_70">
      <g>
       <use style="stroke:#000000;stroke-width:0.8;" x="359.290102" xlink:href="#m833dcef029" y="188.641914"/>
      </g>
     </g>
    </g>
    <g id="ytick_33">
     <g id="line2d_71">
      <path clip-path="url(#p636b9c4e12)" d="M 359.290102 131.023978 
L 638.109091 131.023978 
" style="fill:none;stroke:#b2b2b2;stroke-dasharray:1.85,0.8;stroke-dashoffset:0;stroke-width:0.5;"/>
     </g>
     <g id="line2d_72">
      <g>
       <use style="stroke:#000000;stroke-width:0.8;" x="359.290102" xlink:href="#m833dcef029" y="131.023978"/>
      </g>
     </g>
    </g>
    <g id="ytick_34">
     <g id="line2d_73">
      <path clip-path="url(#p636b9c4e12)" d="M 359.290102 73.406041 
L 638.109091 73.406041 
" style="fill:none;stroke:#b2b2b2;stroke-dasharray:1.85,0.8;stroke-dashoffset:0;stroke-width:0.5;"/>
     </g>
     <g id="line2d_74">
      <g>
       <use style="stroke:#000000;stroke-width:0.8;" x="359.290102" xlink:href="#m833dcef029" y="73.406041"/>
      </g>
     </g>
    </g>
    <g id="ytick_35">
     <g id="line2d_75">
      <g>
       <use style="stroke:#000000;stroke-width:0.6;" x="359.290102" xlink:href="#m71e4b4fc50" y="228.915123"/>
      </g>
     </g>
    </g>
    <g id="ytick_36">
     <g id="line2d_76">
      <g>
       <use style="stroke:#000000;stroke-width:0.6;" x="359.290102" xlink:href="#m71e4b4fc50" y="218.769108"/>
      </g>
     </g>
    </g>
    <g id="ytick_37">
     <g id="line2d_77">
      <g>
       <use style="stroke:#000000;stroke-width:0.6;" x="359.290102" xlink:href="#m71e4b4fc50" y="211.570396"/>
      </g>
     </g>
    </g>
    <g id="ytick_38">
     <g id="line2d_78">
      <g>
       <use style="stroke:#000000;stroke-width:0.6;" x="359.290102" xlink:href="#m71e4b4fc50" y="205.986641"/>
      </g>
     </g>
    </g>
    <g id="ytick_39">
     <g id="line2d_79">
      <g>
       <use style="stroke:#000000;stroke-width:0.6;" x="359.290102" xlink:href="#m71e4b4fc50" y="201.424381"/>
      </g>
     </g>
    </g>
    <g id="ytick_40">
     <g id="line2d_80">
      <g>
       <use style="stroke:#000000;stroke-width:0.6;" x="359.290102" xlink:href="#m71e4b4fc50" y="197.567045"/>
      </g>
     </g>
    </g>
    <g id="ytick_41">
     <g id="line2d_81">
      <g>
       <use style="stroke:#000000;stroke-width:0.6;" x="359.290102" xlink:href="#m71e4b4fc50" y="194.225669"/>
      </g>
     </g>
    </g>
    <g id="ytick_42">
     <g id="line2d_82">
      <g>
       <use style="stroke:#000000;stroke-width:0.6;" x="359.290102" xlink:href="#m71e4b4fc50" y="191.278366"/>
      </g>
     </g>
    </g>
    <g id="ytick_43">
     <g id="line2d_83">
      <g>
       <use style="stroke:#000000;stroke-width:0.6;" x="359.290102" xlink:href="#m71e4b4fc50" y="171.297187"/>
      </g>
     </g>
    </g>
    <g id="ytick_44">
     <g id="line2d_84">
      <g>
       <use style="stroke:#000000;stroke-width:0.6;" x="359.290102" xlink:href="#m71e4b4fc50" y="161.151172"/>
      </g>
     </g>
    </g>
    <g id="ytick_45">
     <g id="line2d_85">
      <g>
       <use style="stroke:#000000;stroke-width:0.6;" x="359.290102" xlink:href="#m71e4b4fc50" y="153.95246"/>
      </g>
     </g>
    </g>
    <g id="ytick_46">
     <g id="line2d_86">
      <g>
       <use style="stroke:#000000;stroke-width:0.6;" x="359.290102" xlink:href="#m71e4b4fc50" y="148.368705"/>
      </g>
     </g>
    </g>
    <g id="ytick_47">
     <g id="line2d_87">
      <g>
       <use style="stroke:#000000;stroke-width:0.6;" x="359.290102" xlink:href="#m71e4b4fc50" y="143.806445"/>
      </g>
     </g>
    </g>
    <g id="ytick_48">
     <g id="line2d_88">
      <g>
       <use style="stroke:#000000;stroke-width:0.6;" x="359.290102" xlink:href="#m71e4b4fc50" y="139.949109"/>
      </g>
     </g>
    </g>
    <g id="ytick_49">
     <g id="line2d_89">
      <g>
       <use style="stroke:#000000;stroke-width:0.6;" x="359.290102" xlink:href="#m71e4b4fc50" y="136.607733"/>
      </g>
     </g>
    </g>
    <g id="ytick_50">
     <g id="line2d_90">
      <g>
       <use style="stroke:#000000;stroke-width:0.6;" x="359.290102" xlink:href="#m71e4b4fc50" y="133.66043"/>
      </g>
     </g>
    </g>
    <g id="ytick_51">
     <g id="line2d_91">
      <g>
       <use style="stroke:#000000;stroke-width:0.6;" x="359.290102" xlink:href="#m71e4b4fc50" y="113.67925"/>
      </g>
     </g>
    </g>
    <g id="ytick_52">
     <g id="line2d_92">
      <g>
       <use style="stroke:#000000;stroke-width:0.6;" x="359.290102" xlink:href="#m71e4b4fc50" y="103.533235"/>
      </g>
     </g>
    </g>
    <g id="ytick_53">
     <g id="line2d_93">
      <g>
       <use style="stroke:#000000;stroke-width:0.6;" x="359.290102" xlink:href="#m71e4b4fc50" y="96.334523"/>
      </g>
     </g>
    </g>
    <g id="ytick_54">
     <g id="line2d_94">
      <g>
       <use style="stroke:#000000;stroke-width:0.6;" x="359.290102" xlink:href="#m71e4b4fc50" y="90.750768"/>
      </g>
     </g>
    </g>
    <g id="ytick_55">
     <g id="line2d_95">
      <g>
       <use style="stroke:#000000;stroke-width:0.6;" x="359.290102" xlink:href="#m71e4b4fc50" y="86.188508"/>
      </g>
     </g>
    </g>
    <g id="ytick_56">
     <g id="line2d_96">
      <g>
       <use style="stroke:#000000;stroke-width:0.6;" x="359.290102" xlink:href="#m71e4b4fc50" y="82.331172"/>
      </g>
     </g>
    </g>
    <g id="ytick_57">
     <g id="line2d_97">
      <g>
       <use style="stroke:#000000;stroke-width:0.6;" x="359.290102" xlink:href="#m71e4b4fc50" y="78.989796"/>
      </g>
     </g>
    </g>
    <g id="ytick_58">
     <g id="line2d_98">
      <g>
       <use style="stroke:#000000;stroke-width:0.6;" x="359.290102" xlink:href="#m71e4b4fc50" y="76.042493"/>
      </g>
     </g>
    </g>
    <g id="ytick_59">
     <g id="line2d_99">
      <g>
       <use style="stroke:#000000;stroke-width:0.6;" x="359.290102" xlink:href="#m71e4b4fc50" y="56.061314"/>
      </g>
     </g>
    </g>
    <g id="ytick_60">
     <g id="line2d_100">
      <g>
       <use style="stroke:#000000;stroke-width:0.6;" x="359.290102" xlink:href="#m71e4b4fc50" y="45.915299"/>
      </g>
     </g>
    </g>
    <g id="text_23">
     <!-- loss -->
     <g transform="translate(352.794477 156.939375)rotate(-90)scale(0.12 -0.12)">
      <use xlink:href="#DejaVuSans-108"/>
      <use x="27.783203" xlink:href="#DejaVuSans-111"/>
      <use x="88.964844" xlink:href="#DejaVuSans-115"/>
      <use x="141.064453" xlink:href="#DejaVuSans-115"/>
     </g>
    </g>
   </g>
   <g id="line2d_101">
    <path clip-path="url(#p636b9c4e12)" d="M 371.963692 82.859635 
L 374.414737 82.919489 
L 375.175406 82.712082 
L 375.851556 82.299014 
L 376.527706 81.603714 
L 377.288375 80.460682 
L 378.640676 77.854411 
L 379.570382 76.290404 
L 380.162014 75.646526 
L 380.669126 75.396434 
L 381.09172 75.423882 
L 381.514314 75.679571 
L 382.021427 76.271113 
L 382.613058 77.316836 
L 383.458246 79.342998 
L 386.500922 87.082392 
L 387.768704 89.463076 
L 389.459079 92.146999 
L 391.825605 95.398991 
L 394.699243 98.966383 
L 397.234806 101.754826 
L 399.094219 103.522191 
L 402.052377 106.06901 
L 405.010534 108.048196 
L 406.447353 108.789708 
L 407.968691 109.438251 
L 409.574548 109.940413 
L 415.068268 111.24681 
L 419.125169 112.029245 
L 422.421402 112.440105 
L 426.562822 112.552546 
L 438.649006 112.706512 
L 454.707574 113.352721 
L 461.976189 113.612835 
L 472.625554 113.987995 
L 498.657337 114.873179 
L 505.587877 114.976343 
L 511.419672 115.0828 
L 516.068205 115.227122 
L 549.791196 116.382223 
L 578.52758 116.960305 
L 581.654775 117.140018 
L 585.120045 117.216608 
L 587.993683 117.374357 
L 591.120878 117.610203 
L 593.571922 117.620049 
L 602.446394 117.964981 
L 612.504128 118.674571 
L 625.435501 119.767765 
L 625.435501 119.767765 
" style="fill:none;stroke:#348abd;stroke-linecap:square;stroke-width:2;"/>
   </g>
   <g id="line2d_102">
    <path clip-path="url(#p636b9c4e12)" d="M 371.963692 82.859635 
L 374.330218 82.914573 
L 375.175406 82.682426 
L 375.851556 82.25737 
L 376.527706 81.540506 
L 377.203857 80.502414 
L 378.218082 78.462709 
L 379.570382 75.805538 
L 380.246533 74.952807 
L 380.753645 74.646849 
L 381.260758 74.660965 
L 381.76787 75.016564 
L 382.274983 75.687743 
L 382.951133 77.02862 
L 383.965359 79.689295 
L 386.162847 85.550481 
L 387.515147 88.361064 
L 389.205523 91.300476 
L 391.403011 94.62903 
L 394.276649 98.590698 
L 397.319325 102.345432 
L 399.685851 104.906929 
L 402.897564 107.975233 
L 404.58794 109.286602 
L 408.475804 111.611877 
L 409.659066 111.996035 
L 411.349442 112.444038 
L 418.956132 114.328332 
L 421.15362 114.60233 
L 423.520146 114.809368 
L 428.084159 114.980113 
L 435.690849 115.084923 
L 466.962796 115.871323 
L 468.653172 115.918617 
L 488.76864 116.493326 
L 489.613828 116.479534 
L 534.408779 117.531256 
L 539.141831 117.644315 
L 539.479906 117.583829 
L 543.705845 117.73647 
L 544.04392 117.679228 
L 548.946009 117.864102 
L 549.284084 117.806527 
L 560.947675 118.315184 
L 568.385327 118.483419 
L 577.006242 119.026546 
L 581.570256 119.3269 
L 584.781969 119.540422 
L 590.360209 119.977859 
L 597.121711 120.299883 
L 604.559363 120.548288 
L 625.350982 120.704994 
L 625.350982 120.704994 
" style="fill:none;stroke:#a60628;stroke-linecap:square;stroke-width:2;"/>
   </g>
   <g id="line2d_103">
    <path clip-path="url(#p636b9c4e12)" d="M 371.963692 82.859635 
L 374.076662 82.917179 
L 374.92185 82.704473 
L 375.767037 82.210771 
L 376.612225 81.259175 
L 377.457413 79.732408 
L 378.725195 76.549273 
L 379.992976 73.509548 
L 380.838164 72.296251 
L 381.260758 72.034261 
L 381.683352 72.023189 
L 382.105946 72.283017 
L 382.528539 72.785408 
L 383.373727 74.467014 
L 384.641509 78.020803 
L 386.331884 82.735095 
L 388.02226 86.553246 
L 390.557823 91.56551 
L 393.938574 97.767028 
L 396.896731 102.803054 
L 401.12267 109.556359 
L 404.080827 113.743021 
L 405.771203 115.858658 
L 408.306766 118.573868 
L 409.997142 120.166922 
L 411.264923 121.105092 
L 412.532705 121.718259 
L 414.22308 122.223048 
L 416.758644 122.933873 
L 420.139395 123.784435 
L 422.252364 124.018115 
L 426.055709 124.428556 
L 428.168678 124.665655 
L 441.269088 125.66855 
L 467.469909 126.41931 
L 472.963629 126.449315 
L 474.654005 126.555968 
L 475.076599 126.43607 
L 481.415507 126.514519 
L 483.528476 126.590818 
L 485.641446 126.563154 
L 486.06404 126.392108 
L 496.628887 126.425701 
L 499.587044 126.345981 
L 502.122607 126.434214 
L 505.080764 126.485636 
L 510.997078 126.392962 
L 513.110048 126.544506 
L 516.913393 126.542712 
L 518.603768 126.466423 
L 521.561925 126.701922 
L 524.097489 126.808436 
L 530.013803 126.802305 
L 532.126772 126.931604 
L 535.930117 126.937179 
L 538.46568 126.827247 
L 554.101654 127.438211 
L 555.369436 127.482573 
L 560.017968 127.819634 
L 568.469846 128.65743 
L 573.118378 128.799841 
L 579.87988 129.538464 
L 581.570256 129.563948 
L 581.99285 129.479214 
L 599.741793 130.788873 
L 612.419609 130.929596 
L 619.603705 130.978382 
L 623.40705 130.937734 
L 625.097425 130.889815 
L 625.097425 130.889815 
" style="fill:none;stroke:#7a68a6;stroke-linecap:square;stroke-width:2;"/>
   </g>
   <g id="line2d_104">
    <path clip-path="url(#p636b9c4e12)" d="M 371.963692 82.859635 
L 373.654068 82.922957 
L 374.499256 82.792581 
L 375.344444 82.39485 
L 376.189631 81.634226 
L 377.034819 80.344677 
L 377.880007 78.372963 
L 378.725195 75.699972 
L 380.41557 69.669579 
L 381.260758 67.585416 
L 382.105946 66.601284 
L 382.951133 66.806867 
L 383.796321 68.04579 
L 385.486697 72.099192 
L 388.02226 77.912086 
L 389.712635 81.91431 
L 392.248199 88.838199 
L 401.545264 115.889882 
L 404.080827 123.905793 
L 406.61639 132.530932 
L 410.842329 147.552885 
L 415.068268 162.696027 
L 416.758644 167.90757 
L 419.294207 175.398487 
L 423.520146 189.368722 
L 425.210521 193.655073 
L 426.900897 198.437254 
L 427.746084 200.313698 
L 429.43646 203.309396 
L 431.126835 205.750808 
L 432.817211 207.754282 
L 433.662399 208.429614 
L 435.352774 210.438412 
L 436.197962 211.475226 
L 437.888337 213.992974 
L 438.733525 214.711648 
L 441.269088 215.970611 
L 442.114276 216.70133 
L 444.64984 218.258191 
L 446.340215 219.765505 
L 447.185403 220.392929 
L 448.030591 220.683225 
L 449.720966 221.46587 
L 450.566154 221.788953 
L 451.411342 221.983027 
L 452.256529 222.307129 
L 453.101717 222.866734 
L 453.946905 223.202887 
L 455.63728 224.036087 
L 463.24397 226.182434 
L 464.089158 226.504244 
L 467.469909 227.184768 
L 468.315097 227.112366 
L 470.005472 227.815983 
L 470.85066 227.939803 
L 471.695848 227.948979 
L 472.541035 228.088918 
L 473.386223 228.406293 
L 475.076599 228.667978 
L 475.921786 228.78234 
L 479.302538 229.902238 
L 480.147725 230.188819 
L 480.992913 230.314926 
L 482.683289 230.159753 
L 484.373664 230.797244 
L 485.218852 230.754098 
L 486.06404 230.882116 
L 486.909227 231.222212 
L 488.599603 231.222599 
L 490.289978 231.221241 
L 491.135166 231.224662 
L 492.825542 231.375233 
L 494.515917 231.241158 
L 495.361105 231.148826 
L 496.206293 231.321882 
L 497.896668 231.361035 
L 498.741856 231.430565 
L 499.587044 231.732729 
L 500.432231 231.843008 
L 501.277419 231.824141 
L 502.122607 231.577714 
L 502.967795 232.051678 
L 503.812982 232.207364 
L 505.503358 231.975316 
L 506.348546 232.00137 
L 508.038921 231.622331 
L 508.884109 231.614506 
L 510.574484 232.039249 
L 511.419672 232.288067 
L 513.110048 232.37805 
L 513.955235 232.288038 
L 515.645611 232.510707 
L 516.490799 232.793664 
L 517.335987 232.918638 
L 519.026362 232.583804 
L 519.87155 232.445137 
L 523.252301 232.630945 
L 524.942676 233.000559 
L 525.787864 233.038527 
L 526.633052 232.945398 
L 527.47824 233.311294 
L 528.323427 233.488948 
L 529.168615 233.513061 
L 531.704178 232.979313 
L 533.394554 233.169791 
L 535.084929 233.190457 
L 535.930117 233.63119 
L 536.775305 233.927889 
L 537.620493 234.00787 
L 538.46568 233.869287 
L 539.310868 233.535585 
L 541.001244 233.943837 
L 542.691619 233.771578 
L 543.536807 233.628249 
L 544.381995 233.774229 
L 545.227182 233.775257 
L 546.07237 233.510838 
L 546.917558 233.445565 
L 547.762746 233.688476 
L 549.453121 233.74175 
L 550.298309 233.669434 
L 551.988685 233.792318 
L 552.833872 233.590952 
L 554.524248 233.848529 
L 555.369436 233.737012 
L 556.214623 233.790732 
L 557.059811 233.688181 
L 557.904999 233.803573 
L 559.595374 233.357131 
L 560.440562 233.457571 
L 561.28575 233.870911 
L 562.976125 234.01122 
L 563.821313 233.987242 
L 564.666501 234.078061 
L 565.511689 233.787672 
L 567.202064 233.978784 
L 568.047252 234.064367 
L 570.582815 233.809924 
L 572.273191 233.98784 
L 573.963566 234.013925 
L 574.808754 234.164674 
L 577.344317 233.899103 
L 578.189505 234.083943 
L 579.87988 233.83787 
L 580.725068 233.727183 
L 581.570256 233.984464 
L 582.415444 233.885555 
L 584.105819 234.155612 
L 584.951007 234.246421 
L 585.796195 234.065885 
L 586.641383 234.023909 
L 588.331758 234.179641 
L 590.867321 233.773305 
L 591.712509 234.005629 
L 592.557697 233.999938 
L 594.248072 233.693988 
L 595.09326 233.868441 
L 595.938448 233.674595 
L 599.319199 233.891019 
L 601.009574 233.579287 
L 601.854762 233.625646 
L 603.545138 233.488607 
L 604.390325 233.696775 
L 605.235513 234.107345 
L 606.080701 234.229212 
L 608.616264 233.800036 
L 609.461452 234.090014 
L 610.30664 234.126556 
L 611.151827 234.046308 
L 611.997015 234.125487 
L 614.532578 233.813434 
L 616.222954 234.08977 
L 621.294081 234.052276 
L 622.139268 233.919631 
L 622.984456 234.098123 
L 624.674832 234.170767 
L 624.674832 234.170767 
" style="fill:none;stroke:#467821;stroke-dasharray:7.4,3.2;stroke-dashoffset:0;stroke-width:2;"/>
   </g>
   <g id="patch_8">
    <path d="M 359.290102 246.7 
L 359.290102 44 
" style="fill:none;stroke:#bcbcbc;stroke-linecap:square;stroke-linejoin:miter;stroke-width:0.8;"/>
   </g>
   <g id="patch_9">
    <path d="M 638.109091 246.7 
L 638.109091 44 
" style="fill:none;stroke:#bcbcbc;stroke-linecap:square;stroke-linejoin:miter;stroke-width:0.8;"/>
   </g>
   <g id="patch_10">
    <path d="M 359.290102 246.7 
L 638.109091 246.7 
" style="fill:none;stroke:#bcbcbc;stroke-linecap:square;stroke-linejoin:miter;stroke-width:0.8;"/>
   </g>
   <g id="patch_11">
    <path d="M 359.290102 44 
L 638.109091 44 
" style="fill:none;stroke:#bcbcbc;stroke-linecap:square;stroke-linejoin:miter;stroke-width:0.8;"/>
   </g>
   <g id="text_24">
    <!-- "synchronous" model -->
    <g transform="translate(421.624722 21.87515)scale(0.144 -0.144)">
     <use xlink:href="#DejaVuSans-34"/>
     <use x="45.996094" xlink:href="#DejaVuSans-115"/>
     <use x="98.095703" xlink:href="#DejaVuSans-121"/>
     <use x="157.275391" xlink:href="#DejaVuSans-110"/>
     <use x="220.654297" xlink:href="#DejaVuSans-99"/>
     <use x="275.634766" xlink:href="#DejaVuSans-104"/>
     <use x="339.013672" xlink:href="#DejaVuSans-114"/>
     <use x="380.095703" xlink:href="#DejaVuSans-111"/>
     <use x="441.277344" xlink:href="#DejaVuSans-110"/>
     <use x="504.65625" xlink:href="#DejaVuSans-111"/>
     <use x="565.837891" xlink:href="#DejaVuSans-117"/>
     <use x="629.216797" xlink:href="#DejaVuSans-115"/>
     <use x="681.316406" xlink:href="#DejaVuSans-34"/>
     <use x="727.3125" xlink:href="#DejaVuSans-32"/>
     <use x="759.099609" xlink:href="#DejaVuSans-109"/>
     <use x="856.511719" xlink:href="#DejaVuSans-111"/>
     <use x="917.693359" xlink:href="#DejaVuSans-100"/>
     <use x="981.169922" xlink:href="#DejaVuSans-101"/>
     <use x="1042.693359" xlink:href="#DejaVuSans-108"/>
    </g>
    <!-- (train_fire_rate = 1.0) -->
    <g transform="translate(420.515472 38)scale(0.144 -0.144)">
     <use xlink:href="#DejaVuSans-40"/>
     <use x="39.013672" xlink:href="#DejaVuSans-116"/>
     <use x="78.222656" xlink:href="#DejaVuSans-114"/>
     <use x="119.335938" xlink:href="#DejaVuSans-97"/>
     <use x="180.615234" xlink:href="#DejaVuSans-105"/>
     <use x="208.398438" xlink:href="#DejaVuSans-110"/>
     <use x="271.777344" xlink:href="#DejaVuSans-95"/>
     <use x="321.777344" xlink:href="#DejaVuSans-102"/>
     <use x="356.982422" xlink:href="#DejaVuSans-105"/>
     <use x="384.765625" xlink:href="#DejaVuSans-114"/>
     <use x="425.847656" xlink:href="#DejaVuSans-101"/>
     <use x="487.371094" xlink:href="#DejaVuSans-95"/>
     <use x="537.371094" xlink:href="#DejaVuSans-114"/>
     <use x="578.484375" xlink:href="#DejaVuSans-97"/>
     <use x="639.763672" xlink:href="#DejaVuSans-116"/>
     <use x="678.972656" xlink:href="#DejaVuSans-101"/>
     <use x="740.496094" xlink:href="#DejaVuSans-32"/>
     <use x="772.283203" xlink:href="#DejaVuSans-61"/>
     <use x="856.072266" xlink:href="#DejaVuSans-32"/>
     <use x="887.859375" xlink:href="#DejaVuSans-49"/>
     <use x="951.482422" xlink:href="#DejaVuSans-46"/>
     <use x="983.269531" xlink:href="#DejaVuSans-48"/>
     <use x="1046.892578" xlink:href="#DejaVuSans-41"/>
    </g>
   </g>
   <g id="legend_1">
    <g id="patch_12">
     <path d="M 652.854788 104.6315 
L 714.754788 104.6315 
Q 716.754788 104.6315 716.754788 102.6315 
L 716.754788 44.919 
Q 716.754788 42.919 714.754788 42.919 
L 652.854788 42.919 
Q 650.854788 42.919 650.854788 44.919 
L 650.854788 102.6315 
Q 650.854788 104.6315 652.854788 104.6315 
z
" style="fill:#eeeeee;opacity:0.8;stroke:#cccccc;stroke-linejoin:miter;stroke-width:0.5;"/>
    </g>
    <g id="line2d_105">
     <path d="M 654.854788 51.017437 
L 674.854788 51.017437 
" style="fill:none;stroke:#348abd;stroke-linecap:square;stroke-width:2;"/>
    </g>
    <g id="line2d_106"/>
    <g id="text_25">
     <!-- $\lambda = 0.1$ -->
     <defs>
      <path d="M 5.078125 1.703125 
Q 5.078125 3.171875 6.390625 4.5 
L 34.515625 32.078125 
L 24.609375 59.90625 
Q 23.4375 63.09375 22.140625 64.9375 
Q 20.84375 66.796875 18.40625 66.796875 
Q 17.28125 66.796875 17.28125 68.109375 
Q 17.390625 68.703125 17.78125 69.046875 
Q 18.171875 69.390625 18.796875 69.390625 
Q 29.296875 69.390625 31.5 63.1875 
L 51.8125 6.5 
Q 53.125 2.25 54.5 0.78125 
Q 54.984375 0.046875 54.984375 -0.203125 
Q 54.984375 -1.125 54.203125 -1.125 
L 48.78125 -1.125 
Q 46.296875 -0.390625 44.828125 3.21875 
L 35.6875 28.8125 
L 11.53125 0.390625 
Q 9.71875 -1.3125 8.296875 -1.3125 
Q 7.03125 -1.3125 6.046875 -0.4375 
Q 5.078125 0.4375 5.078125 1.703125 
z
" id="Cmmi10-184"/>
      <path d="M 7.515625 13.28125 
Q 6.6875 13.28125 6.140625 13.90625 
Q 5.609375 14.546875 5.609375 15.28125 
Q 5.609375 16.109375 6.140625 16.6875 
Q 6.6875 17.28125 7.515625 17.28125 
L 70.3125 17.28125 
Q 71.046875 17.28125 71.578125 16.6875 
Q 72.125 16.109375 72.125 15.28125 
Q 72.125 14.546875 71.578125 13.90625 
Q 71.046875 13.28125 70.3125 13.28125 
z
M 7.515625 32.71875 
Q 6.6875 32.71875 6.140625 33.296875 
Q 5.609375 33.890625 5.609375 34.71875 
Q 5.609375 35.453125 6.140625 36.078125 
Q 6.6875 36.71875 7.515625 36.71875 
L 70.3125 36.71875 
Q 71.046875 36.71875 71.578125 36.078125 
Q 72.125 35.453125 72.125 34.71875 
Q 72.125 33.890625 71.578125 33.296875 
Q 71.046875 32.71875 70.3125 32.71875 
z
" id="Cmr10-61"/>
      <path d="M 25 -2.203125 
Q 12.75 -2.203125 8.328125 7.875 
Q 3.90625 17.96875 3.90625 31.890625 
Q 3.90625 40.578125 5.484375 48.234375 
Q 7.078125 55.90625 11.78125 61.25 
Q 16.5 66.609375 25 66.609375 
Q 31.59375 66.609375 35.78125 63.375 
Q 39.984375 60.15625 42.1875 55.046875 
Q 44.390625 49.953125 45.1875 44.109375 
Q 46 38.28125 46 31.890625 
Q 46 23.296875 44.40625 15.796875 
Q 42.828125 8.296875 38.1875 3.046875 
Q 33.546875 -2.203125 25 -2.203125 
z
M 25 0.390625 
Q 30.5625 0.390625 33.296875 6.09375 
Q 36.03125 11.8125 36.671875 18.75 
Q 37.3125 25.6875 37.3125 33.5 
Q 37.3125 41.015625 36.671875 47.359375 
Q 36.03125 53.71875 33.3125 58.859375 
Q 30.609375 64.015625 25 64.015625 
Q 19.34375 64.015625 16.609375 58.828125 
Q 13.875 53.65625 13.234375 47.328125 
Q 12.59375 41.015625 12.59375 33.5 
Q 12.59375 27.9375 12.859375 23 
Q 13.140625 18.0625 14.3125 12.8125 
Q 15.484375 7.5625 18.09375 3.96875 
Q 20.703125 0.390625 25 0.390625 
z
" id="Cmr10-48"/>
      <path d="M 8.40625 5.515625 
Q 8.40625 7.765625 10.0625 9.375 
Q 11.71875 10.984375 13.921875 10.984375 
Q 15.28125 10.984375 16.59375 10.25 
Q 17.921875 9.515625 18.65625 8.203125 
Q 19.390625 6.890625 19.390625 5.515625 
Q 19.390625 3.328125 17.765625 1.65625 
Q 16.15625 0 13.921875 0 
Q 11.71875 0 10.0625 1.65625 
Q 8.40625 3.328125 8.40625 5.515625 
z
" id="Cmmi10-58"/>
      <path d="M 9.28125 0 
L 9.28125 3.515625 
Q 21.78125 3.515625 21.78125 6.6875 
L 21.78125 59.1875 
Q 16.609375 56.6875 8.6875 56.6875 
L 8.6875 60.203125 
Q 20.953125 60.203125 27.203125 66.609375 
L 28.609375 66.609375 
Q 28.953125 66.609375 29.265625 66.328125 
Q 29.59375 66.0625 29.59375 65.71875 
L 29.59375 6.6875 
Q 29.59375 3.515625 42.09375 3.515625 
L 42.09375 0 
z
" id="Cmr10-49"/>
     </defs>
     <g transform="translate(682.854788 54.517437)scale(0.1 -0.1)">
      <use transform="translate(0 0.609375)" xlink:href="#Cmmi10-184"/>
      <use transform="translate(75.859375 0.609375)" xlink:href="#Cmr10-61"/>
      <use transform="translate(171.103516 0.609375)" xlink:href="#Cmr10-48"/>
      <use transform="translate(221.103516 0.609375)" xlink:href="#Cmmi10-58"/>
      <use transform="translate(248.789062 0.609375)" xlink:href="#Cmr10-49"/>
     </g>
    </g>
    <g id="line2d_107">
     <path d="M 654.854788 65.695562 
L 674.854788 65.695562 
" style="fill:none;stroke:#a60628;stroke-linecap:square;stroke-width:2;"/>
    </g>
    <g id="line2d_108"/>
    <g id="text_26">
     <!-- $\lambda = 0.2$ -->
     <defs>
      <path d="M 4.984375 0 
L 4.984375 2.6875 
Q 4.984375 2.9375 5.171875 3.21875 
L 20.703125 20.40625 
Q 24.21875 24.21875 26.40625 26.796875 
Q 28.609375 29.390625 30.75 32.765625 
Q 32.90625 36.140625 34.15625 39.625 
Q 35.40625 43.109375 35.40625 47.015625 
Q 35.40625 51.125 33.890625 54.859375 
Q 32.375 58.59375 29.375 60.84375 
Q 26.375 63.09375 22.125 63.09375 
Q 17.78125 63.09375 14.3125 60.46875 
Q 10.84375 57.859375 9.421875 53.71875 
Q 9.8125 53.8125 10.5 53.8125 
Q 12.75 53.8125 14.328125 52.296875 
Q 15.921875 50.78125 15.921875 48.390625 
Q 15.921875 46.09375 14.328125 44.5 
Q 12.75 42.921875 10.5 42.921875 
Q 8.15625 42.921875 6.5625 44.546875 
Q 4.984375 46.1875 4.984375 48.390625 
Q 4.984375 52.15625 6.390625 55.4375 
Q 7.8125 58.734375 10.46875 61.296875 
Q 13.140625 63.875 16.484375 65.234375 
Q 19.828125 66.609375 23.578125 66.609375 
Q 29.296875 66.609375 34.21875 64.1875 
Q 39.15625 61.765625 42.03125 57.34375 
Q 44.921875 52.9375 44.921875 47.015625 
Q 44.921875 42.671875 43.015625 38.765625 
Q 41.109375 34.859375 38.125 31.65625 
Q 35.15625 28.46875 30.515625 24.40625 
Q 25.875 20.359375 24.421875 19 
L 13.09375 8.109375 
L 22.703125 8.109375 
Q 29.78125 8.109375 34.546875 8.21875 
Q 39.3125 8.34375 39.59375 8.59375 
Q 40.765625 9.859375 42 17.828125 
L 44.921875 17.828125 
L 42.09375 0 
z
" id="Cmr10-50"/>
     </defs>
     <g transform="translate(682.854788 69.195562)scale(0.1 -0.1)">
      <use transform="translate(0 0.609375)" xlink:href="#Cmmi10-184"/>
      <use transform="translate(75.859375 0.609375)" xlink:href="#Cmr10-61"/>
      <use transform="translate(171.103516 0.609375)" xlink:href="#Cmr10-48"/>
      <use transform="translate(221.103516 0.609375)" xlink:href="#Cmmi10-58"/>
      <use transform="translate(248.789062 0.609375)" xlink:href="#Cmr10-50"/>
     </g>
    </g>
    <g id="line2d_109">
     <path d="M 654.854788 80.373687 
L 674.854788 80.373687 
" style="fill:none;stroke:#7a68a6;stroke-linecap:square;stroke-width:2;"/>
    </g>
    <g id="line2d_110"/>
    <g id="text_27">
     <!-- $\lambda = 0.5$ -->
     <defs>
      <path d="M 8.6875 11.375 
Q 9.71875 8.453125 11.84375 6.046875 
Q 13.96875 3.65625 16.875 2.3125 
Q 19.78125 0.984375 22.90625 0.984375 
Q 30.125 0.984375 32.859375 6.59375 
Q 35.59375 12.203125 35.59375 20.21875 
Q 35.59375 23.6875 35.46875 26.046875 
Q 35.359375 28.421875 34.8125 30.609375 
Q 33.890625 34.125 31.5625 36.765625 
Q 29.25 39.40625 25.875 39.40625 
Q 22.515625 39.40625 20.09375 38.375 
Q 17.671875 37.359375 16.15625 35.984375 
Q 14.65625 34.625 13.484375 33.109375 
Q 12.3125 31.59375 12.015625 31.5 
L 10.890625 31.5 
Q 10.640625 31.5 10.265625 31.8125 
Q 9.90625 32.125 9.90625 32.421875 
L 9.90625 65.828125 
Q 9.90625 66.0625 10.21875 66.328125 
Q 10.546875 66.609375 10.890625 66.609375 
L 11.1875 66.609375 
Q 17.921875 63.375 25.484375 63.375 
Q 32.90625 63.375 39.796875 66.609375 
L 40.09375 66.609375 
Q 40.4375 66.609375 40.71875 66.359375 
Q 41.015625 66.109375 41.015625 65.828125 
L 41.015625 64.890625 
Q 41.015625 64.40625 40.828125 64.40625 
Q 37.40625 59.859375 32.25 57.3125 
Q 27.09375 54.78125 21.578125 54.78125 
Q 17.578125 54.78125 13.375 55.90625 
L 13.375 37.015625 
Q 16.703125 39.703125 19.3125 40.84375 
Q 21.921875 42 25.984375 42 
Q 31.5 42 35.859375 38.8125 
Q 40.234375 35.640625 42.578125 30.53125 
Q 44.921875 25.4375 44.921875 20.125 
Q 44.921875 14.109375 41.96875 8.984375 
Q 39.015625 3.859375 33.9375 0.828125 
Q 28.859375 -2.203125 22.90625 -2.203125 
Q 17.96875 -2.203125 13.84375 0.328125 
Q 9.71875 2.875 7.34375 7.171875 
Q 4.984375 11.46875 4.984375 16.3125 
Q 4.984375 18.5625 6.4375 19.96875 
Q 7.90625 21.390625 10.109375 21.390625 
Q 12.3125 21.390625 13.796875 19.9375 
Q 15.28125 18.5 15.28125 16.3125 
Q 15.28125 14.15625 13.796875 12.671875 
Q 12.3125 11.1875 10.109375 11.1875 
Q 9.765625 11.1875 9.328125 11.25 
Q 8.890625 11.328125 8.6875 11.375 
z
" id="Cmr10-53"/>
     </defs>
     <g transform="translate(682.854788 83.873687)scale(0.1 -0.1)">
      <use transform="translate(0 0.609375)" xlink:href="#Cmmi10-184"/>
      <use transform="translate(75.859375 0.609375)" xlink:href="#Cmr10-61"/>
      <use transform="translate(171.103516 0.609375)" xlink:href="#Cmr10-48"/>
      <use transform="translate(221.103516 0.609375)" xlink:href="#Cmmi10-58"/>
      <use transform="translate(248.789062 0.609375)" xlink:href="#Cmr10-53"/>
     </g>
    </g>
    <g id="line2d_111">
     <path d="M 654.854788 95.051812 
L 674.854788 95.051812 
" style="fill:none;stroke:#467821;stroke-dasharray:7.4,3.2;stroke-dashoffset:0;stroke-width:2;"/>
    </g>
    <g id="line2d_112"/>
    <g id="text_28">
     <!-- $\lambda = 1.0$ -->
     <g transform="translate(682.854788 98.551812)scale(0.1 -0.1)">
      <use transform="translate(0 0.609375)" xlink:href="#Cmmi10-184"/>
      <use transform="translate(75.859375 0.609375)" xlink:href="#Cmr10-61"/>
      <use transform="translate(171.103516 0.609375)" xlink:href="#Cmr10-49"/>
      <use transform="translate(221.103516 0.609375)" xlink:href="#Cmmi10-58"/>
      <use transform="translate(248.789062 0.609375)" xlink:href="#Cmr10-48"/>
     </g>
    </g>
   </g>
  </g>
 </g>
 <defs>
  <clipPath id="p031cd8bac3">
   <rect height="202.7" width="278.818989" x="52.671113" y="44"/>
  </clipPath>
  <clipPath id="p636b9c4e12">
   <rect height="202.7" width="278.818989" x="359.290102" y="44"/>
  </clipPath>
 </defs>
</svg>
